<?xml version="1.0" encoding="utf-8"?>
<!-- Generator: Adobe Illustrator 24.2.0, SVG Export Plug-In . SVG Version: 6.00 Build 0)  -->
<svg version="1.1" id="Layer_1" xmlns="http://www.w3.org/2000/svg" xmlns:xlink="http://www.w3.org/1999/xlink" x="0px" y="0px"
	 viewBox="0 0 101.6 24" style="enable-background:new 0 0 101.6 24;" xml:space="preserve">
<style type="text/css">
	.st0{fill:#FFFFFF;}
</style>
<g>
	<path class="st0" d="M57,13.3c-0.1,0.1-0.2,0.1-0.3,0.2c-0.1,0.1-0.1,0.2-0.1,0.3c0,0.1,0,0.2,0,0.3c0,0.1,0.1,0.1,0.1,0.2
		c0.1,0,0.1,0.1,0.2,0.1c0.1,0,0.2,0,0.2,0c0.1,0,0.2,0,0.3,0s0.2-0.1,0.3-0.1s0.2-0.1,0.2-0.2c0.1-0.1,0.2-0.1,0.2-0.2V13
		c-0.3,0-0.6,0-0.8,0.1S57.2,13.2,57,13.3z"/>
	<path class="st0" d="M69.1,11.3c0.1-0.1,0.1-0.3,0.1-0.4c0-0.3-0.1-0.6-0.3-0.7c-0.2-0.2-0.5-0.2-1-0.2h-0.8v2h0.8
		c0.2,0,0.4,0,0.6-0.1s0.3-0.1,0.4-0.2C68.9,11.6,69,11.5,69.1,11.3z"/>
	<path class="st0" d="M62.1,11.5c-0.1-0.1-0.3-0.1-0.5-0.1c-0.4,0-0.6,0.1-0.8,0.4s-0.3,0.6-0.3,1.1c0,0.2,0,0.5,0.1,0.6
		c0,0.2,0.1,0.3,0.2,0.4s0.2,0.2,0.3,0.3c0.1,0.1,0.3,0.1,0.4,0.1c0.2,0,0.4-0.1,0.6-0.2c0.2-0.1,0.3-0.2,0.5-0.4v-1.8
		C62.4,11.7,62.3,11.5,62.1,11.5z"/>
	<path class="st0" d="M53.6,11.4c-0.2,0-0.4,0-0.5,0.1c-0.1,0.1-0.3,0.2-0.4,0.3c-0.1,0.1-0.2,0.3-0.2,0.5c0,0.2-0.1,0.4-0.1,0.6
		c0,0.5,0.1,0.8,0.3,1.1c0.2,0.3,0.5,0.4,0.9,0.4c0.4,0,0.7-0.1,0.8-0.4c0.2-0.3,0.3-0.6,0.3-1.1c0-0.5-0.1-0.8-0.3-1.1
		C54.3,11.5,54,11.4,53.6,11.4z"/>
	<path class="st0" d="M37.4,11.4c-0.2,0-0.4,0-0.5,0.1c-0.1,0.1-0.3,0.2-0.4,0.3c-0.1,0.1-0.2,0.3-0.2,0.5c0,0.2-0.1,0.4-0.1,0.6
		c0,0.5,0.1,0.8,0.3,1.1c0.2,0.3,0.5,0.4,0.9,0.4c0.4,0,0.7-0.1,0.8-0.4c0.2-0.3,0.3-0.6,0.3-1.1c0-0.5-0.1-0.8-0.3-1.1
		C38.1,11.5,37.8,11.4,37.4,11.4z"/>
	<path class="st0" d="M89.6,0H12C5.4,0,0,5.4,0,12c0,6.6,5.4,12,12,12h77.6c6.6,0,12-5.4,12-12C101.6,5.4,96.2,0,89.6,0z M13.5,6.2
		h5.3v1.1h-5.3V6.2z M13.5,8.3h5.3v1.1h-5.3V8.3z M16.2,18.8L10.4,13h3.2v-2.6h5.3V13h3.2L16.2,18.8z M34.8,13.2
		c-0.1,0.3-0.3,0.6-0.5,0.9s-0.5,0.4-0.8,0.5c-0.3,0.1-0.7,0.2-1.1,0.2h-2V9.3h2c0.4,0,0.8,0.1,1.1,0.2c0.3,0.1,0.6,0.3,0.8,0.6
		c0.2,0.2,0.4,0.5,0.5,0.9S35,11.6,35,12C35,12.5,34.9,12.8,34.8,13.2z M39.1,13.7c-0.1,0.2-0.2,0.4-0.4,0.6
		c-0.2,0.2-0.4,0.3-0.6,0.4s-0.5,0.1-0.8,0.1c-0.3,0-0.5,0-0.8-0.1s-0.4-0.2-0.6-0.4c-0.2-0.2-0.3-0.4-0.4-0.6s-0.1-0.5-0.1-0.8
		c0-0.3,0-0.6,0.1-0.8s0.2-0.5,0.4-0.6c0.2-0.2,0.4-0.3,0.6-0.4s0.5-0.1,0.8-0.1c0.3,0,0.5,0,0.8,0.1s0.4,0.2,0.6,0.4
		c0.2,0.2,0.3,0.4,0.4,0.6s0.1,0.5,0.1,0.8C39.3,13.1,39.2,13.4,39.1,13.7z M44.1,14.8h-0.5c-0.1,0-0.1,0-0.1-0.1L42.6,12
		c0-0.1,0-0.1,0-0.2c0-0.1,0-0.1,0-0.2c0,0.1,0,0.1,0,0.2s0,0.1,0,0.2l-0.9,2.6c0,0.1-0.1,0.1-0.2,0.1h-0.5l-1.2-3.8h0.5
		c0.1,0,0.1,0,0.1,0c0,0,0.1,0.1,0.1,0.1l0.7,2.5c0,0.2,0.1,0.4,0.1,0.5c0-0.1,0-0.2,0.1-0.3c0-0.1,0-0.2,0.1-0.3l0.8-2.5
		c0,0,0-0.1,0.1-0.1c0,0,0.1,0,0.1,0h0.3c0.1,0,0.1,0,0.1,0c0,0,0.1,0.1,0.1,0.1l0.8,2.5c0,0.1,0.1,0.2,0.1,0.3c0,0.1,0,0.2,0.1,0.3
		c0-0.1,0-0.2,0-0.3s0-0.2,0.1-0.3l0.7-2.5c0,0,0-0.1,0.1-0.1c0,0,0.1,0,0.1,0h0.5L44.1,14.8z M49.2,14.8h-0.7v-2.4
		c0-0.3-0.1-0.5-0.2-0.7c-0.1-0.2-0.3-0.2-0.6-0.2c-0.2,0-0.4,0-0.6,0.1s-0.3,0.2-0.5,0.4v2.8H46v-3.8h0.4c0.1,0,0.2,0,0.2,0.1
		l0.1,0.4c0.1-0.1,0.2-0.2,0.3-0.3c0.1-0.1,0.2-0.1,0.3-0.2s0.2-0.1,0.3-0.1c0.1,0,0.2,0,0.4,0c0.2,0,0.4,0,0.6,0.1
		c0.2,0.1,0.3,0.2,0.4,0.3c0.1,0.1,0.2,0.3,0.2,0.5c0.1,0.2,0.1,0.4,0.1,0.6V14.8z M50.9,14.8h-0.7V9.2h0.7V14.8z M55.3,13.7
		c-0.1,0.2-0.2,0.4-0.4,0.6c-0.2,0.2-0.4,0.3-0.6,0.4s-0.5,0.1-0.8,0.1c-0.3,0-0.5,0-0.8-0.1s-0.4-0.2-0.6-0.4
		c-0.2-0.2-0.3-0.4-0.4-0.6s-0.1-0.5-0.1-0.8c0-0.3,0-0.6,0.1-0.8s0.2-0.5,0.4-0.6c0.2-0.2,0.4-0.3,0.6-0.4s0.5-0.1,0.8-0.1
		c0.3,0,0.5,0,0.8,0.1s0.4,0.2,0.6,0.4c0.2,0.2,0.3,0.4,0.4,0.6s0.1,0.5,0.1,0.8C55.4,13.1,55.4,13.4,55.3,13.7z M59,14.8h-0.3
		c-0.1,0-0.1,0-0.2,0s-0.1-0.1-0.1-0.1l-0.1-0.4c-0.1,0.1-0.2,0.2-0.3,0.2s-0.2,0.1-0.3,0.2c-0.1,0-0.2,0.1-0.3,0.1
		c-0.1,0-0.3,0-0.4,0c-0.1,0-0.3,0-0.4-0.1c-0.1,0-0.2-0.1-0.3-0.2s-0.2-0.2-0.2-0.3C56,14.1,56,14,56,13.8c0-0.2,0-0.3,0.1-0.4
		c0.1-0.1,0.2-0.3,0.4-0.4c0.2-0.1,0.4-0.2,0.7-0.3s0.7-0.1,1.1-0.1v-0.3c0-0.3-0.1-0.5-0.2-0.7c-0.1-0.2-0.3-0.2-0.6-0.2
		c-0.2,0-0.3,0-0.4,0.1c-0.1,0-0.2,0.1-0.3,0.1c-0.1,0.1-0.2,0.1-0.2,0.1c-0.1,0-0.1,0.1-0.2,0.1c0,0-0.1,0-0.1,0s-0.1-0.1-0.1-0.1
		l-0.1-0.2c0.2-0.2,0.4-0.4,0.7-0.5c0.2-0.1,0.5-0.2,0.8-0.2c0.2,0,0.4,0,0.6,0.1c0.2,0.1,0.3,0.2,0.4,0.3c0.1,0.1,0.2,0.3,0.3,0.5
		c0.1,0.2,0.1,0.4,0.1,0.6V14.8z M63.2,14.8h-0.4c-0.1,0-0.2,0-0.2-0.1l-0.1-0.5c-0.2,0.2-0.4,0.4-0.6,0.5s-0.5,0.2-0.7,0.2
		c-0.2,0-0.4,0-0.6-0.1c-0.2-0.1-0.3-0.2-0.5-0.4s-0.2-0.4-0.3-0.6c-0.1-0.2-0.1-0.5-0.1-0.8c0-0.3,0-0.5,0.1-0.8
		c0.1-0.2,0.2-0.5,0.3-0.6c0.1-0.2,0.3-0.3,0.5-0.4s0.4-0.2,0.7-0.2c0.2,0,0.4,0,0.6,0.1c0.2,0.1,0.3,0.2,0.4,0.3V9.2h0.7V14.8z
		 M69.7,14.8c-0.1,0-0.2-0.1-0.3-0.2L68,12.7c0-0.1-0.1-0.1-0.1-0.1c0,0-0.1,0-0.2,0h-0.6v2.3h-0.7V9.3h1.5c0.3,0,0.6,0,0.9,0.1
		c0.2,0.1,0.5,0.2,0.6,0.3c0.2,0.1,0.3,0.3,0.4,0.5c0.1,0.2,0.1,0.4,0.1,0.6c0,0.2,0,0.4-0.1,0.5c-0.1,0.2-0.1,0.3-0.3,0.4
		s-0.3,0.2-0.4,0.3s-0.4,0.2-0.6,0.2c0.1,0.1,0.2,0.1,0.2,0.2l1.6,2.1H69.7z M73.8,12.8c0,0-0.1,0.1-0.1,0.1h-2.6
		c0,0.2,0,0.5,0.1,0.6s0.1,0.3,0.2,0.4s0.2,0.2,0.4,0.3s0.3,0.1,0.5,0.1c0.2,0,0.3,0,0.4-0.1c0.1,0,0.2-0.1,0.3-0.1
		c0.1,0,0.2-0.1,0.2-0.1c0.1,0,0.1-0.1,0.2-0.1c0.1,0,0.1,0,0.1,0.1l0.2,0.2c-0.1,0.1-0.2,0.2-0.3,0.3c-0.1,0.1-0.2,0.1-0.4,0.2
		s-0.3,0.1-0.4,0.1s-0.3,0-0.4,0c-0.3,0-0.5,0-0.7-0.1c-0.2-0.1-0.4-0.2-0.6-0.4c-0.2-0.2-0.3-0.4-0.4-0.6s-0.1-0.5-0.1-0.9
		c0-0.3,0-0.5,0.1-0.7c0.1-0.2,0.2-0.4,0.4-0.6c0.2-0.2,0.3-0.3,0.6-0.4c0.2-0.1,0.5-0.1,0.7-0.1c0.2,0,0.4,0,0.6,0.1
		c0.2,0.1,0.4,0.2,0.5,0.3c0.1,0.1,0.3,0.3,0.3,0.5s0.1,0.5,0.1,0.7C73.9,12.7,73.8,12.8,73.8,12.8z M77,14.1
		c-0.1,0.1-0.2,0.3-0.3,0.4c-0.1,0.1-0.3,0.2-0.5,0.3s-0.4,0.1-0.6,0.1c-0.3,0-0.5,0-0.7-0.1s-0.4-0.2-0.6-0.3l0.2-0.3
		c0,0,0-0.1,0.1-0.1c0,0,0.1,0,0.1,0c0,0,0.1,0,0.1,0.1c0.1,0,0.1,0.1,0.2,0.1c0.1,0,0.2,0.1,0.3,0.1c0.1,0,0.2,0.1,0.4,0.1
		c0.1,0,0.2,0,0.3-0.1s0.2-0.1,0.2-0.1c0.1-0.1,0.1-0.1,0.1-0.2c0-0.1,0-0.2,0-0.2c0-0.1,0-0.2-0.1-0.3s-0.1-0.1-0.2-0.2
		c-0.1,0-0.2-0.1-0.3-0.1c-0.1,0-0.2-0.1-0.4-0.1c-0.1,0-0.2-0.1-0.4-0.1s-0.2-0.1-0.3-0.2c-0.1-0.1-0.2-0.2-0.2-0.3
		c-0.1-0.1-0.1-0.3-0.1-0.4c0-0.1,0-0.3,0.1-0.4s0.1-0.3,0.3-0.4c0.1-0.1,0.3-0.2,0.4-0.2s0.4-0.1,0.6-0.1c0.3,0,0.5,0,0.7,0.1
		c0.2,0.1,0.4,0.2,0.5,0.3l-0.2,0.2c0,0.1-0.1,0.1-0.1,0.1c0,0-0.1,0-0.1,0s-0.1-0.1-0.2-0.1s-0.2-0.1-0.2-0.1c-0.1,0-0.2,0-0.3,0
		c-0.1,0-0.2,0-0.3,0c-0.1,0-0.2,0.1-0.2,0.1c-0.1,0.1-0.1,0.1-0.1,0.2c0,0.1-0.1,0.1-0.1,0.2c0,0.1,0,0.2,0.1,0.2s0.1,0.1,0.2,0.2
		c0.1,0,0.2,0.1,0.3,0.1c0.1,0,0.2,0.1,0.4,0.1c0.1,0,0.2,0.1,0.4,0.1c0.1,0.1,0.2,0.1,0.3,0.2s0.2,0.2,0.2,0.3
		c0.1,0.1,0.1,0.2,0.1,0.4C77.1,13.8,77.1,13.9,77,14.1z M81.1,14.8h-0.4c-0.1,0-0.2,0-0.2-0.1l-0.1-0.4c-0.2,0.2-0.4,0.3-0.6,0.4
		c-0.2,0.1-0.4,0.2-0.7,0.2c-0.2,0-0.4,0-0.6-0.1c-0.2-0.1-0.3-0.2-0.4-0.3S78.1,14.1,78,14s-0.1-0.4-0.1-0.6v-2.4h0.7v2.4
		c0,0.3,0.1,0.5,0.2,0.7s0.3,0.2,0.6,0.2c0.2,0,0.4,0,0.6-0.1c0.2-0.1,0.3-0.2,0.5-0.4v-2.8h0.7V14.8z M87.4,14.8h-0.7v-2.4
		c0-0.3-0.1-0.5-0.2-0.7c-0.1-0.2-0.3-0.2-0.6-0.2c-0.1,0-0.2,0-0.3,0.1s-0.2,0.1-0.3,0.2c-0.1,0.1-0.1,0.2-0.2,0.3
		c0,0.1-0.1,0.2-0.1,0.4v2.4h-0.7v-2.4c0-0.3-0.1-0.5-0.2-0.7c-0.1-0.2-0.3-0.2-0.5-0.2c-0.2,0-0.3,0-0.5,0.1s-0.3,0.2-0.4,0.4v2.9
		h-0.7v-3.8h0.4c0.1,0,0.2,0,0.2,0.1l0,0.4c0.1-0.2,0.3-0.3,0.5-0.4s0.4-0.2,0.6-0.2c0.3,0,0.5,0.1,0.6,0.2c0.2,0.1,0.3,0.3,0.3,0.6
		c0.1-0.1,0.1-0.3,0.2-0.4s0.2-0.2,0.3-0.2c0.1-0.1,0.2-0.1,0.3-0.1c0.1,0,0.2,0,0.4,0c0.2,0,0.4,0,0.5,0.1c0.2,0.1,0.3,0.2,0.4,0.3
		c0.1,0.1,0.2,0.3,0.3,0.5c0.1,0.2,0.1,0.4,0.1,0.6V14.8z M91.5,12.8c0,0-0.1,0.1-0.1,0.1h-2.6c0,0.2,0,0.5,0.1,0.6s0.1,0.3,0.2,0.4
		s0.2,0.2,0.4,0.3s0.3,0.1,0.5,0.1c0.2,0,0.3,0,0.4-0.1c0.1,0,0.2-0.1,0.3-0.1C90.9,14,91,14,91,14c0.1,0,0.1-0.1,0.2-0.1
		c0.1,0,0.1,0,0.1,0.1l0.2,0.2c-0.1,0.1-0.2,0.2-0.3,0.3c-0.1,0.1-0.2,0.1-0.4,0.2s-0.3,0.1-0.4,0.1s-0.3,0-0.4,0
		c-0.3,0-0.5,0-0.7-0.1c-0.2-0.1-0.4-0.2-0.6-0.4c-0.2-0.2-0.3-0.4-0.4-0.6s-0.1-0.5-0.1-0.9c0-0.3,0-0.5,0.1-0.7
		c0.1-0.2,0.2-0.4,0.4-0.6c0.2-0.2,0.3-0.3,0.6-0.4c0.2-0.1,0.5-0.1,0.7-0.1c0.2,0,0.4,0,0.6,0.1c0.2,0.1,0.4,0.2,0.5,0.3
		c0.1,0.1,0.3,0.3,0.3,0.5s0.1,0.5,0.1,0.7C91.5,12.7,91.5,12.8,91.5,12.8z"/>
	<path class="st0" d="M90.7,11.7c-0.1-0.1-0.2-0.2-0.3-0.2c-0.1-0.1-0.3-0.1-0.4-0.1c-0.3,0-0.6,0.1-0.8,0.3
		c-0.2,0.2-0.3,0.4-0.3,0.8h2.1c0-0.2,0-0.3-0.1-0.4C90.8,11.9,90.8,11.8,90.7,11.7z"/>
	<path class="st0" d="M73,11.7c-0.1-0.1-0.2-0.2-0.3-0.2c-0.1-0.1-0.3-0.1-0.4-0.1c-0.3,0-0.6,0.1-0.8,0.3c-0.2,0.2-0.3,0.4-0.3,0.8
		h2.1c0-0.2,0-0.3-0.1-0.4C73.1,11.9,73.1,11.8,73,11.7z"/>
	<path class="st0" d="M33.7,10.5c-0.2-0.2-0.4-0.3-0.6-0.4s-0.5-0.1-0.8-0.1H31v4.2h1.3c0.3,0,0.6,0,0.8-0.1s0.4-0.2,0.6-0.4
		c0.2-0.2,0.3-0.4,0.4-0.7c0.1-0.3,0.1-0.6,0.1-0.9c0-0.3,0-0.6-0.1-0.9C34,10.9,33.9,10.7,33.7,10.5z"/>
</g>
</svg>
