<?xml version="1.0" encoding="utf-8"?>
<!-- Generator: Adobe Illustrator 24.2.0, SVG Export Plug-In . SVG Version: 6.00 Build 0)  -->
<svg version="1.1" id="Layer_1" xmlns="http://www.w3.org/2000/svg" xmlns:xlink="http://www.w3.org/1999/xlink" x="0px" y="0px"
	 viewBox="0 0 24 24" style="enable-background:new 0 0 24 24;" xml:space="preserve">
<style type="text/css">
	.st0{fill:#FFFFFF;}
</style>
<path class="st0" d="M12,0C5.4,0,0,5.4,0,12s5.4,12,12,12s12-5.4,12-12S18.6,0,12,0z M14.2,18.6c-0.4,0.1-0.5-0.1-0.5-0.3v-1.9
	c0-0.5-0.1-1-0.5-1.3c1.6-0.2,3.2-0.8,3.2-3.4c0-0.7-0.3-1.4-0.7-1.9c0.2-0.6,0.2-1.3-0.1-1.8c0,0-0.6-0.2-1.9,0.7
	c-1.1-0.3-2.4-0.3-3.5,0C8.9,7.7,8.3,7.9,8.3,7.9C8.1,8.5,8,9.1,8.3,9.7c-0.5,0.5-0.7,1.2-0.7,1.9c0,2.7,1.6,3.3,3.2,3.5
	c-0.3,0.2-0.4,0.6-0.4,0.9c-0.7,0.4-1.6,0.1-2-0.6c-0.2-0.4-0.6-0.7-1.1-0.7c0,0-0.7,0,0,0.4c0.4,0.2,0.6,0.6,0.8,1
	c0,0,0.4,1.3,2.4,0.8v1.3c0,0.2-0.1,0.4-0.5,0.3c-3.7-1.2-5.6-5.2-4.4-8.9s5.2-5.6,8.9-4.4s5.6,5.2,4.4,8.9
	C18,16.3,16.4,17.9,14.2,18.6L14.2,18.6z"/>
</svg>
