<svg xmlns="http://www.w3.org/2000/svg" x="0px" y="0px" viewBox="0 0 612.6 199"><linearGradient id="a" x1="585.4545" x2="540.6684" y1="23.3" y2="23.3" gradientUnits="userSpaceOnUse"><stop offset="0" stop-color="#fb782f"/><stop offset="0.428" stop-color="#fb7631"/><stop offset="0.5822" stop-color="#f97038"/><stop offset="0.6921" stop-color="#f76643"/><stop offset="0.7809" stop-color="#f35854"/><stop offset="0.857" stop-color="#ef456a"/><stop offset="0.9244" stop-color="#e92d86"/><stop offset="0.9838" stop-color="#e312a5"/><stop offset="1" stop-color="#e109af"/></linearGradient><path fill="url(#a)" d="M547 33c9 5 23 5 32 0s9-14 0-19-23-5-32 0c-8 5-8 13 0 19z"/><linearGradient id="b" x1="481.2456" x2="436.4549" y1="14.3313" y2="14.3313" gradientUnits="userSpaceOnUse"><stop offset="0" stop-color="#fb782f"/><stop offset="0.428" stop-color="#fb7631"/><stop offset="0.5822" stop-color="#f97038"/><stop offset="0.6921" stop-color="#f76643"/><stop offset="0.7809" stop-color="#f35854"/><stop offset="0.857" stop-color="#ef456a"/><stop offset="0.9244" stop-color="#e92d86"/><stop offset="0.9838" stop-color="#e312a5"/><stop offset="1" stop-color="#e109af"/></linearGradient><path fill="url(#b)" d="M443 24c9 5 23 5 32 0s9-14 0-19-23-5-32 0-9 13 0 19z"/><linearGradient id="c" x1="600.1403" x2="1.4857" y1="99.5" y2="99.5" gradientUnits="userSpaceOnUse"><stop offset="0" stop-color="#fb782f"/><stop offset="1" stop-color="#e109af"/></linearGradient><path fill="url(#c)" d="M594 112c-9-6-23-6-32 0l-52 30c4-5 2-11-5-15-6-4-15-5-23-3l18-11c8-5 8-13 0-18-7-3-16-4-24-3l59-34c8-5 8-13-1-18-8-5-23-5-31 0l-78 45c3-4 1-10-6-14-6-3-15-4-23-3l21-12c9-5 9-13 0-18-7-4-16-5-24-3l22-13c9-5 9-13 0-18s-23-5-32 0l-33 19c2-4 0-9-5-13-9-5-23-5-32 0L2 199h480l112-69c8-5 8-13 0-18z"/><g opacity=".1"><path d="M547 17c9-5 23-5 32 0 4 2 6 5 6 8 1-4-1-8-6-11-9-5-23-5-32 0-5 3-7 7-6 11 0-3 3-6 6-8zM443 8c9-5 23-5 32 0 3 2 6 5 6 8 1-4-1-8-6-11-9-5-23-5-32 0-5 3-7 7-6 11 0-3 2-6 6-8zM503 43c9-5 23-5 32 0 3 2 6 5 6 7 1-3-1-7-6-10-9-5-23-5-32 0l-78 45v3l78-45zM500 98c4 2 6 5 6 8 1-4-1-8-6-11-5-2-14-5-24-3v3c8-1 17 0 24 3zM420 75c3 2 6 4 6 7 1-4-1-8-6-10-5-3-14-6-24-3v3c8-2 17-1 24 3zM562 115c9-6 23-6 32 0 3 2 6 4 6 7 1-4-1-8-6-10-9-6-23-6-32 0l-52 30v3l52-30zM417 41c4 2 6 5 6 8 1-4-1-8-6-11s-14-5-24-3v3c8-2 17-1 24 3zM506 130c3 2 5 5 6 8 1-4-1-8-6-11s-14-5-24-3v3c8-2 17-1 24 3zM345 13c3 3 6 5 6 8 1-4-1-8-6-11-9-5-23-5-32 0L2 199h5L313 13c9-5 23-5 32 0zM351 26l32-19c9-5 23-5 32 0 4 2 6 5 7 7 0-3-2-7-7-10-9-5-23-5-32 0l-32 19v3z"/></g></svg>