<?xml version="1.0" encoding="utf-8"?>
<!-- Generator: Adobe Illustrator 24.1.3, SVG Export Plug-In . SVG Version: 6.00 Build 0)  -->
<svg version="1.1" id="Layer_1" xmlns="http://www.w3.org/2000/svg" xmlns:xlink="http://www.w3.org/1999/xlink" x="0px" y="0px"
	 viewBox="0 0 884.8 420" enable-background="new 0 0 884.8 420" xml:space="preserve">
<g>
	<defs>
		<path id="SVGID_1_" d="M138.7,179.6c-8.8,5.1-8.8,13.4,0.1,18.5c6.8,4,16.9,4.8,25.3,2.7L77.7,251c-8.8,5.1-8.8,13.4,0.1,18.5
			c6.8,4,16.9,4.8,25.3,2.7l-84.2,48.9c-8.8,5.1-8.8,13.4,0.1,18.5c8.9,5.1,23.2,5.1,32,0l132.8-77.1c-3.6,4.8-2,10.6,4.8,14.5
			c6.8,4,17,4.9,25.3,2.7l-40.3,23.4c-8.8,5.1-8.8,13.4,0.1,18.5c8.9,5.1,23.2,5.1,32,0l68-39.5c-3.7,4.8-2.1,10.7,4.7,14.6
			c6.8,4,16.9,4.8,25.3,2.7L257,326.6c-8.8,5.1-8.8,13.4,0.1,18.5c8.9,5.1,23.2,5.1,32,0L883.5,0.9c0.5-0.3,0.9-0.6,1.3-0.9H449.7
			L138.7,179.6z"/>
	</defs>
	<clipPath id="SVGID_2_">
		<use xlink:href="#SVGID_1_"  overflow="visible"/>
	</clipPath>
	
		<linearGradient id="SVGID_3_" gradientUnits="userSpaceOnUse" x1="117.3324" y1="855.1512" x2="991.6984" y2="855.1512" gradientTransform="matrix(1 0 0 1 -107.1343 -841.834)">
		<stop  offset="0" style="stop-color:#FB782F"/>
		<stop  offset="1.063716e-02" style="stop-color:#FB7631"/>
		<stop  offset="0.2386" style="stop-color:#F14F5E"/>
		<stop  offset="0.4578" style="stop-color:#EA3181"/>
		<stop  offset="0.6633" style="stop-color:#E51B9A"/>
		<stop  offset="0.8497" style="stop-color:#E20EAA"/>
		<stop  offset="1" style="stop-color:#E109AF"/>
	</linearGradient>
	<rect x="10.2" y="-423.9" clip-path="url(#SVGID_2_)" fill="url(#SVGID_3_)" width="874.4" height="874.4"/>
</g>
<g opacity="0.1">
	<path d="M18.8,325.2l84.2-48.9l0.1-4l-84.3,49c-5.3,3.1-7.3,7.2-6.3,11.2C13.3,329.8,15.3,327.2,18.8,325.2z"/>
	<path d="M173.4,307.3l40.3-23.4l0.1-4l-40.4,23.5c-5.3,3.1-7.3,7.2-6.3,11.2C167.8,311.9,169.9,309.3,173.4,307.3z"/>
	<path d="M77.7,255.1l86.3-50.2l0.1-4l-86.4,50.2c-5.3,3.1-7.3,7.2-6.3,11.2C72.1,259.6,74.2,257.1,77.7,255.1z"/>
	<path d="M456.5,0L138.6,183.4c-3.5,2-5.6,4.6-6.3,7.2c-1.1-4,1-8.2,6.3-11.2L449.7,0H456.5z"/>
	<path d="M256.9,330.7l46.6-27.1c0,0-0.2-3.9,0.1-4l-46.7,27.1c-5.3,3.1-7.3,7.2-6.3,11.2C251.4,335.3,253.4,332.7,256.9,330.7z"/>
</g>
<g>
	<g>
		<g>
			<path fill="#FB782F" d="M82.7,394.6c1.6,0.9,2.5,2.3,2,3.8c-0.7,2.3-4.5,3.8-8.4,3.3c-1.5-0.2-2.8-0.6-3.8-1.1
				c-1.6-0.9-2.5-2.3-2-3.8c0.7-2.3,4.5-3.8,8.4-3.3C80.4,393.6,81.7,394,82.7,394.6z"/>
		</g>
		<g>
			<path fill="#FB782F" d="M84.6,416.5c0.8,0.5,1.2,1.2,1,1.9c-0.4,1.1-2.3,1.9-4.2,1.7c-0.7-0.1-1.4-0.3-1.9-0.6
				c-0.8-0.5-1.2-1.2-1-1.9c0.4-1.1,2.2-1.9,4.2-1.7C83.5,416,84.1,416.2,84.6,416.5z"/>
		</g>
		<g>
			<path fill="#FB782F" d="M107,407.6c0.8,0.5,1.2,1.2,1,1.9c-0.4,1.1-2.3,1.9-4.2,1.7c-0.7-0.1-1.4-0.3-1.9-0.6
				c-0.8-0.5-1.2-1.2-1-1.9c0.4-1.1,2.3-1.9,4.2-1.7C105.9,407.1,106.6,407.3,107,407.6z"/>
		</g>
	</g>
	<path fill="#F3D8A7" d="M220,302.3c0,0,0.1-0.2,0.3-0.4c3.8-2.5,0.2-10.3-5.6-7.2c-2.7,1.4-2.6,2.4-1.8,3.4c-0.2,1.4,0,2.8,0.7,4
		c0,0.1,0,0.1,0,0.2c0.4,0.7,0.7,1.3,1.4,1.4c0.5,0.4,1,0.7,0.9,1.2c0,0.2,0.1,0.5,0.2,0.8c0,1.1-0.1,2.8,0,2.8
		c3.3,0.5,4.5-1.6,4.5-1.6l-0.3-2.4c0-0.3-0.2-0.7-0.4-0.9c-0.1-0.1-0.2-0.2-0.2-0.4C219.6,302.7,220,302.3,220,302.3z"/>
	<path fill="#FEFEFE" d="M191.3,309.8C191.3,309.8,191.3,309.8,191.3,309.8c0-0.6-0.4-1.3-1.3-1.8l-51.9-30.2
		c-1.6-0.9-4.2-1-5.9-0.1c1.6-1.1,2.8-3.3,2.8-5.2l-0.2-60c0-1-0.3-1.7-0.9-2c0,0,0,0,0,0c-0.1-0.1-2.6-1.5-2.7-1.5
		c-0.7-0.2-1.4,0-2,0.3c0,0-78.6,45.4-78.6,45.4c-0.7,0.4-1.2,1-1.7,1.6c0,0,0,0,0,0c-0.6,0.9-1.1,1.9-1.3,3c0,0,0,0,0,0
		c0,0.2-0.1,0.5-0.1,0.8l0.2,60c0,0.2,0,0.4,0.1,0.7c0.1,0.5,0.4,1,0.8,1.3c0,0,2.4,1.4,2.4,1.4c-0.1,0,1.1,0.3,1.9-0.1
		c-0.8,0.5-1.1,1.7-1.1,1.6l0,3.5c0,0.5,0.3,1,0.7,1.3c0.2,0.1,0.4,0.3,0.6,0.4c0,0,51.9,30.2,51.9,30.2c1.7,0.9,3.8,1,5.5,0.3
		c0.2-0.1,0.4-0.2,0.6-0.3l78.6-45.4c0.9-0.5,1.3-1.1,1.3-1.8L191.3,309.8z"/>
	<linearGradient id="SVGID_4_" gradientUnits="userSpaceOnUse" x1="42.4387" y1="318.482" x2="112.0587" y2="197.8967">
		<stop  offset="0" style="stop-color:#000000;stop-opacity:0.5"/>
		<stop  offset="0.4437" style="stop-color:#000000;stop-opacity:0.1737"/>
		<stop  offset="0.5168" style="stop-color:#000000;stop-opacity:0.12"/>
		<stop  offset="0.5636" style="stop-color:#101010;stop-opacity:0.1084"/>
		<stop  offset="0.6551" style="stop-color:#3A3A3A;stop-opacity:8.564837e-02"/>
		<stop  offset="0.7823" style="stop-color:#7D7D7D;stop-opacity:5.406784e-02"/>
		<stop  offset="0.9387" style="stop-color:#D9D9D9;stop-opacity:1.522464e-02"/>
		<stop  offset="1" style="stop-color:#FFFFFF;stop-opacity:0"/>
	</linearGradient>
	<path fill="url(#SVGID_4_)" d="M131.6,209.2c-0.1,0-0.2-0.1-0.3-0.1c-0.1,0-0.1,0-0.2-0.1c0,0,0,0,0,0c0,0,0,0,0,0
		c-0.1,0-0.1,0-0.2,0c-0.1,0-0.1,0-0.2,0c0,0-0.1,0-0.1,0c0,0,0,0,0,0c0,0,0,0,0,0c0,0-0.1,0-0.1,0c0,0-0.1,0-0.1,0c0,0-0.1,0-0.1,0
		c0,0-0.1,0-0.1,0c0,0-0.1,0-0.1,0c0,0,0,0,0,0c0,0,0,0,0,0c0,0-0.1,0-0.1,0c0,0-0.1,0-0.1,0.1c0,0-0.1,0-0.1,0.1c0,0-0.1,0-0.1,0.1
		c0,0-0.1,0-0.1,0.1l-78.6,45.4c0,0,0,0,0,0c0,0-0.1,0.1-0.1,0.1c0,0-0.1,0.1-0.1,0.1c0,0-0.1,0.1-0.1,0.1c0,0-0.1,0.1-0.1,0.1
		c0,0,0,0-0.1,0c0,0,0,0,0,0c0,0,0,0-0.1,0.1c0,0-0.1,0.1-0.1,0.1c0,0-0.1,0.1-0.1,0.1c0,0-0.1,0.1-0.1,0.1c0,0-0.1,0.1-0.1,0.1
		c0,0,0,0,0,0c0,0,0,0,0,0c0,0-0.1,0.1-0.1,0.1c0,0-0.1,0.1-0.1,0.1c0,0-0.1,0.1-0.1,0.1c0,0.1-0.1,0.1-0.1,0.2c0,0,0,0,0,0
		c-0.1,0.1-0.1,0.2-0.2,0.3c-0.1,0.1-0.2,0.2-0.2,0.4c0,0,0,0,0,0c0,0,0,0,0,0c0,0.1-0.1,0.1-0.1,0.2c0,0.1-0.1,0.1-0.1,0.2
		c0,0.1-0.1,0.1-0.1,0.2c0,0,0,0.1-0.1,0.1c0,0,0,0,0,0c0,0,0,0,0,0c0,0,0,0.1,0,0.1c0,0,0,0.1-0.1,0.2c0,0.1,0,0.1-0.1,0.2
		c0,0.1,0,0.1-0.1,0.2c0,0.1,0,0.1-0.1,0.2c0,0,0,0,0,0c0,0,0,0,0,0c0,0,0,0.1,0,0.1c0,0.1,0,0.1,0,0.2c0,0.1,0,0.1,0,0.2
		c0,0.1,0,0.1,0,0.2c0,0.1,0,0.1,0,0.2c0,0,0,0,0,0c0,0,0,0,0,0c0,0.1,0,0.1,0,0.2c0,0.1,0,0.1,0,0.2c0,0.1,0,0.1,0,0.2
		c0,0.1,0,0.1,0,0.2c0,0,0,0.1,0,0.1l0.2,60c0,0,0,0,0,0c0,0.1,0,0.1,0,0.2c0,0,0,0.1,0,0.1c0,0.1,0,0.1,0,0.1c0,0.1,0,0.1,0,0.1
		c0,0,0,0,0,0.1c0,0,0,0,0,0c0,0,0,0,0,0.1c0,0.1,0,0.1,0,0.2c0,0.1,0,0.1,0.1,0.2c0,0.1,0,0.1,0.1,0.2c0,0,0,0,0,0c0,0,0,0,0,0
		c0,0.1,0.1,0.1,0.1,0.2c0,0.1,0.1,0.1,0.1,0.1c0,0,0.1,0.1,0.1,0.1c0.1,0.1,0.2,0.2,0.3,0.3l2.4,1.4c-0.1-0.1-0.2-0.2-0.3-0.3
		c0,0-0.1-0.1-0.1-0.1c-0.1-0.1-0.2-0.2-0.2-0.4c0,0,0,0,0,0c-0.1-0.2-0.1-0.3-0.2-0.5c0,0,0,0,0,0c0-0.2-0.1-0.4-0.1-0.7l-0.2-60
		c0-0.2,0-0.5,0.1-0.8c0,0,0,0,0,0c0-0.3,0.1-0.5,0.2-0.8c0,0,0,0,0,0c0.1-0.3,0.2-0.5,0.3-0.8c0,0,0,0,0,0c0.1-0.2,0.2-0.5,0.4-0.7
		c0,0,0,0,0,0c0.3-0.5,0.6-0.9,1-1.3c0,0,0,0,0,0c0.2-0.2,0.4-0.4,0.6-0.5c0,0,0,0,0,0c0.2-0.2,0.4-0.3,0.6-0.4l78.6-45.4
		c0.2-0.1,0.4-0.2,0.6-0.3c0,0,0,0,0,0c0.2-0.1,0.4-0.1,0.6-0.1c0,0,0,0,0,0c0.2,0,0.4,0,0.5,0c0,0,0,0,0,0c0.2,0,0.3,0.1,0.5,0.2
		L131.6,209.2z"/>
	<linearGradient id="SVGID_5_" gradientUnits="userSpaceOnUse" x1="165.6468" y1="320.3761" x2="108.0052" y2="320.3761">
		<stop  offset="0" style="stop-color:#000000;stop-opacity:0.5"/>
		<stop  offset="0.3814" style="stop-color:#000000;stop-opacity:0.1737"/>
		<stop  offset="0.4441" style="stop-color:#000000;stop-opacity:0.12"/>
	</linearGradient>
	<path fill="url(#SVGID_5_)" d="M108.7,330.5l34.6-20c1-0.6,2.6-0.6,3.6,0l18.1,10.5c0.3,0.2,0.5,0.4,0.6,0.6l0-0.1c0,0,0,0,0,0
		c0,0,0-0.1,0-0.1c0,0,0-0.1,0-0.1c0,0,0,0,0,0c0,0,0,0,0,0c0,0,0-0.1-0.1-0.1c0,0,0,0,0-0.1c0,0,0,0,0,0c0,0,0,0,0,0
		c0-0.1-0.1-0.1-0.2-0.2c0,0,0,0,0,0c-0.1,0-0.1-0.1-0.2-0.1c0,0-0.1-0.1-0.1-0.1c0,0,0,0,0,0L146.8,310c-0.2-0.1-0.3-0.2-0.5-0.2
		c0,0,0,0-0.1,0c0,0-0.1,0-0.1,0c-0.1,0-0.2,0-0.3-0.1c0,0-0.1,0-0.1,0c-0.1,0-0.2,0-0.2,0c0,0,0,0-0.1,0c0,0,0,0,0,0
		c-0.1,0-0.2,0-0.3,0c0,0-0.1,0-0.1,0c0,0,0,0-0.1,0c0,0-0.1,0-0.1,0c-0.1,0-0.2,0-0.3,0c0,0-0.1,0-0.1,0c0,0,0,0-0.1,0
		c0,0-0.1,0-0.1,0c-0.1,0-0.2,0-0.3,0c0,0,0,0-0.1,0c0,0,0,0-0.1,0c0,0-0.1,0-0.1,0c-0.1,0-0.2,0-0.2,0.1c0,0,0,0-0.1,0c0,0,0,0,0,0
		c-0.1,0.1-0.3,0.1-0.4,0.2l-34.5,19.9c-0.5,0.3-0.8,0.7-0.8,1.1l0,0.2C108.1,330.9,108.3,330.7,108.7,330.5z"/>
	<g>
		<path fill="#220009" d="M86.8,308.3c-0.2,0.1-0.2,0.3,0,0.4l5.6,3.3c0.2,0.1,0.5,0.1,0.7,0l5.5-3.2c0.2-0.1,0.2-0.3,0-0.4
			l-5.6-3.3c-0.2-0.1-0.5-0.1-0.7,0L86.8,308.3z"/>
	</g>
	<g>
		<path fill="#220009" d="M72.9,316.4c-0.2,0.1-0.2,0.3,0,0.4l5.6,3.3c0.2,0.1,0.5,0.1,0.7,0l5.5-3.2c0.2-0.1,0.2-0.3,0-0.4
			l-5.6-3.3c-0.2-0.1-0.5-0.1-0.7,0L72.9,316.4z"/>
	</g>
	<g>
		<path fill="#220009" d="M79.9,312.4c-0.2,0.1-0.2,0.3,0,0.4l5.6,3.3c0.2,0.1,0.5,0.1,0.7,0l5.5-3.2c0.2-0.1,0.2-0.3,0-0.4
			l-5.6-3.3c-0.2-0.1-0.5-0.1-0.7,0L79.9,312.4z"/>
	</g>
	<g>
		<path fill="#220009" d="M101.1,308.5c-0.2,0.1-0.2,0.3,0,0.4l5.6,3.3c0.2,0.1,0.5,0.1,0.7,0l5.5-3.2c0.2-0.1,0.2-0.3,0-0.4
			l-5.6-3.3c-0.2-0.1-0.5-0.1-0.7,0L101.1,308.5z"/>
	</g>
	<g>
		<path fill="#220009" d="M94.1,312.5c-0.2,0.1-0.2,0.3,0,0.4l5.6,3.3c0.2,0.1,0.5,0.1,0.7,0l5.5-3.2c0.2-0.1,0.2-0.3,0-0.4
			l-5.6-3.3c-0.2-0.1-0.5-0.1-0.7,0L94.1,312.5z"/>
	</g>
	<g>
		<path fill="#220009" d="M108.1,312.6c-0.2,0.1-0.2,0.3,0,0.4l5.6,3.3c0.2,0.1,0.5,0.1,0.7,0l5.5-3.2c0.2-0.1,0.2-0.3,0-0.4
			l-5.6-3.3c-0.2-0.1-0.5-0.1-0.7,0L108.1,312.6z"/>
	</g>
	<g>
		<path fill="#220009" d="M87.1,316.6c-0.2,0.1-0.2,0.3,0,0.4l5.6,3.3c0.2,0.1,0.5,0.1,0.7,0l5.5-3.2c0.2-0.1,0.2-0.3,0-0.4
			l-5.6-3.3c-0.2-0.1-0.5-0.1-0.7,0L87.1,316.6z"/>
	</g>
	<g>
		<path fill="#220009" d="M101.2,316.6c-0.2,0.1-0.2,0.3,0,0.4l5.6,3.3c0.2,0.1,0.5,0.1,0.7,0l5.5-3.2c0.2-0.1,0.2-0.3,0-0.4
			l-5.6-3.3c-0.2-0.1-0.5-0.1-0.7,0L101.2,316.6z"/>
	</g>
	<g>
		<path fill="#220009" d="M80.1,320.6c-0.2,0.1-0.2,0.3,0,0.4l5.6,3.3c0.2,0.1,0.5,0.1,0.7,0l5.5-3.2c0.2-0.1,0.2-0.3,0-0.4
			l-5.6-3.3c-0.2-0.1-0.5-0.1-0.7,0L80.1,320.6z"/>
	</g>
	<g>
		<path fill="#220009" d="M94.2,320.7c-0.2,0.1-0.2,0.3,0,0.4l5.6,3.3c0.2,0.1,0.5,0.1,0.7,0l5.5-3.2c0.2-0.1,0.2-0.3,0-0.4
			l-5.6-3.3c-0.2-0.1-0.5-0.1-0.7,0L94.2,320.7z"/>
	</g>
	<g>
		<path fill="#220009" d="M87.2,324.7c-0.2,0.1-0.2,0.3,0,0.4l5.6,3.3c0.2,0.1,0.5,0.1,0.7,0l5.5-3.2c0.2-0.1,0.2-0.3,0-0.4
			l-5.6-3.3c-0.2-0.1-0.5-0.1-0.7,0L87.2,324.7z"/>
	</g>
	<g>
		<path fill="#220009" d="M87.3,332.9c-0.2,0.1-0.2,0.3,0,0.4l5.6,3.3c0.2,0.1,0.5,0.1,0.7,0l5.5-3.2c0.2-0.1,0.2-0.3,0-0.4
			l-5.6-3.3c-0.2-0.1-0.5-0.1-0.7,0L87.3,332.9z"/>
	</g>
	<g>
		<path fill="#220009" d="M121.8,288.1c-0.2,0.1-0.2,0.3,0,0.4l5.6,3.3c0.2,0.1,0.5,0.1,0.7,0l5.5-3.2c0.2-0.1,0.2-0.3,0-0.4
			L128,285c-0.2-0.1-0.5-0.1-0.7,0L121.8,288.1z"/>
	</g>
	<g>
		<path fill="#220009" d="M136,288.3c-0.2,0.1-0.2,0.3,0,0.4l5.6,3.3c0.2,0.1,0.5,0.1,0.7,0l5.5-3.2c0.2-0.1,0.2-0.3,0-0.4l-5.6-3.3
			c-0.2-0.1-0.5-0.1-0.7,0L136,288.3z"/>
	</g>
	<g>
		<path fill="#220009" d="M114.8,292.2c-0.2,0.1-0.2,0.3,0,0.4l5.6,3.3c0.2,0.1,0.5,0.1,0.7,0l5.5-3.2c0.2-0.1,0.2-0.3,0-0.4
			L121,289c-0.2-0.1-0.5-0.1-0.7,0L114.8,292.2z"/>
	</g>
	<g>
		<path fill="#220009" d="M129,292.3c-0.2,0.1-0.2,0.3,0,0.4l5.6,3.3c0.2,0.1,0.5,0.1,0.7,0l5.5-3.2c0.2-0.1,0.2-0.3,0-0.4l-5.6-3.3
			c-0.2-0.1-0.5-0.1-0.7,0L129,292.3z"/>
	</g>
	<g>
		<path fill="#220009" d="M107.8,296.2c-0.2,0.1-0.2,0.3,0,0.4l5.6,3.3c0.2,0.1,0.5,0.1,0.7,0l5.5-3.2c0.2-0.1,0.2-0.3,0-0.4
			L114,293c-0.2-0.1-0.5-0.1-0.7,0L107.8,296.2z"/>
	</g>
	<g>
		<path fill="#220009" d="M122,296.4c-0.2,0.1-0.2,0.3,0,0.4l5.6,3.3c0.2,0.1,0.5,0.1,0.7,0l5.5-3.2c0.2-0.1,0.2-0.3,0-0.4l-5.6-3.3
			c-0.2-0.1-0.5-0.1-0.7,0L122,296.4z"/>
	</g>
	<path fill="#220009" d="M136.1,296.5l12.5-7.2c0.2-0.1,0.5-0.1,0.7,0l5.6,3.3c0.2,0.1,0.2,0.3,0,0.4l-12.5,7.2
		c-0.2,0.1-0.5,0.1-0.7,0l-5.6-3.3C135.9,296.7,135.9,296.6,136.1,296.5z"/>
	<g>
		<path fill="#220009" d="M150.2,296.5c-0.2,0.1-0.2,0.3,0,0.4l5.6,3.3c0.2,0.1,0.5,0.1,0.7,0l5.5-3.2c0.2-0.1,0.2-0.3,0-0.4
			l-5.6-3.3c-0.2-0.1-0.5-0.1-0.7,0L150.2,296.5z"/>
	</g>
	<g>
		<path fill="#220009" d="M100.8,300.3c-0.2,0.1-0.2,0.3,0,0.4l5.6,3.3c0.2,0.1,0.5,0.1,0.7,0l5.5-3.2c0.2-0.1,0.2-0.3,0-0.4
			l-5.6-3.3c-0.2-0.1-0.5-0.1-0.7,0L100.8,300.3z"/>
	</g>
	<g>
		<path fill="#220009" d="M115,300.4c-0.2,0.1-0.2,0.3,0,0.4l5.6,3.3c0.2,0.1,0.5,0.1,0.7,0l5.5-3.2c0.2-0.1,0.2-0.3,0-0.4l-5.6-3.3
			c-0.2-0.1-0.5-0.1-0.7,0L115,300.4z"/>
	</g>
	<g>
		<path fill="#220009" d="M129.1,300.5c-0.2,0.1-0.2,0.3,0,0.4l5.6,3.3c0.2,0.1,0.5,0.1,0.7,0l5.5-3.2c0.2-0.1,0.2-0.3,0-0.4
			l-5.6-3.3c-0.2-0.1-0.5-0.1-0.7,0L129.1,300.5z"/>
	</g>
	<g>
		<path fill="#220009" d="M143.2,300.6c-0.2,0.1-0.2,0.3,0,0.4l5.6,3.3c0.2,0.1,0.5,0.1,0.7,0l5.5-3.2c0.2-0.1,0.2-0.3,0-0.4
			l-5.6-3.3c-0.2-0.1-0.5-0.1-0.7,0L143.2,300.6z"/>
	</g>
	<g>
		<path fill="#220009" d="M108,304.4c-0.2,0.1-0.2,0.3,0,0.4l5.6,3.3c0.2,0.1,0.5,0.1,0.7,0l5.5-3.2c0.2-0.1,0.2-0.3,0-0.4l-5.6-3.3
			c-0.2-0.1-0.5-0.1-0.7,0L108,304.4z"/>
	</g>
	<g>
		<path fill="#220009" d="M122.1,304.5c-0.2,0.1-0.2,0.3,0,0.4l5.6,3.3c0.2,0.1,0.5,0.1,0.7,0l5.5-3.2c0.2-0.1,0.2-0.3,0-0.4
			l-5.6-3.3c-0.2-0.1-0.5-0.1-0.7,0L122.1,304.5z"/>
	</g>
	<path fill="#220009" d="M94.3,328.8l47.5-27.4c0.2-0.1,0.5-0.1,0.7,0l5.6,3.3c0.2,0.1,0.2,0.3,0,0.4l-47.5,27.4
		c-0.2,0.1-0.5,0.1-0.7,0l-5.6-3.3C94.1,329.1,94.1,328.9,94.3,328.8z"/>
	<g>
		<path fill="#220009" d="M115.1,308.6c-0.2,0.1-0.2,0.3,0,0.4l5.6,3.3c0.2,0.1,0.5,0.1,0.7,0l5.5-3.2c0.2-0.1,0.2-0.3,0-0.4
			l-5.6-3.3c-0.2-0.1-0.5-0.1-0.7,0L115.1,308.6z"/>
	</g>
	<g>
		<path fill="#220009" d="M128.8,284.1c-0.2,0.1-0.2,0.3,0,0.4l5.6,3.3c0.2,0.1,0.5,0.1,0.7,0l5.5-3.2c0.2-0.1,0.2-0.3,0-0.4
			l-5.6-3.3c-0.2-0.1-0.5-0.1-0.7,0L128.8,284.1z"/>
	</g>
	<g>
		<path fill="#220009" d="M93.8,304.3c-0.2,0.1-0.2,0.3,0,0.4l5.6,3.3c0.2,0.1,0.5,0.1,0.7,0l5.5-3.2c0.2-0.1,0.2-0.3,0-0.4
			l-5.6-3.3c-0.2-0.1-0.5-0.1-0.7,0L93.8,304.3z"/>
	</g>
	<g>
		<path fill="#220009" d="M65.9,320.4c-0.2,0.1-0.2,0.3,0,0.4l5.6,3.3c0.2,0.1,0.5,0.1,0.7,0l5.5-3.2c0.2-0.1,0.2-0.3,0-0.4
			l-5.6-3.3c-0.2-0.1-0.5-0.1-0.7,0L65.9,320.4z"/>
	</g>
	<g>
		<path fill="#220009" d="M58.9,324.4c-0.2,0.1-0.2,0.3,0,0.4l5.6,3.3c0.2,0.1,0.5,0.1,0.7,0l5.5-3.2c0.2-0.1,0.2-0.3,0-0.4
			l-5.6-3.3c-0.2-0.1-0.5-0.1-0.7,0L58.9,324.4z"/>
	</g>
	<g>
		<path fill="#220009" d="M80.3,336.9c-0.2,0.1-0.2,0.3,0,0.4l5.6,3.3c0.2,0.1,0.5,0.1,0.7,0l5.5-3.2c0.2-0.1,0.2-0.3,0-0.4
			l-5.6-3.3c-0.2-0.1-0.5-0.1-0.7,0L80.3,336.9z"/>
	</g>
	<path fill="#220009" d="M73.2,332.8l12.5-7.2c0.2-0.1,0.5-0.1,0.7,0l5.6,3.3c0.2,0.1,0.2,0.3,0,0.4l-12.5,7.2
		c-0.2,0.1-0.5,0.1-0.7,0l-5.6-3.3C73.1,333,73.1,332.9,73.2,332.8z"/>
	<g>
		<path fill="#220009" d="M66.2,328.6c-0.2,0.1-0.2,0.3,0,0.4l5.6,3.3c0.2,0.1,0.5,0.1,0.7,0l5.5-3.2c0.2-0.1,0.2-0.3,0-0.4
			l-5.6-3.3c-0.2-0.1-0.5-0.1-0.7,0L66.2,328.6z"/>
	</g>
	<g>
		<path fill="#220009" d="M73.1,324.6c-0.2,0.1-0.2,0.3,0,0.4l5.6,3.3c0.2,0.1,0.5,0.1,0.7,0l5.5-3.2c0.2-0.1,0.2-0.3,0-0.4
			l-5.6-3.3c-0.2-0.1-0.5-0.1-0.7,0L73.1,324.6z"/>
	</g>
	<linearGradient id="SVGID_6_" gradientUnits="userSpaceOnUse" x1="52.0393" y1="335.5305" x2="191.2833" y2="335.5305">
		<stop  offset="0" style="stop-color:#000000;stop-opacity:0.5"/>
		<stop  offset="0.3814" style="stop-color:#000000;stop-opacity:0.1737"/>
		<stop  offset="0.4441" style="stop-color:#000000;stop-opacity:0.12"/>
	</linearGradient>
	<path fill="url(#SVGID_6_)" d="M191.3,309.8c0,0.8-0.5,1.4-1.3,1.8c0,0-78.6,45.4-78.6,45.4c-0.9,0.5-2,0.7-3,0.7
		c-1.1,0-2.2-0.2-3.1-0.7c0,0-51.9-30.2-51.9-30.2c-0.6-0.4-1.3-1-1.3-1.8l0,3.5c0,0.5,0.3,1,0.7,1.3c0.2,0.1,0.4,0.3,0.6,0.4
		c0,0,51.9,30.2,51.9,30.2c1.7,0.9,3.8,1,5.5,0.3c0.2-0.1,0.4-0.2,0.6-0.3l78.6-45.4c0.9-0.5,1.3-1.1,1.3-1.8L191.3,309.8z"/>
	<path fill="#BEBEBE" d="M53.2,256.1c-1.7,1-3.1,3.4-3.1,5.3l0.2,60c0,2,1.3,2.8,3.1,1.8l78.6-45.4c1.7-1,3.1-3.4,3.1-5.3l-0.2-60
		c0-2-1.4-2.8-3.1-1.8L53.2,256.1z"/>
	<path fill="#220009" d="M52,322.9c-0.7,0-0.9-0.8-0.9-1.3l-0.2-60c0-1.7,1.2-3.8,2.7-4.6l78.6-45.4c0.4-0.2,0.7-0.3,1-0.3
		c0.7,0,0.9,0.8,0.9,1.3l0.2,60c0,1.7-1.2,3.8-2.7,4.6L53,322.6C52.6,322.8,52.3,322.9,52,322.9L52,322.9z"/>
	<g>
		<path fill="#E109AF" d="M23.8,342.9c5,2.9,5.4,7.4,1.4,10.5c3.5-0.7,7.6-0.3,10.4,1.4c3.9,2.3,3.9,5.9,0,8.2s-10.2,2.3-14.1,0
			c-1.3-0.8-2.2-1.7-2.6-2.6c-3.6,1-7.9,0.6-10.9-1.1c-2-1.2-3-2.8-2.8-4.3c-0.4-0.2-0.7-0.3-1-0.5c-5.5-3.2-5.5-8.3-0.1-11.4
			C9.5,339.8,18.3,339.8,23.8,342.9z"/>
	</g>
	<path fill="#FEFEFE" d="M31.4,328.2C31.4,328.2,31.4,328.2,31.4,328.2c0-0.2,0-0.4,0-0.6c0-0.1,0-0.1,0-0.2c0-0.1,0-0.2-0.1-0.4
		c0-0.1-0.1-0.2-0.1-0.3c0-0.1-0.1-0.2-0.1-0.3c0-0.1-0.1-0.2-0.1-0.3c0-0.1-0.1-0.2-0.2-0.3c-0.1-0.1-0.1-0.2-0.2-0.3
		c-0.1-0.1-0.1-0.2-0.2-0.2c-0.1-0.1-0.2-0.2-0.3-0.3c0-0.1-0.1-0.1-0.2-0.2c-0.1-0.1-0.3-0.3-0.4-0.4c0,0,0,0,0,0
		c-0.4-0.3-0.8-0.6-1.3-0.9c-1.8-1-4.1-1.6-6.5-1.8c0,0-0.1,0-0.1,0c-0.4,0-0.8,0-1.1,0c-2.6,0-5.2,0.6-7.2,1.8
		c-2.2,1.3-3.2,3-3.1,4.7l0,0.3c0,0.1,0,0.2,0,0.3l-0.1,19.9c0,1.6,1,3.2,3.1,4.4c0.2,0.1,0.5,0.3,0.8,0.4c0.1,0,0.2,0.1,0.3,0.1
		c0.2,0.1,0.3,0.1,0.5,0.2c0,0,0,0,0.1,0c0.4,0.1,0.7,0.3,1.1,0.4c0,0,0.1,0,0.1,0c0.1,0,0.2,0,0.3,0.1c0.2,0.1,0.4,0.1,0.7,0.2
		c0.1,0,0.1,0,0.2,0c0.1,0,0.2,0,0.3,0c0.2,0,0.4,0.1,0.6,0.1c0.1,0,0.1,0,0.2,0c0.1,0,0.2,0,0.3,0c0.2,0,0.4,0,0.5,0.1
		c0.1,0,0.2,0,0.2,0c0.1,0,0.2,0,0.2,0c0.2,0,0.4,0,0.5,0c0.1,0,0.2,0,0.3,0c0.1,0,0.1,0,0.2,0c0.2,0,0.4,0,0.6,0c0.1,0,0.2,0,0.3,0
		c0.1,0,0.1,0,0.2,0c0.2,0,0.5,0,0.7,0c0.1,0,0.2,0,0.3,0c0,0,0.1,0,0.1,0c0.4,0,0.8-0.1,1.2-0.2c0,0,0,0,0.1,0c0.1,0,0.2,0,0.3-0.1
		c0.2,0,0.4-0.1,0.6-0.1c0.1,0,0.3-0.1,0.4-0.1c0.2,0,0.4-0.1,0.5-0.2c0,0,0.1,0,0.1,0c0.1,0,0.1,0,0.2-0.1c0.3-0.1,0.6-0.2,0.8-0.3
		c0.1,0,0.2-0.1,0.3-0.1c0.3-0.2,0.7-0.3,1-0.5c0,0,0.1-0.1,0.1-0.1c0.1-0.1,0.2-0.1,0.3-0.2c0.1-0.1,0.3-0.2,0.4-0.3
		c0.1-0.1,0.2-0.2,0.3-0.2c0.1-0.1,0.2-0.2,0.3-0.3c0,0,0,0,0.1-0.1c0,0,0.1-0.1,0.1-0.1c0.2-0.2,0.3-0.3,0.4-0.5
		c0,0,0.1-0.1,0.1-0.1s0-0.1,0.1-0.1c0.1-0.1,0.2-0.2,0.2-0.4c0-0.1,0.1-0.1,0.1-0.2c0,0,0-0.1,0-0.1c0.1-0.1,0.1-0.2,0.2-0.3
		c0-0.1,0.1-0.1,0.1-0.2c0,0,0,0,0-0.1c0-0.1,0.1-0.2,0.1-0.3c0-0.1,0-0.1,0.1-0.2c0,0,0,0,0-0.1c0-0.1,0-0.2,0-0.3
		c0-0.1,0-0.1,0-0.2c0,0,0-0.1,0-0.1l0.1-20.9C31.4,328,31.4,328.1,31.4,328.2z"/>
	<linearGradient id="SVGID_7_" gradientUnits="userSpaceOnUse" x1="28.8401" y1="325.9614" x2="12.7793" y2="325.9614">
		<stop  offset="0" style="stop-color:#000000;stop-opacity:0.5"/>
		<stop  offset="1" style="stop-color:#000000;stop-opacity:0"/>
	</linearGradient>
	<path fill="url(#SVGID_7_)" d="M26.5,324.6c-3.5-1.9-8-1.8-11.4,0.1c-0.9,0.6-1.9,1.4-2.1,2.5c-0.1,0.4-0.1,1-0.1,1.4
		c0.6-6.2,15.6-6.1,16,0C29,327,28.4,325.8,26.5,324.6z"/>
	<path fill="#E109AF" d="M13.3,328c-0.2,0.1-0.3,0.2-0.5,0.3c0.1,1.1,0.9,2.2,2.3,3.1c3.1,1.8,8.2,1.8,11.3,0c1.5-0.8,2.2-1.9,2.3-3
		c-0.2-0.1-0.4-0.2-0.6-0.4C24.1,325.6,17.4,325.6,13.3,328z"/>
	<linearGradient id="SVGID_8_" gradientUnits="userSpaceOnUse" x1="28.8536" y1="328.0243" x2="12.7658" y2="328.0243">
		<stop  offset="0" style="stop-color:#000000;stop-opacity:0.5"/>
		<stop  offset="1" style="stop-color:#000000;stop-opacity:0"/>
	</linearGradient>
	<path fill="url(#SVGID_8_)" d="M15.1,331.4c3.2,1.9,8.2,1.9,11.4,0c3.1-1.9,3.1-4.9,0-6.7c-3.1-1.9-8.2-1.9-11.4,0
		C12,326.5,12,329.5,15.1,331.4z"/>
	<path fill="#E109AF" d="M28.3,332.5c-0.3-0.1-0.7-0.1-1.1-0.1c-0.7,0-1.5,0-2.5-0.2c-1.2,0.4-2.5,0.6-3.9,0.6
		c-2.1-0.1-4.4-0.6-5.6-1.4c-1.7-1-2.6-2.5-2.3-3.9l-0.1,0c-1,0-1.8,0.2-2.5,0.5l0,0.1l0,0.4c0.2,1.5,1.3,2.9,3.1,4
		c1,0.6,2.2,1,3.5,1.4c0,0.1,0,0.1,0,0.2v20.4c0,0.5,0.4,0.9,0.9,0.9c0.5,0,0.9-0.4,0.9-0.9v-20.3c0.4,0,0.8,0.1,1.1,0.1
		c0,0.1,0,0.2,0,0.2v13.9c0,0.6,0.5,1.2,1.2,1.2s1.2-0.5,1.2-1.2v-13.9c0-0.1,0-0.2,0-0.2C24.3,334.1,26.5,333.5,28.3,332.5z"/>
	<linearGradient id="SVGID_9_" gradientUnits="userSpaceOnUse" x1="10.2066" y1="341.4159" x2="31.4128" y2="341.4159">
		<stop  offset="0" style="stop-color:#000000;stop-opacity:0.5"/>
		<stop  offset="1" style="stop-color:#000000;stop-opacity:0"/>
	</linearGradient>
	<path fill="url(#SVGID_9_)" d="M31.4,328.2C31.4,328.2,31.4,328.2,31.4,328.2c-0.1,1.5-1.1,2.9-3,4c-4.1,2.4-10.9,2.4-15,0
		c-1.9-1.1-2.9-2.5-3.1-4l0,0.3c0,0.1,0,0.2,0,0.3l-0.1,19.9c0,1.6,1,3.2,3.1,4.4c0.2,0.1,0.5,0.3,0.8,0.4c0.1,0,0.2,0.1,0.3,0.1
		c0.2,0.1,0.3,0.1,0.5,0.2c0,0,0,0,0.1,0c0.4,0.1,0.7,0.3,1.1,0.4c0,0,0.1,0,0.1,0c0.1,0,0.2,0,0.3,0.1c0.2,0.1,0.4,0.1,0.7,0.2
		c0.1,0,0.1,0,0.2,0c0.1,0,0.2,0,0.3,0c0.2,0,0.4,0.1,0.6,0.1c0.1,0,0.1,0,0.2,0c0.1,0,0.2,0,0.3,0c0.2,0,0.4,0,0.5,0.1
		c0.1,0,0.2,0,0.2,0c0.1,0,0.2,0,0.2,0c0.2,0,0.4,0,0.5,0c0.1,0,0.2,0,0.3,0c0.1,0,0.1,0,0.2,0c0.2,0,0.4,0,0.6,0c0.1,0,0.2,0,0.3,0
		c0.1,0,0.1,0,0.2,0c0.2,0,0.5,0,0.7,0c0.1,0,0.2,0,0.3,0c0,0,0.1,0,0.1,0c0.4,0,0.8-0.1,1.2-0.2c0,0,0,0,0.1,0c0.1,0,0.2,0,0.3-0.1
		c0.2,0,0.4-0.1,0.6-0.1c0.1,0,0.3-0.1,0.4-0.1c0.2,0,0.4-0.1,0.5-0.2c0,0,0.1,0,0.1,0c0.1,0,0.1,0,0.2-0.1c0.3-0.1,0.6-0.2,0.8-0.3
		c0.1,0,0.2-0.1,0.3-0.1c0.3-0.2,0.7-0.3,1-0.5c0,0,0.1-0.1,0.1-0.1c0.1-0.1,0.2-0.1,0.3-0.2c0.1-0.1,0.3-0.2,0.4-0.3
		c0.1-0.1,0.2-0.2,0.3-0.2c0.1-0.1,0.2-0.2,0.3-0.3c0,0,0,0,0.1-0.1c0,0,0.1-0.1,0.1-0.1c0.2-0.2,0.3-0.3,0.4-0.5
		c0,0,0.1-0.1,0.1-0.1s0-0.1,0.1-0.1c0.1-0.1,0.2-0.2,0.2-0.4c0-0.1,0.1-0.1,0.1-0.2c0,0,0-0.1,0-0.1c0.1-0.1,0.1-0.2,0.2-0.3
		c0-0.1,0.1-0.1,0.1-0.2c0,0,0,0,0-0.1c0-0.1,0.1-0.2,0.1-0.3c0-0.1,0-0.1,0.1-0.2c0,0,0,0,0-0.1c0-0.1,0-0.2,0-0.3
		c0-0.1,0-0.1,0-0.2c0,0,0-0.1,0-0.1l0.1-20.9C31.4,328,31.4,328.1,31.4,328.2z"/>
	<path fill="#FEFEFE" d="M49,342.3C49,342.3,49,342.3,49,342.3c0-0.2,0-0.4,0-0.6c0-0.1,0-0.1,0-0.2c0-0.1,0-0.2-0.1-0.4
		c0-0.1-0.1-0.2-0.1-0.3c0-0.1-0.1-0.2-0.1-0.3c0-0.1-0.1-0.2-0.1-0.3c0-0.1-0.1-0.2-0.2-0.3c-0.1-0.1-0.1-0.2-0.2-0.3
		c-0.1-0.1-0.1-0.2-0.2-0.2c-0.1-0.1-0.2-0.2-0.3-0.3c0-0.1-0.1-0.1-0.2-0.2c-0.1-0.1-0.3-0.3-0.4-0.4c0,0,0,0,0,0
		c-0.4-0.3-0.8-0.6-1.3-0.9c-1.8-1-4.1-1.6-6.5-1.8c0,0-0.1,0-0.1,0c-0.4,0-0.8,0-1.1,0c-2.6,0-5.2,0.6-7.2,1.8
		c-2.2,1.3-3.2,3-3.1,4.7l0,0.3c0,0.1,0,0.2,0,0.3l-0.1,19.9c0,1.6,1,3.2,3.1,4.4c0.2,0.1,0.5,0.3,0.8,0.4c0.1,0,0.2,0.1,0.3,0.1
		c0.2,0.1,0.3,0.1,0.5,0.2c0,0,0,0,0.1,0c0.4,0.1,0.7,0.3,1.1,0.4c0,0,0.1,0,0.1,0c0.1,0,0.2,0,0.3,0.1c0.2,0.1,0.4,0.1,0.7,0.2
		c0.1,0,0.1,0,0.2,0c0.1,0,0.2,0,0.3,0c0.2,0,0.4,0.1,0.6,0.1c0.1,0,0.1,0,0.2,0c0.1,0,0.2,0,0.3,0c0.2,0,0.4,0,0.5,0.1
		c0.1,0,0.2,0,0.2,0c0.1,0,0.2,0,0.2,0c0.2,0,0.4,0,0.5,0c0.1,0,0.2,0,0.3,0c0.1,0,0.1,0,0.2,0c0.2,0,0.4,0,0.6,0c0.1,0,0.2,0,0.3,0
		c0.1,0,0.1,0,0.2,0c0.2,0,0.5,0,0.7,0c0.1,0,0.2,0,0.3,0c0,0,0.1,0,0.1,0c0.4,0,0.8-0.1,1.2-0.2c0,0,0,0,0.1,0c0.1,0,0.2,0,0.3-0.1
		c0.2,0,0.4-0.1,0.6-0.1c0.1,0,0.3-0.1,0.4-0.1c0.2,0,0.4-0.1,0.5-0.2c0,0,0.1,0,0.1,0c0.1,0,0.1,0,0.2-0.1c0.3-0.1,0.6-0.2,0.8-0.3
		c0.1,0,0.2-0.1,0.3-0.1c0.3-0.2,0.7-0.3,1-0.5c0,0,0.1-0.1,0.1-0.1c0.1-0.1,0.2-0.1,0.3-0.2c0.1-0.1,0.3-0.2,0.4-0.3
		c0.1-0.1,0.2-0.2,0.3-0.2c0.1-0.1,0.2-0.2,0.3-0.3c0,0,0,0,0.1-0.1c0,0,0.1-0.1,0.1-0.1c0.2-0.2,0.3-0.3,0.4-0.5
		c0,0,0.1-0.1,0.1-0.1s0-0.1,0.1-0.1c0.1-0.1,0.2-0.2,0.2-0.4c0-0.1,0.1-0.1,0.1-0.2c0,0,0-0.1,0-0.1c0.1-0.1,0.1-0.2,0.2-0.3
		c0-0.1,0.1-0.1,0.1-0.2c0,0,0,0,0-0.1c0-0.1,0.1-0.2,0.1-0.3c0-0.1,0-0.1,0.1-0.2c0,0,0,0,0-0.1c0-0.1,0-0.2,0-0.3
		c0-0.1,0-0.1,0-0.2c0,0,0-0.1,0-0.1l0.1-20.9C49.1,342.1,49,342.2,49,342.3z"/>
	<linearGradient id="SVGID_10_" gradientUnits="userSpaceOnUse" x1="46.4927" y1="340.0489" x2="30.432" y2="340.0489">
		<stop  offset="0" style="stop-color:#000000;stop-opacity:0.5"/>
		<stop  offset="1" style="stop-color:#000000;stop-opacity:0"/>
	</linearGradient>
	<path fill="url(#SVGID_10_)" d="M44.1,338.7c-3.5-1.9-8-1.8-11.4,0.1c-0.9,0.6-1.9,1.4-2.1,2.5c-0.1,0.4-0.1,1-0.1,1.4
		c0.6-6.2,15.6-6.1,16,0C46.6,341.1,46,339.8,44.1,338.7z"/>
	<path fill="#FB782F" d="M31,342.1c-0.2,0.1-0.3,0.2-0.5,0.3c0.1,1.1,0.9,2.2,2.3,3.1c3.1,1.8,8.2,1.8,11.3,0c1.5-0.8,2.2-1.9,2.3-3
		c-0.2-0.1-0.4-0.2-0.6-0.4C41.8,339.7,35.1,339.7,31,342.1z"/>
	<linearGradient id="SVGID_11_" gradientUnits="userSpaceOnUse" x1="46.5063" y1="342.1117" x2="30.4184" y2="342.1117">
		<stop  offset="0" style="stop-color:#000000;stop-opacity:0.5"/>
		<stop  offset="1" style="stop-color:#000000;stop-opacity:0"/>
	</linearGradient>
	<path fill="url(#SVGID_11_)" d="M32.8,345.5c3.2,1.9,8.2,1.9,11.4,0c3.1-1.9,3.1-4.9,0-6.7c-3.1-1.9-8.2-1.9-11.4,0
		C29.6,340.6,29.6,343.6,32.8,345.5z"/>
	<linearGradient id="SVGID_12_" gradientUnits="userSpaceOnUse" x1="27.8593" y1="355.5034" x2="49.0655" y2="355.5034">
		<stop  offset="0" style="stop-color:#000000;stop-opacity:0.5"/>
		<stop  offset="1" style="stop-color:#000000;stop-opacity:0"/>
	</linearGradient>
	<path fill="url(#SVGID_12_)" d="M49,342.3C49,342.3,49,342.3,49,342.3c-0.1,1.5-1.1,2.9-3,4c-4.1,2.4-10.9,2.4-15,0
		c-1.9-1.1-2.9-2.5-3.1-4l0,0.3c0,0.1,0,0.2,0,0.3l-0.1,19.9c0,1.6,1,3.2,3.1,4.4c0.2,0.1,0.5,0.3,0.8,0.4c0.1,0,0.2,0.1,0.3,0.1
		c0.2,0.1,0.3,0.1,0.5,0.2c0,0,0,0,0.1,0c0.4,0.1,0.7,0.3,1.1,0.4c0,0,0.1,0,0.1,0c0.1,0,0.2,0,0.3,0.1c0.2,0.1,0.4,0.1,0.7,0.2
		c0.1,0,0.1,0,0.2,0c0.1,0,0.2,0,0.3,0c0.2,0,0.4,0.1,0.6,0.1c0.1,0,0.1,0,0.2,0c0.1,0,0.2,0,0.3,0c0.2,0,0.4,0,0.5,0.1
		c0.1,0,0.2,0,0.2,0c0.1,0,0.2,0,0.2,0c0.2,0,0.4,0,0.5,0c0.1,0,0.2,0,0.3,0c0.1,0,0.1,0,0.2,0c0.2,0,0.4,0,0.6,0c0.1,0,0.2,0,0.3,0
		c0.1,0,0.1,0,0.2,0c0.2,0,0.5,0,0.7,0c0.1,0,0.2,0,0.3,0c0,0,0.1,0,0.1,0c0.4,0,0.8-0.1,1.2-0.2c0,0,0,0,0.1,0c0.1,0,0.2,0,0.3-0.1
		c0.2,0,0.4-0.1,0.6-0.1c0.1,0,0.3-0.1,0.4-0.1c0.2,0,0.4-0.1,0.5-0.2c0,0,0.1,0,0.1,0c0.1,0,0.1,0,0.2-0.1c0.3-0.1,0.6-0.2,0.8-0.3
		c0.1,0,0.2-0.1,0.3-0.1c0.3-0.2,0.7-0.3,1-0.5c0,0,0.1-0.1,0.1-0.1c0.1-0.1,0.2-0.1,0.3-0.2c0.1-0.1,0.3-0.2,0.4-0.3
		c0.1-0.1,0.2-0.2,0.3-0.2c0.1-0.1,0.2-0.2,0.3-0.3c0,0,0,0,0.1-0.1c0,0,0.1-0.1,0.1-0.1c0.2-0.2,0.3-0.3,0.4-0.5
		c0,0,0.1-0.1,0.1-0.1s0-0.1,0.1-0.1c0.1-0.1,0.2-0.2,0.2-0.4c0-0.1,0.1-0.1,0.1-0.2c0,0,0-0.1,0-0.1c0.1-0.1,0.1-0.2,0.2-0.3
		c0-0.1,0.1-0.1,0.1-0.2c0,0,0,0,0-0.1c0-0.1,0.1-0.2,0.1-0.3c0-0.1,0-0.1,0.1-0.2c0,0,0,0,0-0.1c0-0.1,0-0.2,0-0.3
		c0-0.1,0-0.1,0-0.2c0,0,0-0.1,0-0.1l0.1-20.9C49.1,342.1,49,342.2,49,342.3z"/>
	<ellipse opacity="0.5" cx="220.7" cy="359.6" rx="18.1" ry="7.4"/>
	<path fill="#F3D8A7" d="M223.3,327.5c-0.1-1.5-0.3-2.9-0.3-4.4c-0.1-2.7,0-5.4,0-8.1c0-1.9,0.2-3.8,0.2-5.7c0-0.2-0.2-0.4-0.3-0.6
		c-0.9,0.2-1,0.8-1.1,1.7c-0.1,3.8-1.6,9.5-1,13.2c0,2.6,1.5,3.1,1.5,5.7C223.1,329,223.4,328.3,223.3,327.5z"/>
	<path fill="#595959" d="M208,356.3c0.3,0.3,0.6,0.6,1,0.8c1,0.8,2.1,1.6,3.3,2.5c0.5-0.5,1-1,1.5-1.5h0c0,0,0,0,0-0.1
		c0.1-0.1,0.1-0.1,0.2-0.2c-0.1,0-0.1,0-0.2,0c0.1-0.1,0.1-0.2,0.1-0.3c0-0.2,0-0.4,0-0.6c0.1-3,0.3-5.9,0.4-8.9
		c-0.2-3.1,0.6-6,1.2-8.9c0.2-1.2,0.5-2.3,0.8-3.4c0.2-0.6,0.2-1.4,1.1-1.8c0.6,5,1.1,9.8,1.7,14.7c0,0.3,0.1,0.6,0.1,0.9
		c0.1,0.3,0.1,0.6,0.1,0.9c-0.3-0.1-0.7-0.2-1-0.3c-0.1,0-0.3,0-0.4,0c-0.4,0.1-0.8,0.3-1.3,0.4c0.2,0.4,0.3,1,0.6,1.3
		c0.9,0.7,1.9,1.4,2.9,2c0.9,0.5,1.8,0.2,2.2-0.7c0.1,0,0.1,0,0.1,0c0-0.9,0-1.8,0.1-2.7c0-3.6-0.1-7.3,0-10.9
		c0-3.1,0.1-6.3,0.2-9.4c0-2.6-1.6-4.2-1.6-6.7c-0.1,0.1-3.3,4.6-7.4,5.4c-0.8,0.2-1.5,0.6-2.2,0.3c-0.1,0.3-0.2,0.9-0.1,1.2
		c0.2,1.2-0.9,13.4-0.9,18.4c0.1,0.4,0.1,0.8,0.1,1.2c0,0.9,0,1.8,0,2.7c0,0.4,0,0.8,0.1,1.2c0.1,0.5,0.2,1,0.3,1.4
		c-1.2-0.2-2.2-0.4-3.2-0.6C207.2,355.2,207.4,355.8,208,356.3z"/>
	<path fill="#581324" d="M212.7,329.2c16.4,1.5,7.2-14.7,10.1-19.8c3.2-12.4-17.1-1.8-11,5.4c0.2,0.3,0.6,0.4,0.9,0.5
		C214.5,316,213.1,329.2,212.7,329.2z"/>
	<path fill="#F3D8A7" d="M212.7,330.7c1.2-6.1,4.5-20.1-1.8-17.1c0,0-0.6,12.8,0.1,17.1C211.2,331.5,212.6,331.4,212.7,330.7z"/>
	<path fill="#FEFEFE" d="M82.7,384.6c-1.4-0.6-3.1-0.3-3.8,1c-0.1,0.1-0.1,0.6-0.1,0.5c-0.6-1.1-1.6-2.6-2.1-3.7
		c-1-2.1-2.1-4.1-2.9-6.2c-1.5-3.6-2.8-7.3-3.7-11.1c-0.3-1.2-0.5-2.3-0.8-3.5c-0.1-0.6-0.3-1.1-0.1-1.7c0.3-1.4,2.1-2.8,3.5-1.9
		c0.3,0.2,0.6,0.4,0.8,0.7C78,366.6,81,375.7,82.7,384.6z"/>
	<path fill="#898989" d="M78.8,386.4c0.7,2.1,1.7,4.8,1.7,4.8l3.6-1.1l-1.3-5.1c-0.2-0.7-0.8-1.2-1.5-1.1c-0.3,0-0.6,0-0.9,0.1
		C79.2,384.1,78.4,385.3,78.8,386.4z"/>
	<linearGradient id="SVGID_13_" gradientUnits="userSpaceOnUse" x1="73.3657" y1="375.511" x2="79.8183" y2="373.1624">
		<stop  offset="0" style="stop-color:#000000;stop-opacity:0.5"/>
		<stop  offset="1" style="stop-color:#FFFFFF;stop-opacity:0"/>
	</linearGradient>
	<path fill="url(#SVGID_13_)" d="M82.9,385c0-0.1-0.1-0.3-0.2-0.4c0,0,0,0,0,0c-1.6-8.9-4.7-18-9.3-25.9c-0.2-0.4-0.5-0.5-0.8-0.7
		c-1.3-0.9-3.2,0.4-3.5,1.9c-0.1,0.6,0,1.1,0.1,1.7c0.2,1.2,0.5,2.4,0.8,3.5c0.9,3.8,2.2,7.5,3.7,11.1c0.9,2.1,1.9,4.1,2.9,6.2
		c0.5,1.1,1.5,2.6,2.1,3.7c0,0,0,0,0,0c0,0.1,0,0.2,0.1,0.3c0.7,2.1,1.7,4.8,1.7,4.8l3.6-1.1L82.9,385z"/>
	<path fill="#FB782F" d="M89.3,399.2c-1.5,1.6-4,0.9-5.6-0.2c-1.6-1.1-3.3-2.5-4-4.4c-1.1-2.5,1.8-6.4,4.5-4.7
		c2.7,1.4,2.3,4.7,2.5,7.3C86.8,398.8,87.7,399.5,89.3,399.2z"/>
	<linearGradient id="SVGID_14_" gradientUnits="userSpaceOnUse" x1="80.9351" y1="396.9582" x2="87.0508" y2="393.7065">
		<stop  offset="0" style="stop-color:#000000;stop-opacity:0.5"/>
		<stop  offset="0.1413" style="stop-color:#000000;stop-opacity:0.4293"/>
		<stop  offset="1" style="stop-color:#000000;stop-opacity:0"/>
	</linearGradient>
	<path fill="url(#SVGID_14_)" d="M89.3,399.2c-1.5,1.6-4,0.9-5.6-0.2c-1.6-1.1-3.3-2.5-4-4.4c-1.1-2.5,1.8-6.4,4.5-4.7
		c2.7,1.4,2.3,4.7,2.5,7.3C86.8,398.8,87.7,399.5,89.3,399.2z"/>
	<path fill="#3D332D" d="M214.7,294.6c-4.6,2.4-1.2,3.8,0,5.3c0.6-0.1,1.3,0,1.7,0.3c0.1,0.1,0.4,0.2,0.6,0.6
		c0.2,0.2,0.5,0.7,0.8,1.9C225.4,302.3,221.5,290.9,214.7,294.6z"/>
	<path opacity="0.56" fill="#3D332D" d="M216.5,300.2c-0.5-0.3-1.1-0.4-1.7-0.3c0.4,0.5,0.6,1,0.1,1.5c-0.2,0.4-1.4,0.3-1.3,0.8
		c0.5,0.8,0.8,1.5,1.7,1.3c0.9-0.2,1.2-3.4,1.8-2.8C216.9,300.4,216.6,300.2,216.5,300.2z"/>
	<g>
		<path fill="#DCDCDC" d="M137.2,283.1c0.1,0,0.1,0.1,0,0.1l-2.5,1.5c-0.1,0-0.1,0.1,0,0.1l0.3,0.2c0.1,0,0,0.1-0.1,0.2l-2.5,0.4
			c-0.1,0-0.1,0-0.2,0s-0.1-0.1,0-0.1l0.7-1.5c0-0.1,0.2-0.1,0.3,0l0.3,0.2c0.1,0,0.2,0,0.2,0l2.5-1.5c0.1,0,0.2,0,0.2,0
			L137.2,283.1z"/>
	</g>
	<g>
		<polygon fill="#FFFFFF" points="110.7,248.4 106.7,250.7 106.7,255.4 110.7,253.1 		"/>
	</g>
	<g>
		<polygon fill="#FFFFFF" points="106.7,250.7 102.7,253.1 102.7,257.7 106.7,255.4 		"/>
	</g>
	<g>
		<polygon fill="#FFFFFF" points="102.7,253.1 98.7,255.4 98.7,260 102.7,257.7 		"/>
	</g>
	<g>
		<polygon fill="#FFFFFF" points="66.7,264.6 62.7,266.9 62.7,271.5 66.7,269.2 		"/>
	</g>
	<g>
		<polygon fill="#FFFFFF" points="70.7,262.3 66.7,264.6 66.7,269.2 70.7,266.9 		"/>
	</g>
	<g>
		<polygon fill="#FFFFFF" points="90.7,315.3 86.7,317.6 86.7,322.2 90.7,319.9 		"/>
	</g>
	<g>
		<polygon fill="#FFFFFF" points="94.7,313 90.7,315.3 90.7,319.9 94.7,317.6 		"/>
	</g>
	<g>
		<polygon fill="#FFFFFF" points="70.7,308.4 66.7,310.7 66.7,315.3 70.7,313 		"/>
	</g>
	<g>
		<polygon fill="#FFFFFF" points="74.7,306.1 70.7,308.4 70.7,313 74.7,310.7 		"/>
	</g>
	<g>
		<polygon fill="#FFFFFF" points="78.7,303.8 74.7,306.1 74.7,310.7 78.7,308.4 		"/>
	</g>
	<g>
		<polygon fill="#FFFFFF" points="98.7,301.5 94.7,303.8 94.7,308.4 98.7,306.1 		"/>
	</g>
	<g>
		<polygon fill="#FFFFFF" points="102.7,299.2 98.7,301.5 98.7,306.1 102.7,303.8 		"/>
	</g>
	<g>
		<polygon fill="#FFFFFF" points="106.7,296.9 102.7,299.2 102.7,303.8 106.7,301.5 		"/>
	</g>
	<g>
		<polygon fill="#FFFFFF" points="110.7,294.6 106.7,296.9 106.7,301.5 110.7,299.2 		"/>
	</g>
	<g>
		<polygon fill="#FFFFFF" points="98.7,296.9 94.7,299.2 94.7,303.8 98.7,301.5 		"/>
	</g>
	<g>
		<polygon fill="#FFFFFF" points="98.7,292.2 94.7,294.6 94.7,299.2 98.7,296.9 		"/>
	</g>
	<g>
		<polygon fill="#FFFFFF" points="98.7,287.6 94.7,289.9 94.7,294.6 98.7,292.2 		"/>
	</g>
	<g>
		<polygon fill="#FFFFFF" points="102.7,285.3 98.7,287.6 98.7,292.2 102.7,289.9 		"/>
	</g>
	<g>
		<polygon fill="#FFFFFF" points="122.6,278.4 118.6,280.7 118.6,285.3 122.6,283 		"/>
	</g>
	<g>
		<polygon fill="#FFFFFF" points="122.6,273.8 118.6,276.1 118.6,280.7 122.6,278.4 		"/>
	</g>
	<g>
		<polygon fill="#FFFFFF" points="126.6,276.1 122.6,278.4 122.6,283 126.6,280.7 		"/>
	</g>
	<g>
		<polygon fill="#FFFFFF" points="126.6,271.5 122.6,273.8 122.6,278.4 126.6,276.1 		"/>
	</g>
	<g>
		<polygon fill="#FFFFFF" points="86.7,294.6 82.7,296.9 82.7,301.5 86.7,299.2 		"/>
	</g>
	<g>
		<polygon fill="#FFFFFF" points="86.7,289.9 82.7,292.2 82.7,296.9 86.7,294.6 		"/>
	</g>
	<g>
		<polygon fill="#FFFFFF" points="86.7,285.3 82.7,287.6 82.7,292.2 86.7,289.9 		"/>
	</g>
	<g>
		<polygon fill="#FFFFFF" points="86.7,280.7 82.7,283 82.7,287.6 86.7,285.3 		"/>
	</g>
	<g>
		<polygon fill="#FFFFFF" points="86.7,276.1 82.7,278.4 82.7,283 86.7,280.7 		"/>
	</g>
	<g>
		<polygon fill="#FFFFFF" points="90.7,273.8 86.7,276.1 86.7,280.7 90.7,278.4 		"/>
	</g>
	<g>
		<polygon fill="#FFFFFF" points="94.7,271.5 90.7,273.8 90.7,278.4 94.7,276.1 		"/>
	</g>
	<g>
		<polygon fill="#FFFFFF" points="82.7,264.6 78.7,266.9 78.7,271.5 82.7,269.2 		"/>
	</g>
	<g>
		<polygon fill="#FFFFFF" points="86.7,262.3 82.7,264.6 82.7,269.2 86.7,266.9 		"/>
	</g>
	<g>
		<polygon fill="#FFFFFF" points="90.7,260 86.7,262.3 86.7,266.9 90.7,264.6 		"/>
	</g>
	<g>
		<polygon fill="#FFFFFF" points="98.7,269.2 94.7,271.5 94.7,276.1 98.7,273.8 		"/>
	</g>
	<g>
		<polygon fill="#FFFFFF" points="102.7,266.9 98.7,269.2 98.7,273.8 102.7,271.5 		"/>
	</g>
	<g>
		<polygon fill="#FFFFFF" points="98.7,283 94.7,285.3 94.7,289.9 98.7,287.6 		"/>
	</g>
	<g>
		<polygon fill="#FFFFFF" points="102.7,280.7 98.7,283 98.7,287.6 102.7,285.3 		"/>
	</g>
	<g>
		<polygon fill="#FFFFFF" points="106.7,278.4 102.7,280.7 102.7,285.3 106.7,283 		"/>
	</g>
	<g>
		<polygon fill="#FFFFFF" points="110.7,276.1 106.7,278.4 106.7,283 110.7,280.7 		"/>
	</g>
	<g>
		<polygon fill="#FFFFFF" points="114.6,273.8 110.7,276.1 110.7,280.7 114.6,278.4 		"/>
	</g>
	<g>
		<polygon fill="#FFFFFF" points="114.6,278.4 110.7,280.7 110.7,285.3 114.6,283 		"/>
	</g>
	<g>
		<polygon fill="#FFFFFF" points="114.6,283 110.7,285.3 110.7,289.9 114.6,287.6 		"/>
	</g>
	<g>
		<polygon fill="#FFFFFF" points="114.6,287.6 110.7,289.9 110.7,294.6 114.6,292.2 		"/>
	</g>
	<g>
		<polygon fill="#FFFFFF" points="114.6,292.2 110.7,294.6 110.7,299.2 114.6,296.9 		"/>
	</g>
	<g>
		<polygon fill="#FFFFFF" points="74.7,287.6 70.7,289.9 70.7,294.6 74.7,292.2 		"/>
	</g>
	<g>
		<polygon fill="#FFFFFF" points="74.7,283 70.7,285.3 70.7,289.9 74.7,287.6 		"/>
	</g>
	<g>
		<polygon fill="#FFFFFF" points="74.7,278.4 70.7,280.7 70.7,285.3 74.7,283 		"/>
	</g>
	<g>
		<polygon fill="#FFFFFF" points="74.7,273.8 70.7,276.1 70.7,280.7 74.7,278.4 		"/>
	</g>
	<g>
		<polygon fill="#FFFFFF" points="110.7,253.1 106.7,255.4 106.7,260 110.7,257.7 		"/>
	</g>
	<g>
		<polygon fill="#FFFFFF" points="106.7,255.4 102.7,257.7 102.7,262.3 106.7,260 		"/>
	</g>
	<g>
		<polygon fill="#FFFFFF" points="102.7,257.7 98.7,260 98.7,264.6 102.7,262.3 		"/>
	</g>
	<g>
		<polygon fill="#FFFFFF" points="110.7,257.7 106.7,260 106.7,264.6 110.7,262.3 		"/>
	</g>
	<g>
		<polygon fill="#FFFFFF" points="106.7,260 102.7,262.3 102.7,266.9 106.7,264.6 		"/>
	</g>
	<g>
		<polygon fill="#FFFFFF" points="102.7,262.3 98.7,264.6 102.7,266.9 		"/>
	</g>
	<g>
		<polygon fill="#FFFFFF" points="110.7,262.3 106.7,264.6 106.7,269.2 110.7,266.9 		"/>
	</g>
	<g>
		<polygon fill="#FFFFFF" points="106.7,264.6 102.7,266.9 102.7,271.5 106.7,269.2 		"/>
	</g>
	<g>
		<polygon fill="#FFFFFF" points="110.7,266.9 106.7,269.2 110.7,271.5 		"/>
	</g>
	<g>
		<polygon fill="#FFFFFF" points="54.7,313 54.7,317.6 58.7,315.3 		"/>
	</g>
	<g>
		<polygon fill="#FFFFFF" points="58.7,310.7 54.7,313 58.7,315.3 62.7,313 		"/>
	</g>
	<g>
		<polygon fill="#FFFFFF" points="62.7,308.4 58.7,310.7 62.7,313 		"/>
	</g>
	<g>
		<polygon fill="#FFFFFF" points="74.7,292.2 70.7,294.6 74.7,296.9 		"/>
	</g>
	<g>
		<polygon fill="#FFFFFF" points="106.7,283 102.7,285.3 106.7,287.6 		"/>
	</g>
	<g>
		<polygon fill="#FFFFFF" points="102.7,289.9 106.7,287.6 102.7,285.3 		"/>
	</g>
	<g>
		<polygon fill="#FFFFFF" points="66.7,306.1 62.7,308.4 66.7,310.7 70.7,308.4 		"/>
	</g>
	<g>
		<polygon fill="#FFFFFF" points="70.7,303.8 66.7,306.1 70.7,308.4 74.7,306.1 		"/>
	</g>
	<g>
		<polygon fill="#FFFFFF" points="74.7,301.5 70.7,303.8 74.7,306.1 78.7,303.8 		"/>
	</g>
	<g>
		<polygon fill="#FFFFFF" points="78.7,299.2 74.7,301.5 78.7,303.8 82.7,301.5 		"/>
	</g>
	<g>
		<polygon fill="#FFFFFF" points="54.7,308.4 54.7,313 58.7,310.7 		"/>
	</g>
	<g>
		<polygon fill="#FFFFFF" points="58.7,306.1 54.7,308.4 58.7,310.7 62.7,308.4 		"/>
	</g>
	<g>
		<polygon fill="#FFFFFF" points="62.7,303.8 58.7,306.1 62.7,308.4 66.7,306.1 		"/>
	</g>
	<g>
		<polygon fill="#FFFFFF" points="66.7,301.5 62.7,303.8 66.7,306.1 70.7,303.8 		"/>
	</g>
	<g>
		<polygon fill="#FFFFFF" points="70.7,299.2 66.7,301.5 70.7,303.8 74.7,301.5 		"/>
	</g>
	<g>
		<polygon fill="#FFFFFF" points="74.7,296.9 70.7,299.2 74.7,301.5 78.7,299.2 		"/>
	</g>
	<g>
		<polygon fill="#FFFFFF" points="54.7,303.8 54.7,308.4 58.7,306.1 		"/>
	</g>
	<g>
		<polygon fill="#FFFFFF" points="58.7,301.5 54.7,303.8 58.7,306.1 62.7,303.8 		"/>
	</g>
	<g>
		<polygon fill="#FFFFFF" points="62.7,299.2 58.7,301.5 62.7,303.8 66.7,301.5 		"/>
	</g>
	<g>
		<polygon fill="#FFFFFF" points="66.7,296.9 62.7,299.2 66.7,301.5 70.7,299.2 		"/>
	</g>
	<g>
		<polygon fill="#FFFFFF" points="70.7,294.6 66.7,296.9 70.7,299.2 74.7,296.9 		"/>
	</g>
	<g>
		<polygon fill="#FFFFFF" points="54.7,299.2 54.7,303.8 58.7,301.5 		"/>
	</g>
	<g>
		<polygon fill="#FFFFFF" points="58.7,296.9 54.7,299.2 58.7,301.5 62.7,299.2 		"/>
	</g>
	<g>
		<polygon fill="#FFFFFF" points="62.7,294.6 58.7,296.9 62.7,299.2 66.7,296.9 		"/>
	</g>
	<g>
		<polygon fill="#FFFFFF" points="66.7,292.2 62.7,294.6 66.7,296.9 70.7,294.6 		"/>
	</g>
	<g>
		<polygon fill="#FFFFFF" points="54.7,294.6 54.7,299.2 58.7,296.9 		"/>
	</g>
	<g>
		<polygon fill="#FFFFFF" points="58.7,292.2 54.7,294.6 58.7,296.9 62.7,294.6 		"/>
	</g>
	<g>
		<polygon fill="#FFFFFF" points="62.7,289.9 58.7,292.2 62.7,294.6 66.7,292.2 		"/>
	</g>
	<g>
		<polygon fill="#FFFFFF" points="58.7,260 54.8,262.3 58.7,264.6 62.7,262.3 		"/>
	</g>
	<g>
		<polygon fill="#FFFFFF" points="62.7,262.3 58.7,264.6 62.7,266.9 66.7,264.6 		"/>
	</g>
	<g>
		<polygon fill="#FFFFFF" points="70.7,266.9 66.7,269.2 70.7,271.5 74.7,269.2 		"/>
	</g>
	<g>
		<polygon fill="#FFFFFF" points="74.7,269.2 70.7,271.5 74.7,273.8 78.7,271.5 		"/>
	</g>
	<g>
		<polygon fill="#FFFFFF" points="66.7,269.2 62.7,271.5 66.7,273.8 70.7,271.5 		"/>
	</g>
	<g>
		<polygon fill="#FFFFFF" points="70.7,271.5 66.7,273.8 70.7,276.1 74.7,273.8 		"/>
	</g>
	<g>
		<polygon fill="#FFFFFF" points="86.7,308.4 82.7,310.7 86.7,313 90.7,310.7 		"/>
	</g>
	<g>
		<polygon fill="#FFFFFF" points="90.7,310.7 86.7,313 90.7,315.3 94.7,313 		"/>
	</g>
	<g>
		<polygon fill="#FFFFFF" points="82.7,310.7 78.7,313 82.7,315.3 86.7,313 		"/>
	</g>
	<g>
		<polygon fill="#FFFFFF" points="86.7,313 82.7,315.3 86.7,317.6 90.7,315.3 		"/>
	</g>
	<g>
		<polygon fill="#FFFFFF" points="78.7,271.5 74.7,273.8 78.7,276.1 82.7,273.8 		"/>
	</g>
	<g>
		<polygon fill="#FFFFFF" points="82.7,273.8 78.7,276.1 82.7,278.4 86.7,276.1 		"/>
	</g>
	<g>
		<polygon fill="#FFFFFF" points="82.7,269.2 78.7,271.5 82.7,273.8 86.7,271.5 		"/>
	</g>
	<g>
		<polygon fill="#FFFFFF" points="86.7,271.5 82.7,273.8 86.7,276.1 90.7,273.8 		"/>
	</g>
	<g>
		<polygon fill="#FFFFFF" points="86.7,266.9 82.7,269.2 86.7,271.5 90.7,269.2 		"/>
	</g>
	<g>
		<polygon fill="#FFFFFF" points="90.7,269.2 86.7,271.5 90.7,273.8 94.7,271.5 		"/>
	</g>
	<g>
		<polygon fill="#FFFFFF" points="90.7,264.6 86.7,266.9 90.7,269.2 94.7,266.9 		"/>
	</g>
	<g>
		<polygon fill="#FFFFFF" points="94.7,266.9 90.7,269.2 94.7,271.5 98.7,269.2 		"/>
	</g>
	<g>
		<polygon fill="#FFFFFF" points="94.7,262.3 90.7,264.6 94.7,266.9 98.7,264.6 		"/>
	</g>
	<g>
		<polygon fill="#FFFFFF" points="98.7,264.6 94.7,266.9 98.7,269.2 102.6,266.9 		"/>
	</g>
	<g>
		<polygon fill="#FFFFFF" points="90.7,278.4 86.7,280.7 90.7,283 94.7,280.7 		"/>
	</g>
	<g>
		<polygon fill="#FFFFFF" points="94.7,280.7 90.7,283 94.7,285.3 98.7,283 		"/>
	</g>
	<g>
		<polygon fill="#FFFFFF" points="94.7,276.1 90.7,278.4 94.7,280.7 98.7,278.4 		"/>
	</g>
	<g>
		<polygon fill="#FFFFFF" points="98.7,278.4 94.7,280.7 98.7,283 102.7,280.7 		"/>
	</g>
	<g>
		<polygon fill="#FFFFFF" points="122.6,269.2 118.6,271.5 122.6,273.8 126.6,271.5 		"/>
	</g>
	<g>
		<polygon fill="#FFFFFF" points="118.6,271.5 114.6,273.8 118.6,276.1 122.6,273.8 		"/>
	</g>
	<g>
		<polygon fill="#FFFFFF" points="118.6,266.9 114.6,269.2 118.6,271.5 122.6,269.2 		"/>
	</g>
	<g>
		<polygon fill="#FFFFFF" points="114.6,269.2 110.7,271.5 114.6,273.8 118.6,271.5 		"/>
	</g>
	<g>
		<polygon fill="#FFFFFF" points="114.6,264.6 110.7,266.9 114.6,269.2 118.6,266.9 		"/>
	</g>
	<g>
		<polygon fill="#FFFFFF" points="110.7,266.9 110.7,271.5 114.6,269.2 		"/>
	</g>
	<g>
		<polygon fill="#FFFFFF" points="110.7,262.3 110.7,266.9 114.6,264.6 		"/>
	</g>
	<g>
		<polygon fill="#FFFFFF" points="98.7,273.8 94.7,276.1 98.7,278.4 102.7,276.1 		"/>
	</g>
	<g>
		<polygon fill="#FFFFFF" points="102.7,276.1 98.7,278.4 102.7,280.7 106.7,278.4 		"/>
	</g>
	<g>
		<polygon fill="#FFFFFF" points="102.7,271.5 98.7,273.8 102.7,276.1 106.7,273.8 		"/>
	</g>
	<g>
		<polygon fill="#FFFFFF" points="106.7,273.8 102.7,276.1 106.7,278.4 110.6,276.1 		"/>
	</g>
	<g>
		<polygon fill="#FFFFFF" points="98.7,296.9 98.7,301.5 102.7,299.2 		"/>
	</g>
	<g>
		<polygon fill="#FFFFFF" points="126.6,271.5 126.6,276.1 130.6,273.8 		"/>
	</g>
	<g>
		<polygon fill="#FFFFFF" points="102.7,294.6 98.7,296.9 102.7,299.2 106.7,296.9 		"/>
	</g>
	<g>
		<polygon fill="#FFFFFF" points="106.7,292.2 102.7,294.6 106.7,296.9 110.6,294.6 		"/>
	</g>
	<g>
		<polygon fill="#FFFFFF" points="106.7,269.2 102.7,271.5 106.7,273.8 110.6,271.5 		"/>
	</g>
	<g>
		<polygon fill="#FFFFFF" points="110.6,271.5 106.7,273.8 110.6,276.1 114.6,273.8 		"/>
	</g>
	<g>
		<polygon fill="#FFFFFF" points="62.7,257.7 58.7,260 62.7,262.3 66.7,260 		"/>
	</g>
	<g>
		<polygon fill="#FFFFFF" points="66.7,260 62.7,262.3 66.7,264.6 70.7,262.3 		"/>
	</g>
	<g>
		<polygon fill="#FFFFFF" points="66.7,255.4 62.7,257.7 66.7,260 70.7,257.7 		"/>
	</g>
	<g>
		<polygon fill="#FFFFFF" points="70.7,257.7 66.7,260 70.7,262.3 74.7,260 		"/>
	</g>
	<g>
		<polygon fill="#FFFFFF" points="70.7,253.1 66.7,255.4 70.7,257.7 74.7,255.4 		"/>
	</g>
	<g>
		<polygon fill="#FFFFFF" points="74.7,255.4 70.7,257.7 74.7,260 78.7,257.7 		"/>
	</g>
	<g>
		<polygon fill="#FFFFFF" points="74.7,250.7 70.7,253.1 74.7,255.4 78.7,253.1 		"/>
	</g>
	<g>
		<polygon fill="#FFFFFF" points="78.7,253.1 74.7,255.4 78.7,257.7 82.7,255.4 		"/>
	</g>
	<g>
		<polygon fill="#FFFFFF" points="74.7,260 70.7,262.3 74.7,264.6 78.7,262.3 		"/>
	</g>
	<g>
		<polygon fill="#FFFFFF" points="78.7,257.7 74.7,260 78.7,262.3 82.7,260 		"/>
	</g>
	<g>
		<polygon fill="#FFFFFF" points="82.7,255.4 78.7,257.7 82.7,260 86.7,257.7 		"/>
	</g>
	<g>
		<polygon fill="#FFFFFF" points="78.7,262.3 74.7,264.6 78.7,266.9 82.7,264.6 		"/>
	</g>
	<g>
		<polygon fill="#FFFFFF" points="82.7,260 78.7,262.3 82.7,264.6 86.7,262.3 		"/>
	</g>
	<g>
		<polygon fill="#FFFFFF" points="86.7,257.7 82.7,260 86.7,262.3 90.7,260 		"/>
	</g>
	<g>
		<polygon fill="#FFFFFF" points="90.7,246.1 86.7,248.4 90.7,250.7 94.7,248.4 		"/>
	</g>
	<g>
		<polygon fill="#FFFFFF" points="94.7,248.4 90.7,250.7 94.7,253.1 98.7,250.7 		"/>
	</g>
	<g>
		<polygon fill="#FFFFFF" points="98.7,250.7 94.7,253.1 98.7,255.4 102.7,253.1 		"/>
	</g>
	<g>
		<polygon fill="#FFFFFF" points="94.7,243.8 90.7,246.1 94.7,248.4 98.7,246.1 		"/>
	</g>
	<g>
		<polygon fill="#FFFFFF" points="98.7,246.1 94.7,248.4 98.7,250.7 102.7,248.4 		"/>
	</g>
	<g>
		<polygon fill="#FFFFFF" points="102.7,248.4 98.7,250.7 102.7,253.1 106.7,250.7 		"/>
	</g>
	<g>
		<polygon fill="#FFFFFF" points="98.7,241.5 94.7,243.8 98.7,246.1 102.7,243.8 		"/>
	</g>
	<g>
		<polygon fill="#FFFFFF" points="102.7,243.8 98.7,246.1 102.7,248.4 106.7,246.1 		"/>
	</g>
	<g>
		<polygon fill="#FFFFFF" points="106.7,246.1 102.7,248.4 106.7,250.7 110.7,248.4 		"/>
	</g>
	<g>
		<polygon fill="#FFFFFF" points="78.7,248.4 74.7,250.7 78.7,253.1 82.7,250.7 		"/>
	</g>
	<g>
		<polygon fill="#FFFFFF" points="82.7,250.7 78.7,253.1 82.7,255.4 86.7,253.1 		"/>
	</g>
	<g>
		<polygon fill="#FFFFFF" points="82.7,246.1 78.7,248.4 82.7,250.7 86.7,248.4 		"/>
	</g>
	<g>
		<polygon fill="#FFFFFF" points="86.7,248.4 82.7,250.7 86.7,253.1 		"/>
	</g>
	<g>
		<polygon fill="#FFFFFF" points="86.7,253.1 82.7,255.4 86.7,257.7 		"/>
	</g>
	<g>
		<polygon fill="#FFFFFF" points="54.7,289.9 54.7,294.6 58.7,292.2 		"/>
	</g>
	<g>
		<polygon fill="#FFFFFF" points="58.7,287.6 54.8,289.9 58.7,292.2 62.7,289.9 		"/>
	</g>
	<g>
		<polygon fill="#FFFFFF" points="54.8,285.3 54.8,289.9 58.7,287.6 		"/>
	</g>
	<path fill="#777777" d="M54.7,280.7v4.6l4,2.3V283L54.7,280.7z"/>
	<path fill="#777777" d="M58.7,283v4.6l4,2.3v-4.6L58.7,283z"/>
	<path fill="#777777" d="M62.7,285.3v4.6l4,2.3v-4.6L62.7,285.3z"/>
	<path fill="#777777" d="M66.7,287.6v4.6l4,2.3v-4.6L66.7,287.6z"/>
	<path fill="#777777" d="M54.7,276.1v4.6l4,2.3v-4.6L54.7,276.1z"/>
	<path fill="#777777" d="M58.7,278.4v4.6l4,2.3v-4.6L58.7,278.4z"/>
	<path fill="#777777" d="M62.7,280.7v4.6l4,2.3V283L62.7,280.7z"/>
	<path fill="#777777" d="M66.7,283v4.6l4,2.3v-4.6L66.7,283z"/>
	<path fill="#777777" d="M54.7,271.5v4.6l4,2.3v-4.6L54.7,271.5z"/>
	<path fill="#777777" d="M58.7,273.8v4.6l4,2.3v-4.6L58.7,273.8z"/>
	<path fill="#777777" d="M62.7,276.1v4.6l4,2.3v-4.6L62.7,276.1z"/>
	<path fill="#777777" d="M66.7,278.4v4.6l4,2.3v-4.6L66.7,278.4z"/>
	<path fill="#777777" d="M54.7,266.9v4.6l4,2.3v-4.6L54.7,266.9z"/>
	<path fill="#777777" d="M58.7,269.2v4.6l4,2.3v-4.6L58.7,269.2z"/>
	<path fill="#777777" d="M62.7,271.5v4.6l4,2.3v-4.6L62.7,271.5z"/>
	<path fill="#777777" d="M66.7,273.8v4.6l4,2.3v-4.6L66.7,273.8z"/>
	<path fill="#777777" d="M54.7,262.3v4.6l4,2.3v-4.6L54.7,262.3z"/>
	<path fill="#777777" d="M58.7,264.6v4.6l4,2.3v-4.6L58.7,264.6z"/>
	<path fill="#777777" d="M70.7,262.3v4.6l4,2.3v-4.6L70.7,262.3z"/>
	<path fill="#777777" d="M86.7,253.1v4.6l4,2.3v-4.6L86.7,253.1z"/>
	<path fill="#777777" d="M90.7,255.4v4.6l4,2.3v-4.6L90.7,255.4z"/>
	<path fill="#777777" d="M94.7,257.7v4.6l4,2.3V260L94.7,257.7z"/>
	<path fill="#777777" d="M86.7,248.4v4.6l4,2.3v-4.6L86.7,248.4z"/>
	<path fill="#777777" d="M90.7,250.7v4.6l4,2.3v-4.6L90.7,250.7z"/>
	<path fill="#777777" d="M94.7,253.1v4.6l4,2.3v-4.6L94.7,253.1z"/>
	<path fill="#777777" d="M74.7,264.6v4.6l4,2.3v-4.6L74.7,264.6z"/>
	<path fill="#777777" d="M78.7,313v4.6l4,2.3v-4.6L78.7,313z"/>
	<path fill="#777777" d="M82.7,315.3v4.6l4,2.3v-4.6L82.7,315.3z"/>
	<path fill="#777777" d="M74.7,292.2v4.6l4,2.3v-4.6L74.7,292.2z"/>
	<path fill="#777777" d="M78.7,294.6v4.6l4,2.3v-4.6L78.7,294.6z"/>
	<path fill="#777777" d="M74.7,287.6v4.6l4,2.3v-4.6L74.7,287.6z"/>
	<path fill="#777777" d="M78.7,289.9v4.6l4,2.3v-4.6L78.7,289.9z"/>
	<path fill="#777777" d="M74.7,283v4.6l4,2.3v-4.6L74.7,283z"/>
	<path fill="#777777" d="M78.7,285.3v4.6l4,2.3v-4.6L78.7,285.3z"/>
	<path fill="#777777" d="M74.7,278.4v4.6l4,2.3v-4.6L74.7,278.4z"/>
	<path fill="#777777" d="M78.7,280.7v4.6l4,2.3V283L78.7,280.7z"/>
	<path fill="#777777" d="M74.7,273.8v4.6l4,2.3v-4.6L74.7,273.8z"/>
	<path fill="#777777" d="M78.7,276.1v4.6l4,2.3v-4.6L78.7,276.1z"/>
	<path fill="#777777" d="M86.7,299.2v4.6l4,2.3v-4.6L86.7,299.2z"/>
	<path fill="#777777" d="M58.7,296.9v4.6l4,2.3v-4.6L58.7,296.9z"/>
	<path fill="#777777" d="M62.7,299.2v4.6l4,2.3v-4.6L62.7,299.2z"/>
	<path fill="#777777" d="M62.7,308.4v4.6l4,2.3v-4.6L62.7,308.4z"/>
	<path fill="#777777" d="M114.6,278.4v4.6l4,2.3v-4.6L114.6,278.4z"/>
	<path fill="#777777" d="M114.6,273.8v4.6l4,2.3v-4.6L114.6,273.8z"/>
	<path fill="#777777" d="M66.7,301.5v4.6l4-2.3L66.7,301.5z"/>
	<path fill="#777777" d="M90.7,301.5v4.6l4,2.3v-4.6L90.7,301.5z"/>
	<path fill="#777777" d="M86.7,294.6v4.6l4,2.3v-4.6L86.7,294.6z"/>
	<path fill="#777777" d="M90.7,296.9v4.6l4,2.3v-4.6L90.7,296.9z"/>
	<path fill="#777777" d="M86.7,289.9v4.6l4,2.3v-4.6L86.7,289.9z"/>
	<path fill="#777777" d="M90.7,292.2v4.6l4,2.3v-4.6L90.7,292.2z"/>
	<path fill="#777777" d="M86.7,285.3v4.6l4,2.3v-4.6L86.7,285.3z"/>
	<path fill="#777777" d="M90.7,287.6v4.6l4,2.3v-4.6L90.7,287.6z"/>
	<path fill="#777777" d="M86.7,280.7v4.6l4,2.3V283L86.7,280.7z"/>
	<path fill="#777777" d="M106.7,287.6v4.6l4,2.3v-4.6L106.7,287.6z"/>
	<path fill="#777777" d="M106.7,283v4.6l4,2.3v-4.6L106.7,283z"/>
	<path fill="#777777" d="M106.7,283l4,2.3v-4.6L106.7,283z"/>
	<path fill="#777777" d="M90.7,283v4.6l4,2.3v-4.6L90.7,283z"/>
	<path fill="#777777" d="M126.6,266.9v4.6l4,2.3v-4.6L126.6,266.9z"/>
	<path fill="#777777" d="M126.6,262.3v4.6l4,2.3v-4.6L126.6,262.3z"/>
	<path fill="#777777" d="M126.6,257.7v4.6l4,2.3V260L126.6,257.7z"/>
	<path fill="#777777" d="M126.6,253.1v4.6l4,2.3v-4.6L126.6,253.1z"/>
	<path fill="#777777" d="M126.6,248.4v4.6l4,2.3v-4.6L126.6,248.4z"/>
	<path fill="#777777" d="M126.6,243.8v4.6l4,2.3v-4.6L126.6,243.8z"/>
	<path fill="#777777" d="M126.6,239.2v4.6l4,2.3v-4.6L126.6,239.2z"/>
	<path fill="#777777" d="M126.6,234.6v4.6l4,2.3v-4.6L126.6,234.6z"/>
	<path fill="#777777" d="M126.6,230v4.6l4,2.3v-4.6L126.6,230z"/>
	<path fill="#777777" d="M126.6,225.4v4.6l4,2.3v-4.6L126.6,225.4z"/>
	<path fill="#777777" d="M126.6,220.8v4.6l4,2.3v-4.6L126.6,220.8z"/>
	<path fill="#777777" d="M126.6,220.8l4,2.3v-4.6L126.6,220.8z"/>
	<path fill="#777777" d="M122.6,264.6v4.6l4,2.3v-4.6L122.6,264.6z"/>
	<path fill="#777777" d="M122.6,260v4.6l4,2.3v-4.6L122.6,260z"/>
	<path fill="#777777" d="M122.6,255.4v4.6l4,2.3v-4.6L122.6,255.4z"/>
	<path fill="#777777" d="M122.6,250.7v4.6l4,2.3v-4.6L122.6,250.7z"/>
	<path fill="#777777" d="M122.6,246.1v4.6l4,2.3v-4.6L122.6,246.1z"/>
	<path fill="#777777" d="M122.6,241.5v4.6l4,2.3v-4.6L122.6,241.5z"/>
	<path fill="#777777" d="M122.6,236.9v4.6l4,2.3v-4.6L122.6,236.9z"/>
	<path fill="#777777" d="M122.6,232.3v4.6l4,2.3v-4.6L122.6,232.3z"/>
	<path fill="#777777" d="M122.6,227.7v4.6l4,2.3V230L122.6,227.7z"/>
	<path fill="#777777" d="M122.6,223.1v4.6l4,2.3v-4.6L122.6,223.1z"/>
	<path fill="#777777" d="M122.6,223.1l4,2.3v-4.6L122.6,223.1z"/>
	<path fill="#777777" d="M118.6,262.3v4.6l4,2.3v-4.6L118.6,262.3z"/>
	<path fill="#777777" d="M118.6,257.7v4.6l4,2.3V260L118.6,257.7z"/>
	<path fill="#777777" d="M118.6,253.1v4.6l4,2.3v-4.6L118.6,253.1z"/>
	<path fill="#777777" d="M118.6,248.4v4.6l4,2.3v-4.6L118.6,248.4z"/>
	<path fill="#777777" d="M118.6,243.8v4.6l4,2.3v-4.6L118.6,243.8z"/>
	<path fill="#777777" d="M118.6,239.2v4.6l4,2.3v-4.6L118.6,239.2z"/>
	<path fill="#777777" d="M118.6,234.6v4.6l4,2.3v-4.6L118.6,234.6z"/>
	<path fill="#777777" d="M118.6,230v4.6l4,2.3v-4.6L118.6,230z"/>
	<path fill="#777777" d="M118.6,225.4v4.6l4,2.3v-4.6L118.6,225.4z"/>
	<path fill="#777777" d="M118.6,225.4l4,2.3v-4.6L118.6,225.4z"/>
	<path fill="#777777" d="M114.6,260v4.6l4,2.3v-4.6L114.6,260z"/>
	<path fill="#777777" d="M114.6,255.4v4.6l4,2.3v-4.6L114.6,255.4z"/>
	<path fill="#777777" d="M114.6,250.7v4.6l4,2.3v-4.6L114.6,250.7z"/>
	<path fill="#777777" d="M114.6,246.1v4.6l4,2.3v-4.6L114.6,246.1z"/>
	<path fill="#777777" d="M114.6,241.5v4.6l4,2.3v-4.6L114.6,241.5z"/>
	<path fill="#777777" d="M114.6,236.9v4.6l4,2.3v-4.6L114.6,236.9z"/>
	<path fill="#777777" d="M114.6,232.3v4.6l4,2.3v-4.6L114.6,232.3z"/>
	<path fill="#777777" d="M114.6,227.7v4.6l4,2.3V230L114.6,227.7z"/>
	<path fill="#777777" d="M114.6,227.7l4,2.3v-4.6L114.6,227.7z"/>
	<path fill="#777777" d="M110.7,257.7v4.6l4,2.3V260L110.7,257.7z"/>
	<path fill="#777777" d="M110.7,253.1v4.6l4,2.3v-4.6L110.7,253.1z"/>
	<path fill="#777777" d="M110.7,248.4v4.6l4,2.3v-4.6L110.7,248.4z"/>
	<path fill="#777777" d="M110.7,243.8v4.6l4,2.3v-4.6L110.7,243.8z"/>
	<path fill="#777777" d="M110.7,239.2v4.6l4,2.3v-4.6L110.7,239.2z"/>
	<path fill="#777777" d="M110.7,234.6v4.6l4,2.3v-4.6L110.7,234.6z"/>
	<path fill="#777777" d="M110.7,230v4.6l4,2.3v-4.6L110.7,230z"/>
	<path fill="#777777" d="M110.7,230l4,2.3v-4.6L110.7,230z"/>
	<path fill="#777777" d="M106.7,241.5v4.6l4,2.3v-4.6L106.7,241.5z"/>
	<path fill="#777777" d="M106.7,236.9v4.6l4,2.3v-4.6L106.7,236.9z"/>
	<path fill="#777777" d="M106.7,232.3v4.6l4,2.3v-4.6L106.7,232.3z"/>
	<path fill="#777777" d="M106.7,232.3l4,2.3V230L106.7,232.3z"/>
	<path fill="#777777" d="M102.7,239.2v4.6l4,2.3v-4.6L102.7,239.2z"/>
	<path fill="#777777" d="M102.7,234.6v4.6l4,2.3v-4.6L102.7,234.6z"/>
	<path fill="#777777" d="M102.7,234.6l4,2.3v-4.6L102.7,234.6z"/>
	<path fill="#777777" d="M98.7,236.9v4.6l4,2.3v-4.6L98.7,236.9z"/>
	<path fill="#777777" d="M98.7,236.9l4,2.3v-4.6L98.7,236.9z"/>
	<path fill="#777777" d="M94.7,239.2v4.6l4-2.3L94.7,239.2z"/>
	<path fill="#777777" d="M94.7,239.2l4,2.3v-4.6L94.7,239.2z"/>
	<path fill="#777777" d="M90.7,241.5v4.6l4-2.3L90.7,241.5z"/>
	<path fill="#777777" d="M90.7,241.5l4,2.3v-4.6L90.7,241.5z"/>
	<path fill="#777777" d="M86.7,243.8v4.6l4-2.3L86.7,243.8z"/>
	<path fill="#777777" d="M90.7,260v4.6l4-2.3L90.7,260z"/>
	<path fill="#777777" d="M86.7,243.8l4,2.3v-4.6L86.7,243.8z"/>
	<path fill="#777777" d="M82.7,246.1l4,2.3v-4.6L82.7,246.1z"/>
</g>
</svg>
