<?xml version="1.0" encoding="utf-8"?>
<!-- Generator: Adobe Illustrator 24.1.3, SVG Export Plug-In . SVG Version: 6.00 Build 0)  -->
<svg version="1.1" id="Layer_1" xmlns:v="https://vecta.io/nano"
	 xmlns="http://www.w3.org/2000/svg" xmlns:xlink="http://www.w3.org/1999/xlink" x="0px" y="0px" viewBox="0 0 225 150"
	 style="enable-background:new 0 0 225 150;" xml:space="preserve">
<style type="text/css">
	.st0{opacity:0.54;enable-background:new    ;}
	.st1{fill:#FFA000;}
	.st2{fill:#F57C00;}
	.st3{fill:#FFCA28;}
	.st4{fill:#FFFFFF;fill-opacity:0.2;}
	.st5{opacity:0.2;fill:#A52714;enable-background:new    ;}
	.st6{fill:url(#SVGID_1_);}
</style>
<path class="st0" d="M67.6,91.3h-4.2V59h19v4H67.6v10.6H81v3.9H67.6V91.3z M90.3,63.6c-1,1-2.6,1.2-3.7,0.4
	c-1.2-0.8-1.6-2.3-1.1-3.6s1.9-2,3.3-1.8s2.4,1.5,2.4,2.9C91.1,62.3,90.8,63.1,90.3,63.6C90.3,63.6,90.3,63.6,90.3,63.6z M90.3,91.3
	h-4.2V69.2h4.2C90.3,69.2,90.3,91.3,90.3,91.3z M99.5,91.3h-4.2V69.2h4v3.6h0.2c0.5-1.3,1.4-2.3,2.6-3c1.2-0.7,2.5-1.1,3.8-1.2
	c1.1,0,2.1,0.2,3.1,0.5l-1.6,3.9c-0.7-0.2-1.5-0.3-2.2-0.3c-1.5,0-3,0.7-4,1.8c-1.2,1.2-1.8,2.8-1.8,4.7L99.5,91.3L99.5,91.3z
	 M120.5,92c-3.4,0-6.1-1.1-8.2-3.3s-3.2-5-3.2-8.4c-0.1-3.1,1-6,3.1-8.3c2-2.3,4.8-3.6,7.9-3.5c3.3,0,6,1.1,7.9,3.2s3,5,3,8.6v0.8
	h-17.6c0.1,2.2,0.9,4,2.3,5.3c1.3,1.3,3,2,4.8,1.9c3,0,5-1.3,6.1-3.8l3.7,1.5c-0.8,1.8-2,3.2-3.6,4.3C125,91.5,123,92,120.5,92
	C120.5,92,120.5,92,120.5,92z M126.6,77.6c-0.1-1.3-0.7-2.5-1.8-3.6s-2.7-1.7-4.8-1.7c-1.5,0-2.9,0.5-4,1.4c-1.2,1-2,2.4-2.3,3.9
	L126.6,77.6L126.6,77.6z M146.2,92c-1.6,0-3.2-0.3-4.6-1.1c-1.2-0.6-2.3-1.6-3-2.7h-0.2v3.1h-4V59h4.2v10.2l-0.2,3.1h0.2
	c0.7-1.2,1.8-2.1,3-2.7c1.4-0.7,3-1.1,4.6-1.1c2.9,0,5.4,1.1,7.5,3.4s3.1,5.1,3.1,8.4s-1,6.1-3.1,8.4C151.5,90.9,149,92,146.2,92
	C146.2,92,146.2,92,146.2,92z M145.5,88.2c1.9,0,3.7-0.8,5-2.2c1.4-1.5,2.1-3.4,2.1-5.8s-0.7-4.3-2.1-5.8c-1.3-1.4-3.1-2.2-5-2.2
	s-3.7,0.8-5,2.2c-1.4,1.4-2.1,3.4-2.1,5.8s0.7,4.4,2.1,5.8C141.7,87.5,143.6,88.3,145.5,88.2L145.5,88.2z M167.4,92
	c-2.4,0-4.4-0.7-5.9-2c-1.6-1.4-2.4-3.1-2.4-5.4c0-2.4,0.9-4.3,2.8-5.7s4.2-2.1,7-2.1c2.5,0,4.5,0.5,6,1.4v-0.6
	c0.1-1.5-0.6-2.9-1.7-3.9s-2.6-1.5-4.1-1.5c-1.2,0-2.3,0.3-3.3,0.9c-0.9,0.5-1.7,1.4-2,2.4l-3.8-1.6c0.5-1.3,1.5-2.6,3.1-3.7
	c1.5-1.1,3.5-1.7,6-1.7c2.8,0,5.2,0.8,7.1,2.5s2.8,4,2.8,7v13.4h-4v-3.1h-0.2C173.1,90.8,170.6,92,167.4,92L167.4,92L167.4,92z
	 M168.1,88.2c1.8,0,3.5-0.7,4.7-1.9c1.3-1.1,2.1-2.8,2.1-4.5c-1.2-1-3-1.4-5.3-1.4c-2,0-3.6,0.4-4.6,1.3c-1,0.7-1.5,1.9-1.5,3.1
	c0,1,0.5,2,1.4,2.6C165.9,87.9,167,88.3,168.1,88.2L168.1,88.2L168.1,88.2z M191.3,92c-2.5,0-4.5-0.6-6.2-1.8
	c-1.6-1.2-2.8-2.7-3.6-4.5l3.7-1.5c1.2,2.8,3.2,4.2,6,4.2c1.1,0,2.2-0.3,3.2-0.9c0.8-0.5,1.3-1.3,1.3-2.3c0-1.4-1-2.4-3.1-2.9
	l-4.5-1.1c-1.5-0.4-2.9-1.1-4.1-2.1c-1.3-1-2-2.5-1.9-4.1c0-2,0.9-3.5,2.6-4.8c1.8-1.2,4-1.9,6.2-1.8c1.8,0,3.7,0.4,5.3,1.3
	c1.5,0.9,2.7,2.2,3.3,3.8l-3.6,1.5c-0.8-2-2.5-2.9-5.1-2.9c-1.1,0-2.2,0.2-3.1,0.8c-0.8,0.4-1.3,1.2-1.3,2.1c0,1.3,1,2.1,3,2.6
	l4.4,1c2.1,0.5,3.6,1.3,4.6,2.5c1,1.1,1.5,2.5,1.5,4c0,2-0.9,3.8-2.5,5C196,91.4,193.9,92,191.3,92L191.3,92L191.3,92z M213.8,92
	c-3.4,0-6.1-1.1-8.2-3.3s-3.2-5-3.2-8.5c-0.1-3.1,1-6,3.1-8.3c2-2.3,4.8-3.5,7.9-3.5c3.3,0,6,1.1,7.9,3.2c2,2.1,3,5,3,8.6V81h-17.6
	c0.1,2.2,0.9,4,2.3,5.3c1.3,1.3,3,2,4.9,1.9c3,0,5-1.3,6.1-3.8l3.7,1.5c-0.8,1.8-2,3.2-3.6,4.3C218.3,91.5,216.2,92,213.8,92
	L213.8,92z M219.8,77.6c-0.1-1.3-0.7-2.5-1.8-3.6s-2.7-1.7-4.8-1.7c-1.5,0-2.9,0.5-4,1.4c-1.2,1-2,2.4-2.3,3.9
	C206.9,77.6,219.8,77.6,219.8,77.6z"/>
<path class="st1" d="M0.7,93.8l7.7-49.3c0.1-0.6,0.6-1.1,1.2-1.2c0.6-0.1,1.2,0.2,1.5,0.7l8,14.9l3.2-6c0.2-0.5,0.7-0.8,1.3-0.8
	c0.5,0,1,0.3,1.3,0.8l21.5,40.9H0.7z"/>
<path class="st2" d="M27.3,74.6L19,58.9L0.7,93.8C0.7,93.8,27.3,74.6,27.3,74.6z"/>
<path class="st3" d="M46.3,93.8l-5.9-36.5c-0.1-0.5-0.5-1-1-1.1c-0.5-0.2-1.1,0-1.4,0.3L0.8,93.8l20.6,11.5c1.3,0.7,2.9,0.7,4.2,0
	L46.3,93.8z"/>
<path class="st4" d="M40.4,57.3c-0.1-0.5-0.5-1-1-1.1c-0.5-0.2-1.1,0-1.4,0.3l-7.4,7.4l-5.8-11.1c-0.2-0.5-0.7-0.8-1.3-0.8
	s-1,0.3-1.3,0.8l-3.2,6l-8-14.9c-0.3-0.5-0.9-0.8-1.5-0.7c-0.6,0.1-1.1,0.6-1.2,1.2L0.6,93.7l0.2,0.1l37-37c0.4-0.4,0.9-0.5,1.4-0.4
	c0.5,0.2,0.9,0.6,1,1.1l5.9,36.2h0.1C46.2,93.7,40.4,57.3,40.4,57.3z M0.8,93.7l7.6-48.9c0.1-0.6,0.6-1.1,1.2-1.2
	c0.6-0.1,1.2,0.2,1.5,0.7l8,14.9l3.2-6c0.2-0.5,0.7-0.8,1.3-0.8c0.5,0,1,0.3,1.3,0.8L30.6,64C30.6,64,0.8,93.7,0.8,93.7z"/>
<path class="st5" d="M25.5,105c-1.3,0.7-2.9,0.7-4.2,0L0.8,93.5v0.3l20.6,11.5c1.3,0.7,2.9,0.7,4.2,0l20.8-11.5l-0.1-0.3L25.5,105z"
	/>
<linearGradient id="SVGID_1_" gradientUnits="userSpaceOnUse" x1="-0.405" y1="85.4633" x2="46.924" y2="60.5033" gradientTransform="matrix(1 0 0 -1 0 150)">
	<stop  offset="0" style="stop-color:#FFFFFF;stop-opacity:0.1"/>
	<stop  offset="0.14" style="stop-color:#FFFFFF;stop-opacity:8.000000e-02"/>
	<stop  offset="0.61" style="stop-color:#FFFFFF;stop-opacity:2.000000e-02"/>
	<stop  offset="1" style="stop-color:#FFFFFF;stop-opacity:0"/>
</linearGradient>
<path class="st6" d="M40.3,57.3c-0.1-0.5-0.5-1-1-1.1c-0.5-0.2-1.1,0-1.4,0.3l-7.4,7.4l-5.8-11.1C24.5,52.3,24,52,23.4,52
	c-0.5,0-1,0.3-1.3,0.8l-3.2,6L11,43.9c-0.3-0.5-0.9-0.8-1.5-0.7c-0.6,0.1-1.1,0.6-1.2,1.2L0.6,93.7l20.5,11.5c1.3,0.7,2.9,0.7,4.1,0
	l20.7-11.5C45.9,93.7,40.3,57.3,40.3,57.3z"/>
</svg>
