<?xml version="1.0" encoding="utf-8"?>
<svg version="1.1" id="Layer_1" xmlns="http://www.w3.org/2000/svg" xmlns:xlink="http://www.w3.org/1999/xlink" x="0px" y="0px"
	 viewBox="0 0 99.8 44.4" style="enable-background:new 0 0 99.8 44.4;" xml:space="preserve">
<style type="text/css">
	.st0{clip-path:url(#SVGID_2_);fill:url(#SVGID_3_);}
	.st1{clip-path:url(#SVGID_5_);fill:url(#SVGID_6_);}
</style>
<g>
	<defs>
		<path id="SVGID_1_" d="M-4514.1-4290.6c-13.6-4.3-16.7-6.1-16.7-10c0-6.4,8-7.4,12.8-7.4c6.9,0,15.3,4,19.5,9.4l4.7,6l31.1-32.8
			l-4.9-4.5c-12.8-11.7-31.4-18.7-49.8-18.7c-29.9,0-60.1,15.4-60.1,49.9c0,29.3,21.3,39.9,40.3,46c17.6,5.7,23.8,8.2,23.8,13.4
			c0,2.3,0,8.5-12.6,8.5c-8.8,0-19.2-5.1-24.8-12.2l-4.6-5.8l-31.5,32.1l4.4,4.6c13.1,13.8,34.2,22,56.5,22
			c29.6,0,59.5-16.3,59.5-52.7C-4466.5-4275.2-4495.1-4284.4-4514.1-4290.6z M-4526-4196.6c-19.8,0-39.7-7.2-51.8-19.9l21.9-22.3
			c6.7,8.4,19,14.7,29.9,14.7c10.2,0,19.2-3.9,19.2-15c0-10.6-10.6-13.9-28.7-19.8c-17.6-5.7-35.4-14.7-35.4-39.7
			c0-30.7,27.8-43.4,53.6-43.4c15.6,0,33.2,5.9,45.4,17l-21.3,22.5c-5.7-7.2-16-11.9-24.6-11.9c-8.6,0-19.4,2.9-19.4,13.9
			c0,9.2,8.2,12.1,21.3,16.2c18.8,6.1,43,14.1,43,41.6C-4473-4210.8-4498.6-4196.6-4526-4196.6z M-4410.6-4307.1
			c-18.2,0-35.7,6.6-47.9,18.2l-4.7,4.4l22,23.5c-16,6.4-24,17.3-24,32.7c0,25.6,21,37,41.9,37c7.9,0,15.5-1.9,21.6-5.3v2.9h42.4
			v-55.6C-4359.3-4289.2-4375.1-4307.1-4410.6-4307.1z M-4365.8-4200.1h-29.3v-10.4h-0.6c-4.9,8-16,12.7-27.6,12.7
			c-15.4,0-35.4-7.6-35.4-30.5c0-28.2,34.2-32.9,62.6-32.9v-1.6c0-9.6-7.6-14.1-17.6-14.1c-9.2,0-18.2,4.5-24,10l-16.2-17.4
			c11.3-10.7,27.6-16.4,43.4-16.4c32.7,0,44.8,16,44.8,51.4V-4200.1z M-4430.6-4264.2c4.3-3.2,10.4-6,16.9-6c4.2,0,7.2,0.8,9,2.8
			C-4414.5-4267.1-4423.2-4266-4430.6-4264.2z M-4429.1-4229.2c0,7.4,7.4,10,13.9,10c12.9,0,20.1-7.8,20.1-19.9v-3.3h-4.1
			C-4413.3-4242.5-4429.1-4240.7-4429.1-4229.2z M-4415.3-4225.8c-0.8,0-7.4-0.1-7.4-3.4c0-5.3,12-6.6,20.7-6.8
			C-4402.9-4229.2-4407.4-4225.8-4415.3-4225.8z M-4220.8-4306.7c-12.4,0-22.8,4.2-30.7,12.2c-7.1-8-17.2-12.2-29.7-12.2
			c-9.3,0-17,2.8-23,6.8v-4.1h-44.1v110.4h45.3v-59.3c0-6.6,2.5-14.4,9.5-14.4c2.4,0,7.4,0,7.4,11.7v62.1h45.1v-59.1
			c0-1.5,0.3-14.6,9.7-14.6c3.1,0,7.4,0,7.4,14v59.7h45.1v-66.8C-4178.9-4281.7-4189.9-4306.7-4220.8-4306.7z M-4185.4-4200.1h-32.1
			v-53.2c0-11.2-2.5-20.5-13.9-20.5c-11,0-16.2,10.2-16.2,21.1v52.6h-32.1v-55.5c0-11.1-4.3-18.2-13.9-18.2c-10.2,0-16,9.2-16,20.9
			v52.8h-32.3v-97.4h31.1v13.5h0.4c4.5-8.2,14.5-16.2,29.1-16.2c14.1,0,23.9,6.1,29.3,16.6c6.4-10.2,16.6-16.6,31.1-16.6
			c26.4,0,35.4,21.5,35.4,39.9V-4200.1z M-4514.1-4098.6c-13.6-4.3-16.7-6.1-16.7-10c0-6.4,8-7.4,12.8-7.4c6.9,0,15.3,4,19.5,9.4
			l4.7,6l31.1-32.8l-4.9-4.5c-12.8-11.7-31.4-18.7-49.8-18.7c-29.9,0-60.1,15.4-60.1,49.9c0,29.3,21.3,39.9,40.3,46
			c17.6,5.7,23.8,8.2,23.8,13.4c0,2.3,0,8.5-12.6,8.5c-8.8,0-19.2-5.1-24.8-12.2l-4.6-5.8l-31.5,32.1l4.4,4.6
			c13.1,13.8,34.2,22,56.5,22c29.6,0,59.5-16.3,59.5-52.7C-4466.5-4083.2-4495.1-4092.4-4514.1-4098.6z M-4526-4004.6
			c-19.8,0-39.7-7.2-51.8-19.9l21.9-22.3c6.7,8.4,19,14.7,29.9,14.7c10.2,0,19.2-3.9,19.2-15c0-10.6-10.6-13.9-28.7-19.8
			c-17.6-5.7-35.4-14.7-35.4-39.7c0-30.7,27.8-43.4,53.6-43.4c15.6,0,33.2,5.9,45.4,17l-21.3,22.5c-5.7-7.2-16-11.9-24.6-11.9
			c-8.6,0-19.4,2.9-19.4,13.9c0,9.2,8.2,12.1,21.3,16.2c18.8,6.1,43,14.1,43,41.6C-4473-4018.8-4498.6-4004.6-4526-4004.6z
			 M-4404.7-4086.5c-12.3,0-21.3,8.6-22.1,18.6h41.3C-4385.5-4078.1-4392-4086.5-4404.7-4086.5z M-4417.3-4074.4
			c2.6-3.2,6.9-5.5,12.7-5.5c6.3,0,9.5,2.6,11.1,5.5H-4417.3z M-4404.9-4115.1c-34.3,0-59.1,24.7-59.1,58.7
			c0,34.1,24.7,57.9,60.1,57.9c21.5,0,39.1-8.4,49.6-23.5l3.9-5.6l-22-13.9h22.2l0.5-6c0.2-2.5,0.2-5.5,0.2-8.2
			C-4349.5-4091.2-4371.7-4115.1-4404.9-4115.1z M-4356.2-4048h-70.6c1,10.7,11.7,18.4,23.3,18.4c10.2,0,17.2-4.3,21.5-10.2
			l22.3,14.1c-9.2,13.3-24.4,20.7-44.2,20.7c-29.3,0-53.6-18.6-53.6-51.4c0-31.9,23.1-52.2,52.6-52.2c28.7,0,48.9,19.8,48.9,53
			C-4356-4053.1-4356-4050.3-4356.2-4048z M-4389.1-4041.4c-3.6,3.5-8.4,5.3-14.4,5.3c-5.3,0-10.2-2.1-13.3-5.3H-4389.1z
			 M-4313.7-4037.2c0,7.4,7.4,10,13.9,10c12.9,0,20.1-7.8,20.1-19.9v-3.3h-4.1C-4297.9-4050.5-4313.7-4048.7-4313.7-4037.2z
			 M-4299.8-4033.8c-0.8,0-7.4-0.1-7.4-3.4c0-5.3,12-6.6,20.7-6.8C-4287.5-4037.2-4292-4033.8-4299.8-4033.8z M-4295.1-4115.1
			c-18.2,0-35.7,6.6-47.9,18.2l-4.7,4.4l22,23.5c-16,6.4-24,17.3-24,32.7c0,25.6,21,37,41.9,37c7.9,0,15.5-1.9,21.6-5.3v2.9h42.4
			v-55.6C-4243.8-4097.2-4259.6-4115.1-4295.1-4115.1z M-4250.4-4008.1h-29.3v-10.4h-0.6c-4.9,8-16,12.7-27.6,12.7
			c-15.4,0-35.4-7.6-35.4-30.5c0-28.2,34.2-32.9,62.6-32.9v-1.6c0-9.6-7.6-14.1-17.6-14.1c-9.2,0-18.2,4.5-24,10l-16.2-17.4
			c11.3-10.7,27.6-16.4,43.4-16.4c32.7,0,44.8,16,44.8,51.4V-4008.1z M-4315.2-4072.2c4.3-3.2,10.4-6,16.9-6c4.2,0,7.2,0.8,9,2.8
			C-4299.1-4075.1-4307.7-4074-4315.2-4072.2z M-4171.9-4082c-14.5,0-23.5,12.7-23.5,25c0,12.7,9,25,23.5,25
			c15.3,0,23.1-12.5,23.1-25.2C-4148.8-4069.7-4156.6-4082-4171.9-4082z M-4171.9-4038.5c-11,0-16.9-9.5-16.9-18.5
			c0-9.1,6.3-18.5,16.9-18.5c13.1,0,16.5,11.5,16.5,18.3C-4155.3-4050.2-4158.8-4038.5-4171.9-4038.5z M-4163.9-4114.7
			c-10,0-17.8,2.8-23.6,6.2v-53.9h-45.1v160.9h42.6v-4.4c7.2,4.6,16.2,7.1,25.7,7.1c34.7,0,52.9-29.4,52.9-58.4
			C-4111.4-4090-4134-4114.7-4163.9-4114.7z M-4164.3-4005.3c-12.9,0-25.6-5.7-31.9-15.4h-0.4v12.7h-29.5v-147.8h32.1v60.8h0.4
			c5.5-6.4,15.5-13.1,29.7-13.1c28.4,0,45.9,23.8,45.9,51S-4134.9-4005.3-4164.3-4005.3z M-4048.4-4115.1c-35.1,0-60.5,24.4-60.5,58
			c0,33.5,26,58.7,60.5,58.7c35.2,0,60.7-24.7,60.7-58.7C-3987.8-4090.7-4013.3-4115.1-4048.4-4115.1z M-4048.4-4005
			c-29.3,0-54-20.3-54-52.2c0-31.9,24.6-51.4,54-51.4c29.5,0,54.2,19.6,54.2,51.4C-3994.3-4025.3-4018.9-4005-4048.4-4005z
			 M-4048.4-4082c-15.1,0-22.9,12.3-22.9,24.8s8,25.2,23.1,25.2c15.1,0,23.1-12.7,23.1-25.2S-4033.4-4082-4048.4-4082z
			 M-4048.2-4038.5c-11.4,0-16.6-9.7-16.6-18.7c0-6.8,3.4-18.3,16.4-18.3c11.5,0,16.7,9.5,16.7,18.3
			C-4031.7-4048.2-4036.9-4038.5-4048.2-4038.5z M-3917.4-4112v59.1c0,6.6-2.8,14.4-10.7,14.4c-3,0-8,0-8-14.2v-59.3h-45.3v66.8
			c0,28.2,16.5,46.4,41.9,46.4c9.1,0,17-2.8,23.2-6.9v4.2h43.9V-4112H-3917.4z M-3878.9-4008.1h-30.9v-13.5h-0.4
			c-4.5,8.6-15.6,16.2-29.3,16.2c-26.2,0-35.4-20.3-35.4-39.9v-60.2h32.3v52.8c0,11,2.7,20.7,14.5,20.7c11.1,0,17.2-9.8,17.2-20.9
			v-52.6h32.1V-4008.1z M-3786.9-4113.5c-0.8-0.3-3.2-1.2-9.1-1.2c-7.4,0-14.4,2.3-20.3,6.4v-3.7h-43.9v110.4h45.1v-56.6
			c0-4.3,2.9-15.6,16.4-15.6c2.6,0,4.6,0.2,6.5,0.7l7.8,2.1l2-41L-3786.9-4113.5z M-3790.6-4079.2c-2.9-0.8-5.7-1-8.2-1
			c-17.2,0-22.9,14.1-22.9,22.1v50.1h-32.1v-97.4h30.9v14.1h0.4c4.9-9.8,14.5-16.8,26.4-16.8c2.5,0,5.3,0.2,6.8,0.8L-3790.6-4079.2z
			 M-3715.7-4114.7c-9,0-16.9,2.8-23,6.9v-4.2h-44.1v110.4h45.3v-59.3c0-2.4,0.5-14.4,10.7-14.4c2.8,0,8,0,8,14v59.7h45.3v-66.8
			C-3673.6-4089.7-3684.6-4114.7-3715.7-4114.7z M-3680.1-4008.1h-32.3v-53.2c0-10.8-2.9-20.5-14.5-20.5c-11.3,0-17.2,9.8-17.2,20.9
			v52.8h-32.3v-97.4h31.1v13.5h0.4c4.5-8.6,15.6-16.2,29.1-16.2c26.2,0,35.6,20.3,35.6,39.9V-4008.1z M-4486.1-3879.5h-19.4
			l-16.1-55.1h-0.3l-16.1,55.1h-19.5l-23.1-81.4h21.1l12.9,54.1h0.3l14.5-54.1h20.5l14.6,54.1h0.4l13.1-54.1h20.5L-4486.1-3879.5z
			 M-4402.9-3902.9h-41.5c0.6,6.3,6.9,10.8,13.7,10.8c6,0,10.1-2.5,12.6-6l13.1,8.3c-5.4,7.8-14.4,12.2-26,12.2
			c-17.2,0-31.5-10.9-31.5-30.2c0-18.7,13.6-30.7,30.9-30.7c16.9,0,28.7,11.6,28.7,31.1C-4402.8-3905.9-4402.8-3904.3-4402.9-3902.9
			z M-4420.2-3914.6c0-6-3.8-10.9-11.3-10.9c-7.2,0-12.5,5.1-13,10.9H-4420.2z M-4354.5-3877.9c-7.6,0-15.1-3.3-18.7-9.1h-0.2v7.5
			h-17.4v-86.9h18.9v35.7h0.2c3.2-3.8,9.1-7.7,17.5-7.7c16.7,0,27,14,27,30C-4327.2-3892.3-4337.2-3877.9-4354.5-3877.9z
			 M-4359-3922.9c-8.5,0-13.8,7.5-13.8,14.7c0,7.5,5.3,14.7,13.8,14.7c9,0,13.6-7.4,13.6-14.8
			C-4345.4-3915.7-4350-3922.9-4359-3922.9z M-4255.1-3879.5h-30.3v-81.4h29.4c23.1,0,46.5,9.7,46.5,40.5
			C-4209.5-3891.8-4232.7-3879.5-4255.1-3879.5z M-4256.5-3944.1h-9.8v47.6h9.3c14,0,27-5.7,27-23.9
			C-4229.9-3938.7-4242.9-3944.1-4256.5-3944.1z M-4140.8-3902.9h-41.5c0.6,6.3,6.9,10.8,13.7,10.8c6,0,10.1-2.5,12.6-6l13.1,8.3
			c-5.4,7.8-14.4,12.2-26,12.2c-17.2,0-31.5-10.9-31.5-30.2c0-18.7,13.6-30.7,30.9-30.7c16.9,0,28.7,11.6,28.7,31.1
			C-4140.7-3905.9-4140.7-3904.3-4140.8-3902.9z M-4158-3914.6c0-6-3.8-10.9-11.3-10.9c-7.2,0-12.5,5.1-13,10.9H-4158z
			 M-4093.5-3879.5h-20.3l-22.5-57.2h20.8l12.1,37.1h0.3l12.1-37.1h20.1L-4093.5-3879.5z M-4007-3902.9h-41.5
			c0.6,6.3,6.9,10.8,13.7,10.8c6,0,10.1-2.5,12.6-6l13.1,8.3c-5.4,7.8-14.4,12.2-26,12.2c-17.2,0-31.5-10.9-31.5-30.2
			c0-18.7,13.6-30.7,30.9-30.7c16.9,0,28.7,11.6,28.7,31.1C-4006.9-3905.9-4006.9-3904.3-4007-3902.9z M-4024.2-3914.6
			c0-6-3.8-10.9-11.3-10.9c-7.2,0-12.5,5.1-13,10.9H-4024.2z M-3994.9-3879.5v-86.9h19.1v86.9H-3994.9z M-3932-3877.6
			c-17.2,0-31.7-12-31.7-30.7s14.5-30.2,31.7-30.2c17.4,0,31.8,11.5,31.8,30.2S-3914.6-3877.6-3932-3877.6z M-3932-3922.9
			c-8.9,0-13.4,7.2-13.4,14.6s4.7,14.8,13.6,14.8c8.9,0,13.6-7.5,13.6-14.8S-3923.1-3922.9-3932-3922.9z M-3851.7-3877.9
			c-7,0-13.8-3-17.4-7.9h-0.2v33.9h-18.9v-84.8h17.9v7h0.4c3.4-4.6,9.9-8.6,18.3-8.6c16.7,0,27.1,14,27.1,30
			C-3824.4-3892.3-3834.4-3877.9-3851.7-3877.9z M-3856.1-3922.9c-8.5,0-13.8,7.5-13.8,14.7c0,7.5,5.3,14.7,13.8,14.7
			c9,0,13.4-7.4,13.4-14.8C-3842.7-3915.7-3847.2-3922.9-3856.1-3922.9z M-3755.9-3902.9h-41.5c0.6,6.3,6.9,10.8,13.7,10.8
			c6,0,10.1-2.5,12.6-6l13.1,8.3c-5.4,7.8-14.4,12.2-26,12.2c-17.2,0-31.5-10.9-31.5-30.2c0-18.7,13.6-30.7,30.9-30.7
			c16.9,0,28.7,11.6,28.7,31.1C-3755.7-3905.9-3755.7-3904.3-3755.9-3902.9z M-3773.1-3914.6c0-6-3.8-10.9-11.3-10.9
			c-7.2,0-12.5,5.1-13,10.9H-3773.1z M-3706.8-3921.3c-1.7-0.4-3.3-0.6-4.8-0.6c-10.1,0-13.4,8.3-13.4,13v29.4h-18.9v-57.2h18.2v8.3
			h0.2c2.9-5.7,8.5-9.9,15.5-9.9c1.5,0,3.1,0.1,4,0.5L-3706.8-3921.3z M-3693.9-3878.3c-6.3,0-11.7-4.8-11.7-11.1
			c0-6.2,5.3-11.4,11.7-11.4c6.2,0,11.5,5,11.5,11.3C-3682.4-3883.3-3687.7-3878.3-3693.9-3878.3z"/>
	</defs>
	<clipPath id="SVGID_2_">
		<use xlink:href="#SVGID_1_"  style="overflow:visible;"/>
	</clipPath>
	<linearGradient id="SVGID_3_" gradientUnits="userSpaceOnUse" x1="-4600.4858" y1="-4086.4888" x2="-3659.9438" y2="-4086.4888">
		<stop  offset="0" style="stop-color:#FB782F"/>
		<stop  offset="1" style="stop-color:#E109AF"/>
	</linearGradient>
	<rect x="-4600.5" y="-4556.8" class="st0" width="940.5" height="940.5"/>
</g>
<g>
	<defs>
		<path id="SVGID_4_" d="M5.9,10.5c-0.7,0-1.5-0.4-2-1L3.3,8.8L0,12.1l0.6,0.6c1.2,1.3,3.2,2.1,5.3,2.1c1.7,0,3.4-0.6,4.5-1.8
			l-0.6,1.5h5.2l0.9-2.4h3.6l1,2.4h4.1h1.2H29l0-4.5l1.6,4.5h3.3l1.7-4.7l0,4.7h4.7V0.3h-5.8l-2.1,6.2l-2.2-6.2h-5.8v11.3L19.7,0.3
			h-4.1l-4.2,10.1c0-0.2,0.1-0.4,0.1-0.6c0-3.1-2.8-4-4.5-4.6C6.2,4.9,5.7,4.8,5.7,4.6c0-0.3,0.6-0.4,0.8-0.4c0.5,0,1.2,0.3,1.5,0.7
			l0.6,0.8l3.2-3.4l-0.7-0.6C10.1,0.7,8.3,0,6.6,0C3.9,0,1,1.5,1,4.8c0,3.2,2.7,4.1,3.8,4.4C6,9.5,6.7,9.8,6.7,10.1
			C6.7,10.2,6.7,10.5,5.9,10.5z M25.3,1.2h4.2l2.8,7.9h0.1l2.7-7.9h4.3v12.4h-2.9l0.1-8.7h-0.1l-3.2,8.7h-2.1l-3.1-8.7H28l0.1,8.7
			h-2.8V1.2z M16.2,1.2h2.9l5.1,12.4h-3.3l-1-2.4h-4.8l-0.9,2.4H11L16.2,1.2z M5,8.3C3.4,7.8,1.8,7,1.8,4.8c0-2.7,2.5-3.9,4.8-3.9
			c1.4,0,3,0.5,4,1.5l-1.9,2C8.3,3.8,7.3,3.3,6.6,3.3S4.8,3.6,4.8,4.6c0,0.8,0.7,1.1,1.9,1.4c1.7,0.5,3.8,1.3,3.8,3.7
			c0,2.8-2.3,4.1-4.7,4.1c-1.8,0-3.5-0.6-4.6-1.8l2-2c0.6,0.8,1.7,1.3,2.7,1.3c0.9,0,1.7-0.3,1.7-1.3C7.6,9.1,6.6,8.8,5,8.3z
			 M17.6,4.5l-1.6,4.2h3.1L17.6,4.5z M17.6,7.1l0.3,0.8h-0.6L17.6,7.1z M27.5,24.4h3.1l-1.5-4.2L27.5,24.4z M28.8,23.5l0.3-0.8
			l0.3,0.8H28.8z M41.3,24h-1.7v2.8h1.7c0.9,0,2.1-0.3,2.1-1.5C43.4,24.3,42.6,24,41.3,24z M41.3,25.9h-0.8v-1.1h0.8
			c1.2,0,1.2,0.3,1.2,0.5C42.5,25.5,42.5,25.9,41.3,25.9z M43,20.5c0-0.8-0.6-1.2-1.9-1.2h-1.5v2.5h1.6C42.4,21.8,43,21.3,43,20.5z
			 M40.5,20.1h0.6c1,0,1,0.2,1,0.3c0,0.1,0,0.5-0.9,0.5h-0.7V20.1z M54.5,19.2c-2.1,0-3.5,1.6-3.5,3.8c0,2.2,1.4,3.8,3.5,3.8
			c2.1,0,3.5-1.6,3.5-3.8C58.1,20.8,56.6,19.2,54.5,19.2z M54.5,26c-1.6,0-2.6-1.2-2.6-3c0-1.7,1.1-2.9,2.6-2.9
			c1.6,0,2.7,1.2,2.7,2.9C57.2,24.8,56.1,26,54.5,26z M54.5,15.7c-4.5,0-7.6,3-7.6,7.3c0,0.4,0.1,0.9,0.1,1.3
			c-0.3-0.7-0.7-1.3-1.3-1.7c0.7-0.7,1-1.5,1-2.5c0-2.5-2-4.1-5.1-4.1h-5.8v11.3L31.2,16h-4.1l-5,12v-2.2h-5.7V25h5.1v-4.2h-5.1
			v-0.5h5.4V16H11.7v1.8l-0.4-0.4c-1.2-1.1-2.9-1.8-4.7-1.8c-2.7,0-5.7,1.5-5.7,4.8c0,3.2,2.7,4.1,3.8,4.4c1.2,0.4,1.9,0.6,1.9,0.9
			c0,0.2,0,0.5-0.8,0.5c-0.7,0-1.5-0.4-2-1l-0.6-0.8L0,27.8l0.6,0.6c1.2,1.3,3.2,2.1,5.3,2.1c2.8,0,5.6-1.5,5.6-5
			c0-3.1-2.8-4-4.5-4.6c-0.8-0.3-1.3-0.4-1.3-0.6c0-0.3,0.6-0.4,0.8-0.4c0.5,0,1.2,0.3,1.5,0.7l0.6,0.8l3-3.1v11.8h9.5h0.9h4.3
			l0.9-2.4h3.6l1,2.4h4.1h1.2h4.6c3.5,0,5.6-1.7,5.6-4.5c0-0.2,0-0.3-0.1-0.5c0.9,3.1,3.7,5.3,7.3,5.3c4.4,0,7.6-3.1,7.6-7.5
			C62.1,18.7,59,15.7,54.5,15.7z M8.8,20.1C8.3,19.4,7.3,19,6.6,19s-1.7,0.3-1.7,1.2c0,0.8,0.7,1.1,1.9,1.4c1.7,0.5,3.8,1.3,3.8,3.7
			c0,2.8-2.3,4.1-4.7,4.1c-1.8,0-3.5-0.6-4.6-1.8l2-2c0.6,0.8,1.7,1.3,2.7,1.3c0.9,0,1.7-0.3,1.7-1.3c0-0.9-0.9-1.2-2.6-1.8
			c-1.6-0.5-3.2-1.3-3.2-3.5c0-2.7,2.5-3.9,4.8-3.9c1.4,0,3,0.5,4,1.5L8.8,20.1z M12.6,29.2V16.9h8.3v2.5h-5.4v2.3h5.1v2.4h-5.1v2.6
			h5.7v2.5H12.6z M32.4,29.2l-1-2.4h-4.8l-0.9,2.4h-3.2l5.2-12.4h2.9l5.1,12.4H32.4z M41.7,29.2h-4.9V16.9h4.9
			c1.9,0,4.2,0.7,4.2,3.2c0,1.4-0.8,2.3-2,2.7v0c1.4,0.2,2.5,1.3,2.5,2.9C46.4,28.3,44,29.2,41.7,29.2z M54.5,29.6
			c-3.9,0-6.7-2.7-6.7-6.6c0-4,2.9-6.5,6.7-6.5c3.9,0,6.7,2.5,6.7,6.5C61.3,26.9,58.4,29.6,54.5,29.6z M69.8,24.3
			c0,1.7-1.1,1.7-1.4,1.7c-1,0-1.4-0.6-1.4-1.7V16h-4.7v8.6c0,3.5,2.5,5.9,6.2,5.9c3.7,0,6.2-2.4,6.2-5.9V16h-4.8V24.3z M70.7,24.3
			v-7.5h3v7.7c0,3-2.1,5-5.3,5c-3.2,0-5.3-2-5.3-5v-7.7h3v7.5c0,1.3,0.6,2.5,2.3,2.5C70.1,26.9,70.7,25.7,70.7,24.3z M80.6,19.3H79
			v2.9h1.4c1,0,2.2-0.2,2.2-1.5C82.6,19.5,81.5,19.3,80.6,19.3z M80.4,21.3h-0.5v-1.1h0.7c1.1,0,1.1,0.3,1.1,0.5
			C81.7,20.9,81.7,21.3,80.4,21.3z M95.1,16l0.1,5.9L91.6,16h-4.8v12.5l-2.5-4.1c1.4-0.8,2.2-2.1,2.2-3.7c0-2.9-2.1-4.6-5.6-4.6
			h-5.6v14.1h4.7V26l2.3,4.2h4.6h1h3.7l-0.1-5.9l3.6,5.9h4.8V16H95.1z M82.7,29.2l-2.7-4.9h-1v4.9h-2.9V16.9h4.7
			c2.4,0,4.7,0.9,4.7,3.7c0,1.7-1,2.8-2.6,3.3l3.2,5.3H82.7z M98.9,29.2h-3.4l-5-8.1h-0.1l0.1,8.1h-2.9V16.9h3.4l5,8.1h0.1L96,16.9
			h2.9V29.2z M10.5,41.3H8.4l-1.8-6.1h0l-1.8,6.1H2.6L0,32.2h2.4l1.4,6h0l1.6-6h2.3l1.6,6h0l1.5-6h2.3L10.5,41.3z M19.8,38.7h-4.6
			c0.1,0.7,0.8,1.2,1.5,1.2c0.7,0,1.1-0.3,1.4-0.7l1.5,0.9c-0.6,0.9-1.6,1.4-2.9,1.4c-1.9,0-3.5-1.2-3.5-3.4c0-2.1,1.5-3.4,3.4-3.4
			c1.9,0,3.2,1.3,3.2,3.5C19.8,38.4,19.8,38.5,19.8,38.7z M17.8,37.4c0-0.7-0.4-1.2-1.3-1.2c-0.8,0-1.4,0.6-1.4,1.2H17.8z
			 M25.1,41.5c-0.8,0-1.7-0.4-2.1-1h0v0.8h-1.9v-9.7h2.1v4h0c0.4-0.4,1-0.9,1.9-0.9c1.9,0,3,1.6,3,3.3S27.1,41.5,25.1,41.5z
			 M24.6,36.5c-0.9,0-1.5,0.8-1.5,1.6c0,0.8,0.6,1.6,1.5,1.6c1,0,1.5-0.8,1.5-1.7C26.2,37.3,25.6,36.5,24.6,36.5z M36.2,41.3h-3.4
			v-9.1h3.3c2.6,0,5.2,1.1,5.2,4.5C41.3,39.9,38.7,41.3,36.2,41.3z M36,34.1h-1.1v5.3h1c1.6,0,3-0.6,3-2.7
			C39,34.7,37.5,34.1,36,34.1z M48.9,38.7h-4.6c0.1,0.7,0.8,1.2,1.5,1.2c0.7,0,1.1-0.3,1.4-0.7l1.5,0.9c-0.6,0.9-1.6,1.4-2.9,1.4
			c-1.9,0-3.5-1.2-3.5-3.4c0-2.1,1.5-3.4,3.4-3.4c1.9,0,3.2,1.3,3.2,3.5C48.9,38.4,48.9,38.5,48.9,38.7z M47,37.4
			c0-0.7-0.4-1.2-1.3-1.2c-0.8,0-1.4,0.6-1.4,1.2H47z M54.1,41.3h-2.3l-2.5-6.4h2.3l1.3,4.1h0l1.3-4.1h2.2L54.1,41.3z M63.8,38.7
			h-4.6c0.1,0.7,0.8,1.2,1.5,1.2c0.7,0,1.1-0.3,1.4-0.7l1.5,0.9c-0.6,0.9-1.6,1.4-2.9,1.4c-1.9,0-3.5-1.2-3.5-3.4
			c0-2.1,1.5-3.4,3.4-3.4c1.9,0,3.2,1.3,3.2,3.5C63.8,38.4,63.8,38.5,63.8,38.7z M61.8,37.4c0-0.7-0.4-1.2-1.3-1.2
			c-0.8,0-1.4,0.6-1.4,1.2H61.8z M65.1,41.3v-9.7h2.1v9.7H65.1z M72.1,41.5c-1.9,0-3.5-1.3-3.5-3.4s1.6-3.4,3.5-3.4
			c1.9,0,3.5,1.3,3.5,3.4S74,41.5,72.1,41.5z M72.1,36.5c-1,0-1.5,0.8-1.5,1.6s0.5,1.7,1.5,1.7c1,0,1.5-0.8,1.5-1.7
			S73.1,36.5,72.1,36.5z M81,41.5c-0.8,0-1.5-0.3-1.9-0.9h0v3.8H77v-9.4h2v0.8h0c0.4-0.5,1.1-1,2-1c1.9,0,3,1.6,3,3.3
			S82.9,41.5,81,41.5z M80.5,36.5c-0.9,0-1.5,0.8-1.5,1.6c0,0.8,0.6,1.6,1.5,1.6c1,0,1.5-0.8,1.5-1.7C82,37.3,81.5,36.5,80.5,36.5z
			 M91.7,38.7H87c0.1,0.7,0.8,1.2,1.5,1.2c0.7,0,1.1-0.3,1.4-0.7l1.5,0.9c-0.6,0.9-1.6,1.4-2.9,1.4c-1.9,0-3.5-1.2-3.5-3.4
			c0-2.1,1.5-3.4,3.4-3.4c1.9,0,3.2,1.3,3.2,3.5C91.7,38.4,91.7,38.5,91.7,38.7z M89.7,37.4c0-0.7-0.4-1.2-1.3-1.2
			c-0.8,0-1.4,0.6-1.4,1.2H89.7z M97.1,36.6c-0.2-0.1-0.4-0.1-0.5-0.1c-1.1,0-1.5,0.9-1.5,1.4v3.3H93v-6.4h2v0.9h0
			c0.3-0.6,0.9-1.1,1.7-1.1c0.2,0,0.3,0,0.4,0.1L97.1,36.6z M98.5,41.4c-0.7,0-1.3-0.5-1.3-1.2c0-0.7,0.6-1.3,1.3-1.3
			c0.7,0,1.3,0.6,1.3,1.3S99.2,41.4,98.5,41.4z"/>
	</defs>
	<clipPath id="SVGID_5_">
		<use xlink:href="#SVGID_4_"  style="overflow:visible;"/>
	</clipPath>
	<linearGradient id="SVGID_6_" gradientUnits="userSpaceOnUse" x1="-1.133155e-02" y1="20.7463" x2="99.8155" y2="20.7463">
		<stop  offset="0" style="stop-color:#FB782F"/>
		<stop  offset="1" style="stop-color:#E109AF"/>
	</linearGradient>
	<rect x="0" y="-29.2" class="st1" width="99.8" height="99.8"/>
</g>
</svg>
