<svg xmlns="http://www.w3.org/2000/svg" viewBox="0 0 300 200" xmlns:v="https://vecta.io/nano"><path d="M162.6 91.2c-2.8 0-4.8 1.4-4.8 4.6 0 2.5 1.4 4.2 4.7 4.2 2.8 0 4.7-1.7 4.7-4.3 0-3-1.7-4.5-4.6-4.5h0zm-5.6 23.1c-.7.8-1.3 1.7-1.3 2.7 0 2 2.6 2.6 6.1 2.6 2.9 0 6.9-.2 6.9-2.9 0-1.6-1.9-1.7-4.3-1.9l-7.4-.5zm15-23c.9 1.2 1.9 2.8 1.9 5.1 0 5.6-4.4 8.9-10.8 8.9-1.6 0-3.1-.2-4-.5l-1.7 2.7 4.9.3c8.7.6 13.9.8 13.9 7.5 0 5.8-5.1 9.1-13.9 9.1-9.1 0-12.6-2.3-12.6-6.3 0-2.3 1-3.5 2.8-5.2-1.7-.7-2.2-2-2.2-3.3 0-1.1.6-2.1 1.5-3.1s1.9-1.9 3.1-3c-2.5-1.2-4.3-3.8-4.3-7.6 0-5.8 3.8-9.8 11.6-9.8 2.2 0 3.5.2 4.6.5h9.8V91l-4.6.3m13.5-9.2c-2.9 0-4.5-1.7-4.5-4.5 0-2.9 1.7-4.4 4.5-4.4 2.9 0 4.6 1.6 4.6 4.4 0 2.9-1.7 4.5-4.6 4.5zm-6.5 30.4v-4l2.6-.4c.7-.1.8-.3.8-1V92.3c0-.6-.2-.9-.7-1.1l-2.7-1 .6-4.1H190v21c0 .8 0 .9.8 1l2.6.4v4H179m34.3-2c-2.2 1.1-5.4 2-8.2 2-6 0-8.3-2.4-8.3-8.1V91.2c0-.3 0-.5-.4-.5h-3.5v-4.5c4.4-.5 6.2-2.7 6.8-8.2h4.8v7.2c0 .4 0 .5.4.5h7.1v5h-7.5v12.1c0 3 .7 4.1 3.4 4.1 1.4 0 2.9-.4 4.1-.8l1.3 4.4" fill="#413000"/><path d="M138.5 97.3l-23.1-23.1c-1.3-1.3-3.5-1.3-4.8 0l-4.8 4.8 6.1 6.1c1.4-.5 3-.2 4.2 1 1.1 1.1 1.4 2.8 1 4.2l5.9 5.9c1.4-.5 3.1-.2 4.2 1a3.98 3.98 0 1 1-5.7 5.7c-1.2-1.2-1.5-2.9-.9-4.4l-5.5-5.5v14.4c.4.2.8.4 1.1.8a3.98 3.98 0 1 1-5.7 5.7 3.98 3.98 0 0 1 0-5.7c.4-.4.8-.7 1.3-.9V92.7c-.5-.2-.9-.5-1.3-.9-1.2-1.2-1.5-3-.9-4.4l-6-6-15.9 15.8c-1.3 1.3-1.3 3.5 0 4.8l23.1 23.1c1.3 1.3 3.5 1.3 4.8 0l23-23c1.3-1.3 1.3-3.5-.1-4.8" fill="#f05133"/></svg>