<svg xmlns="http://www.w3.org/2000/svg" viewBox="0 0 300 200" xmlns:v="https://vecta.io/nano"><path d="M104.2,55h91.7v89.2h-91.7V55z" fill="#261300"/><path d="M100 50.9v97.5h100V50.9H100zm4.2 4.1h91.7v89.2h-91.7V55zm30.5 51.1l-3.3 12.5c-.1.3-.2.4-.6.4h-6.1c-.4 0-.5-.1-.4-.6L136.1 77c.2-.8.3-1.4.4-3.5 0-.3.1-.4.3-.4h8.8c.3 0 .4.1.5.4l13.3 45c.1.3 0 .5-.3.5h-6.9c-.3 0-.5-.1-.6-.4l-3.5-12.5h-13.4zm11.6-6.8l-5-19.6h-.1c-.9 4.9-3.1 13.1-4.8 19.6h9.9zM165 76.2c0-2.7 1.9-4.3 4.3-4.3 2.5 0 4.3 1.7 4.3 4.3 0 2.8-1.8 4.3-4.3 4.3-2.5-.1-4.3-1.6-4.3-4.3h0zm.5 9.4c0-.3.1-.5.5-.5h6.5c.3 0 .5.1.5.5v32.9c0 .3-.1.5-.5.5H166c-.4 0-.5-.2-.5-.5V85.6z" fill="#ff7c00"/></svg>