<svg xmlns="http://www.w3.org/2000/svg" viewBox="0 0 300 200" xmlns:v="https://vecta.io/nano"><path d="M104.2,55h91.7v89.2h-91.7V55z" fill="#060421"/><path d="M104.2 55h91.7v89.2h-91.7V55zm-4.2 93.4h100V50.9H100v97.5zm67.4-57.5c-3.3 0-4.4 1.7-4.4 3 0 1.5.7 2.5 5.2 4.8 6.5 3.2 8.6 6.2 8.6 10.7 0 6.7-5.1 10.2-12 10.2-3.6 0-6.8-.8-8.5-1.8-.3-.1-.3-.3-.3-.7V111c0-.4.2-.5.5-.3a15.49 15.49 0 0 0 8.4 2.5c3.3 0 4.7-1.4 4.7-3.3 0-1.5-1-2.8-5.2-5-5.9-2.8-8.4-5.7-8.4-10.5 0-5.4 4.2-9.8 11.5-9.8 3.6 0 6.1.5 7.5 1.2.3.2.4.5.4.8v5.7c0 .3-.2.5-.6.4-2-1.1-4.7-1.8-7.4-1.8h0zm-35.8 4.9c1 .1 1.7.1 3.4.1 4.9 0 9.5-1.7 9.5-8.3 0-5.3-3.3-8-8.8-8-1.7 0-3.3.1-4 .1v16.1zm-7.4-22.1c0-.3.6-.5.9-.5 2.7-.1 6.6-.2 10.8-.2 11.5 0 16 6.3 16 14.4 0 10.6-7.7 15.1-17.1 15.1-1.6 0-2.1-.1-3.3-.1v16c0 .3-.1.5-.5.5h-6.4c-.3 0-.5-.1-.5-.5l.1-44.7z" fill="#31c5f0"/></svg>