<svg xmlns="http://www.w3.org/2000/svg" viewBox="0 0 300 200" xmlns:v="https://vecta.io/nano"><path d="M100 49.6h100v100H100z" fill="#672a7a"/><g fill="#fff"><path d="M164.4 87.8c.5-.5.8-1 .8-1.7 0-.6-.2-1.1-.6-1.5-.3-.3-.8-.6-1.5-.9-.6-.3-1.1-.5-1.3-.7s-.3-.5-.3-.9.1-.6.4-.8.6-.3 1.1-.3c.7 0 1.3.2 1.9.6v-1.3c-.5-.3-1.1-.4-1.8-.4-.9 0-1.6.2-2.1.7s-.8 1-.8 1.7c0 .6.2 1.1.5 1.5.3.3.8.6 1.5 1 .7.3 1.2.5 1.4.8.2.2.4.5.4.8 0 .8-.5 1.2-1.6 1.2-.8 0-1.5-.3-2.2-.8v1.5a4.65 4.65 0 0 0 2.1.5c.7-.2 1.5-.5 2.1-1zm12.6.5h1.3v-7.2h2V80h-2v-1.3c0-1.2.5-1.8 1.4-1.8.3 0 .6.1.9.2v-1.2c-.2-.1-.5-.1-1-.1-.7 0-1.3.2-1.8.7-.6.5-.8 1.2-.8 2.2V80h-1.4v1.1h1.4v7.2zm-42.8-10.4c.2 0 .5-.1.6-.2.2-.2.2-.4.2-.6s-.1-.4-.2-.6-.4-.2-.6-.2-.4.1-.6.2c-.2.2-.2.4-.2.6s.1.5.2.6c.2.1.4.2.6.2zm6.8 10.7a4.38 4.38 0 0 0 2.3-.6v-1.3c-.6.5-1.3.7-2.1.7-.9 0-1.6-.3-2.1-.8-.5-.6-.8-1.3-.8-2.3s.3-1.8.8-2.4 1.2-.9 2.1-.9c.7 0 1.4.2 2 .7v-1.4c-.6-.3-1.2-.4-1.9-.4-1.3 0-2.4.4-3.2 1.3-.8.8-1.2 1.9-1.2 3.3 0 1.2.4 2.2 1.1 3 .8.7 1.8 1.1 3 1.1zm47.6-7.9h.2c.2 0 .4.2.5.5l.3.7h.5l-.4-.8c-.2-.3-.3-.5-.5-.5h0c.2-.1.4-.1.5-.3.1-.1.2-.3.2-.5s-.1-.4-.2-.5c-.2-.2-.4-.2-.8-.2h-.8v2.8h.4l.1-1.2zm0-1.3h.4c.2 0 .4.1.5.1.1.1.1.2.1.4 0 .3-.2.5-.6.5h-.4v-1zm-6.2 6.7c0 1.6.7 2.5 2.2 2.5.5 0 .9-.1 1.3-.3v-1.2c-.2.2-.5.3-.9.3s-.8-.1-1-.4c-.2-.2-.3-.6-.3-1.2v-4.7h2.1V80h-2.1v-2.5c-.5.2-.9.3-1.3.4V80H181v1.1h1.4v5z"/><path d="M189 82.7c.6 0 1.2-.2 1.6-.6s.7-1 .7-1.6-.2-1.2-.7-1.6c-.4-.4-1-.6-1.6-.6s-1.2.2-1.6.6-.6 1-.6 1.6.2 1.2.6 1.6c.5.4 1 .6 1.6.6zm-1.4-3.6c.4-.4.8-.6 1.4-.6s1 .2 1.4.5c.4.4.6.8.6 1.4 0 .5-.2 1-.6 1.4s-.8.6-1.4.6-1-.2-1.4-.5c-.4-.4-.6-.8-.6-1.4.1-.6.3-1.1.6-1.4zm-54 .9h1.3v8.4h-1.3zm20.7 8.6c1.3 0 2.3-.4 3-1.2s1.1-1.9 1.1-3.2-.4-2.4-1-3.2c-.7-.8-1.7-1.2-2.9-1.2-1.3 0-2.3.4-3 1.1-.8.8-1.2 1.9-1.2 3.4 0 1.3.4 2.3 1.1 3.1s1.7 1.2 2.9 1.2zm-1.9-6.9c.5-.5 1.2-.8 2-.8s1.5.3 2 .8.7 1.4.7 2.4-.2 1.8-.7 2.4-1.1.8-2 .8c-.8 0-1.5-.3-2-.8s-.8-1.3-.8-2.4c0-1 .3-1.8.8-2.4zm21.2 5.6c.7-.8 1.1-1.9 1.1-3.2s-.4-2.4-1-3.2c-.7-.8-1.7-1.2-2.9-1.2-1.3 0-2.3.4-3 1.1-.8.8-1.2 1.9-1.2 3.4 0 1.3.4 2.3 1.1 3.1s1.7 1.2 3 1.2c1.1.1 2.1-.3 2.9-1.2zm-5.8-3.1c0-1.1.3-1.9.8-2.5.5-.5 1.2-.8 2-.8s1.5.3 2 .8.7 1.4.7 2.4-.2 1.8-.7 2.4-1.1.8-2 .8c-.8 0-1.5-.3-2-.8s-.8-1.3-.8-2.3zM153.9 109H165v-3.3h-11.1V95.5h11.9v-3.3h-15.5v30.7h16.2v-3.2h-12.6zm16-13.5h8.9v27.4h3.6V95.5h8.8v-3.3h-21.3zm-58.8 23.1a2.19 2.19 0 0 0-1.7.7 2.19 2.19 0 0 0-.7 1.7 2.19 2.19 0 0 0 .7 1.7 2.19 2.19 0 0 0 1.7.7 2.19 2.19 0 0 0 1.7-.7 2.19 2.19 0 0 0 .7-1.7 2.19 2.19 0 0 0-.7-1.7 2.34 2.34 0 0 0-1.7-.7zm36.5-38.3c-.4.3-.7.8-.9 1.4h0V80h-1.3v8.4h1.3v-4.3c0-1 .2-1.7.6-2.3.4-.5.8-.7 1.4-.7.4 0 .8.1 1 .3V80c-.2-.1-.4-.1-.8-.1-.5 0-1 .1-1.3.4zM120 78.2h0l4.4 10.1h.6l4.4-10.1-.1 10.1h1.4V76.7H129l-4.3 9.5-4.2-9.5h-1.8v11.6h1.4zm19.9 40l-16.5-26h-4.7v30.7h3.6V96.6l16.8 26.3h4.4V92.2h-3.6z"/></g></svg>