<svg xmlns="http://www.w3.org/2000/svg" viewBox="0 0 300 200" xmlns:v="https://vecta.io/nano"><path d="M235 91.3c-.5 0-1 .1-1.4.3l-13.4 7.7c-.9.5-1.4 1.4-1.4 2.5v15.5c0 1 .5 1.9 1.4 2.4l3.5 2c1.7.8 2.3.8 3.1.8 2.5 0 4-1.5 4-4.2V103c0-.2-.2-.4-.4-.4h-1.7c-.2 0-.4.2-.4.4v15.3c0 1.2-1.2 2.4-3.2 1.4l-3.6-2.1c-.1-.1-.2-.2-.2-.3v-15.5a.76.76 0 0 1 .2-.4l13.4-7.7c.1-.1.3-.1.4 0l13.4 7.7c.1.1.2.2.2.4v15.5a.76.76 0 0 1-.2.4l-13.4 7.7c-.1.1-.3.1-.4 0l-3.4-2.1c-.1-.1-.2-.1-.3 0-1 .5-1.1.6-2 .9-.2.1-.6.2.1.6l4.5 2.6c.4.2.9.4 1.4.4s1-.1 1.4-.4l13.4-7.7c.9-.5 1.4-1.4 1.4-2.4v-15.5c0-1-.5-1.9-1.4-2.4l-13.4-7.7c-.6-.3-1.1-.4-1.6-.4h0zm3.6 11.1c-3.8 0-6.1 1.6-6.1 4.3 0 2.9 2.3 3.7 5.9 4.1 4.4.4 4.7 1.1 4.7 1.9 0 1.5-1.2 2.1-4 2.1-3.5 0-4.3-.9-4.6-2.6 0-.2-.2-.3-.4-.3h-1.7c-.2 0-.4.2-.4.4 0 2.3 1.2 4.9 7.1 4.9 4.2 0 6.7-1.7 6.7-4.6s-2-3.7-6.1-4.2c-4.2-.6-4.6-.8-4.6-1.8 0-.8.3-1.9 3.4-1.9 2.8 0 3.8.6 4.2 2.5 0 .2.2.3.4.3h1.7c.1 0 .2-.1.3-.1.1-.1.1-.2.1-.3-.2-3.2-2.3-4.7-6.6-4.7h0z" fill="#83cd29"/><path d="M156.1 71c-.1 0-.3 0-.4.1-.3.2-.4.4-.4.7v21.8a.55.55 0 0 1-.3.5c-.2.1-.4.1-.6 0l-3.6-2.1a1.72 1.72 0 0 0-1.7 0l-14.2 8.2c-.5.3-.9.9-.9 1.5v16.4c0 .6.3 1.2.9 1.5l14.2 8.2a1.72 1.72 0 0 0 1.7 0l14.2-8.2c.5-.3.9-.9.9-1.5V77.4c0-.6-.3-1.2-.9-1.5l-8.5-4.7c-.1-.2-.3-.2-.4-.2h0zM64.6 91.5c-.3 0-.5.1-.8.2l-14.2 8.2c-.5.3-.9.9-.9 1.5v22c0 .3.2.6.4.7.3.2.6.2.9 0l8.4-4.8c.5-.3.9-.9.9-1.5v-10.3c0-.6.3-1.2.9-1.5l3.6-2.1c.3-.2.6-.2.9-.2s.6.1.9.2l3.6 2.1c.5.3.9.9.9 1.5v10.3c0 .6.4 1.2.9 1.5l8.4 4.8c.3.2.6.2.9 0s.4-.4.4-.7v-22c0-.6-.3-1.2-.9-1.5l-14.2-8.2c-.2-.1-.5-.2-.8-.2h-.2zm127.8.2c-.3 0-.6.1-.9.2l-14.2 8.2c-.5.3-.9.9-.9 1.5V118c0 .6.3 1.2.9 1.5l14.1 8a1.72 1.72 0 0 0 1.7 0l8.5-4.8c.3-.2.5-.4.5-.7s-.2-.6-.4-.7l-14.3-8.2c-.3-.2-.5-.5-.5-.8v-5.1c0-.3.2-.6.5-.7l4.4-2.6c.3-.2.6-.2.9 0l4.4 2.6c.3.2.4.4.4.7v4c0 .3.2.6.4.7.3.2.6.2.9 0l8.5-5c.5-.3.9-.9.9-1.5v-4c0-.6-.3-1.2-.9-1.5l-14.1-8.2c-.2.1-.5 0-.8 0h0zM149.9 104c.1 0 .2 0 .2.1l4.9 2.8c.1.1.2.2.2.4v5.6c0 .2-.1.3-.2.4l-4.9 2.8c-.1.1-.3.1-.4 0l-4.9-2.8c-.1-.1-.2-.2-.2-.4v-5.6c0-.2.1-.3.2-.4l4.9-2.8c0-.1.1-.1.2-.1h0z" fill="#404137"/><path d="M107.3 91.6c-.3 0-.6.1-.9.2L92.3 100c-.5.3-.9.9-.9 1.5V118c0 .6.3 1.2.9 1.5l14.2 8.2a1.72 1.72 0 0 0 1.7 0l14.2-8.2c.5-.3.9-.9.9-1.5v-16.4c0-.6-.3-1.2-.9-1.5l-14.2-8.2c-.3-.2-.6-.3-.9-.3h0zm85.1 14.7h-.2l-2.7 1.6c-.1.1-.2.2-.2.3v3.1c0 .1.1.2.2.3l2.7 1.6c.1.1.2.1.3 0l2.7-1.6c.1-.1.2-.2.2-.3v-3.1c0-.1-.1-.2-.2-.3l-2.7-1.6h-.1z" fill="#83cd29"/></svg>