<svg xmlns="http://www.w3.org/2000/svg" viewBox="0 0 300 200" xmlns:v="https://vecta.io/nano"><path d="M79.8 72.3h140.4v46.8H150v7.8h-31.2v-7.8h-39V72.3zm7.8 39h15.6V87.9h7.8v23.4h7.8V80.1H87.6v31.2zm39-31.2v39h15.6v-7.8h15.6V80.1h-31.2zm15.6 7.8h7.8v15.6h-7.8V87.9zm23.4-7.8v31.2h15.6V87.9h7.8v23.4h7.8V87.9h7.8v23.4h7.8V80.1h-46.8z" fill="#cb3837"/><path d="M87.6 111.3h15.6V87.9h7.8v23.4h7.8V80.1H87.6zm39-31.2v39h15.6v-7.8h15.6V80.1h-31.2zm23.4 23.4h-7.8V87.9h7.8v15.6zm15.6-23.4v31.2h15.6V87.9h7.8v23.4h7.8V87.9h7.8v23.4h7.8V80.1z" fill="#fff"/></svg>