<svg xmlns="http://www.w3.org/2000/svg" viewBox="0 0 300 200" fill="#39d8ff" xmlns:v="https://vecta.io/nano"><path d="M121.2 86.7l-2.7-.9c.2-.6.3-1.2.4-1.8 2-9.8.7-17.7-3.8-20.3-4.3-2.5-11.4.1-18.5 6.3-.7.6-1.4 1.2-2.1 1.9-.4-.4-.9-.9-1.4-1.3-7.4-6.7-15-9.4-19.5-6.8-4.3 2.5-5.6 10-3.8 19.2.2 1 .3 1.8.6 2.8-1 .3-2.1.6-3 1-8.7 3-14.4 7.9-14.4 12.8 0 5.1 6.1 10.3 15.1 13.4.8.3 1.5.5 2.3.7-.3 1-.4 2-.7 2.9-1.7 9.2-.3 16.4 3.9 18.9 4.4 2.6 11.9-.1 19.2-6.4.6-.5 1.1-1 1.7-1.6.7.7 1.5 1.4 2.3 2.1 7 6.1 14 8.5 18.3 6.1 4.4-2.6 5.9-10.4 4-19.8-.2-.7-.3-1.5-.5-2.3l1.6-.5c9.5-3.1 15.7-8.2 15.7-13.4 0-5.1-5.8-9.9-14.7-13zm-22.4-14c6.1-5.4 11.9-7.4 14.5-6 2.8 1.6 3.9 8 2.1 16.5-.1.5-.3 1.1-.3 1.6-3.6-.9-7.4-1.4-11.1-1.7-2.2-3-4.5-6-7-8.7.6-.5 1.2-1.1 1.8-1.7zm-19 35.4c.9 1.5 1.7 2.9 2.6 4.2-2.6-.3-5.1-.7-7.6-1.2.8-2.5 1.6-4.9 2.7-7.4.8 1.6 1.5 3 2.3 4.4zm-4.9-19.7c2.5-.5 5-1 7.5-1.3-1 1.3-1.8 2.7-2.6 4.2-.8 1.4-1.6 2.9-2.3 4.3a61.85 61.85 0 0 1-2.6-7.2zm4.4 11.3c1.1-2.3 2.3-4.5 3.5-6.7s2.6-4.3 4-6.4a126.78 126.78 0 0 1 15.1 0c1.4 2.1 2.8 4.2 4 6.4 1.3 2.2 2.4 4.4 3.5 6.7-1 2.3-2.3 4.5-3.5 6.7-1.3 2.2-2.6 4.3-4 6.4-2.4.2-5 .3-7.6.3s-5.1-.1-7.5-.3c-1.5-2.1-2.8-4.2-4.1-6.4s-2.3-4.5-3.4-6.7zm29.8 8.4c.9-1.4 1.6-2.9 2.4-4.3 1 2.4 2 4.8 2.8 7.3-2.6.6-5.1 1-7.7 1.3.8-1.5 1.7-2.9 2.5-4.3zm2.3-12.7c-.7-1.4-1.5-2.8-2.3-4.2s-1.6-2.8-2.5-4.2c2.7.3 5.2.8 7.5 1.3-.8 2.4-1.7 4.9-2.7 7.1zM94.5 77c1.7 1.9 3.4 3.8 4.8 5.9a80.11 80.11 0 0 0-9.8 0 141.48 141.48 0 0 1 5-5.9zM75.4 66.9c2.8-1.6 8.9.7 15.4 6.4.4.3.9.8 1.2 1.1-2.5 2.8-4.9 5.7-7.1 8.7-3.7.3-7.4.9-11.1 1.7-.2-.8-.3-1.6-.5-2.5-1.5-7.9-.5-13.9 2.1-15.4zm-4 43.5c-.8-.3-1.5-.5-2.1-.7-3.5-1.1-6.8-2.9-9.7-5.1-2.1-1.7-3.1-3.5-3.1-4.9 0-3 4.5-6.8 12-9.5l2.9-.9c1.1 3.5 2.4 7.1 4.1 10.5a80.06 80.06 0 0 0-4.1 10.6zm19.1 16.2c-2.7 2.3-5.9 4.3-9.3 5.7-2.5.9-4.6 1-5.8.3-2.6-1.5-3.7-7.4-2.3-15.1.2-1 .3-1.8.6-2.8 3.7.8 7.4 1.3 11.2 1.6 2.2 3.1 4.6 6.1 7.1 8.8-.4.5-.9 1-1.5 1.5zm4.1-4.2c-1.7-1.9-3.5-3.9-5-6 1.6.1 3.2.1 4.8.1 1.7 0 3.4 0 5-.1a70.06 70.06 0 0 1-4.8 6zm21.6 5c-.5 2.7-1.5 4.4-2.7 5.1-2.6 1.5-8.2-.4-14.2-5.6-.7-.6-1.4-1.2-2.1-1.9 2.5-2.8 4.8-5.7 6.9-8.8 3.8-.3 7.5-.9 11.3-1.7 0 .8.2 1.4.3 2.1h0c.8 3.5 1 7.1.5 10.8zm2.9-17.7c-.4.2-1 .3-1.4.4-1.1-3.6-2.6-7.1-4.2-10.5 1.6-3.4 2.9-6.8 4.1-10.4.9.3 1.6.5 2.4.8 7.7 2.6 12.4 6.6 12.4 9.5-.1 3.3-5.1 7.4-13.3 10.2zM94.4 92.3c4.1 0 7.4 3.3 7.4 7.4s-3.3 7.4-7.4 7.4-7.4-3.3-7.4-7.4c.1-4.1 3.4-7.4 7.4-7.4m70.1 6.8c3-1 5-3.5 5-7.3v-1c0-5.4-3.9-8-9.3-8h-10.4v28.1h3.5V99.8h7.7l6.3 11.3h3.9l-6.7-12zm-4.5-2.4h0-6.8V86.1h6.8c3.5 0 6.1 1.6 6.1 4.9v.9c0 3.2-2.5 4.8-6.1 4.8zm17.3 6H191v-2.2c0-5.5-3-8.8-8.2-8.8-5.4 0-8.7 3.5-8.7 9.3v1.3c0 5.8 3.4 9.3 8.7 9.3 4.5 0 7.7-2.7 8-6.4h-3.3c-.3 2.2-2 3.6-4.8 3.6-3.5 0-5.5-2.5-5.5-5.7h0v-.4zm0-3v-.6c.2-2.8 2.6-4.9 5.4-4.8 3.5 0 4.9 2.3 4.9 5.1v.4h-10.3v-.1zm25.6-7.9c-4.8 0-7.4 3.4-7.4 6.8h3.3v-.3c.1-2.3 2-3.9 4.2-3.8 2.8 0 4 1.8 4 4.6v1.5a32.53 32.53 0 0 0-4.4-.3c-4.2 0-7.5 1.6-7.5 5.7 0 3.5 2.6 5.5 6.1 5.5 2.3.1 4.4-.8 6-2.3v2h3.3V99.5c-.2-4.9-2.6-7.9-7.6-7.7zm4.2 14.5c-1.3 1.5-3.1 2.3-5.1 2.4-2.3 0-3.7-1-3.7-2.9 0-2 1.7-2.9 4.6-2.9 1.4 0 2.9.1 4.2.3v3.1zm25.2-7.2h-3c-.1-2.6-2.3-4.7-4.8-4.7h-.2c-3.5 0-5.5 2.5-5.5 6.4v1.6c0 3.9 2 6.4 5.5 6.4 2.5.2 4.8-1.7 4.9-4.2v-.1h3.1c-.4 4.4-3.7 7.1-8 7.1-5.4 0-8.8-3.3-8.8-9.3V101c0-6 3.5-9.3 8.8-9.3 4.5-.1 7.7 2.8 8 7.4h0zm14.6 11.9c-1.2.4-2.4.6-3.7.5-3.3 0-5.5-1.9-5.5-6V94.7h-3.5V92h3.5v-6.7h3.3V92h5.6v2.8H241l-.1 10.2c0 2.7 1.2 3.5 3.2 3.5.9 0 1.8-.2 2.6-.5.1 0 .2 3 .2 3z"/></svg>