<svg xmlns="http://www.w3.org/2000/svg" viewBox="0 0 300 200" xmlns:v="https://vecta.io/nano"><path d="M105.1 116.3h-4.2V84h19v4h-14.8v10.6h13.4v3.9h-13.4v13.8zm22.7-27.7c-1 1-2.6 1.2-3.7.4-1.2-.8-1.6-2.3-1.1-3.6s1.9-2 3.3-1.8 2.4 1.5 2.4 2.9c-.1.8-.4 1.6-.9 2.1h0zm0 27.7h-4.2V94.2h4.2v22.1zm9.2 0h-4.2V94.2h4v3.6h.2c.5-1.3 1.4-2.3 2.6-3a8.9 8.9 0 0 1 3.8-1.2c1.1 0 2.1.2 3.1.5l-1.6 3.9a8.33 8.33 0 0 0-2.2-.3c-1.5 0-3 .7-4 1.8-1.2 1.2-1.8 2.8-1.8 4.7l.1 12.1zm21 .7c-3.4 0-6.1-1.1-8.2-3.3s-3.2-5-3.2-8.4c-.1-3.1 1-6 3.1-8.3 2-2.3 4.8-3.6 7.9-3.5 3.3 0 6 1.1 7.9 3.2s3 5 3 8.6v.8h-17.6c.1 2.2.9 4 2.3 5.3 1.3 1.3 3 2 4.8 1.9 3 0 5-1.3 6.1-3.8l3.7 1.5c-.8 1.8-2 3.2-3.6 4.3-1.7 1.2-3.7 1.7-6.2 1.7h0zm6.1-14.4c-.1-1.3-.7-2.5-1.8-3.6s-2.7-1.7-4.8-1.7c-1.5 0-2.9.5-4 1.4-1.2 1-2 2.4-2.3 3.9h12.9zm19.6 14.4c-1.6 0-3.2-.3-4.6-1.1-1.2-.6-2.3-1.6-3-2.7h-.2v3.1h-4V84h4.2v10.2l-.2 3.1h.2c.7-1.2 1.8-2.1 3-2.7a10.39 10.39 0 0 1 4.6-1.1c2.9 0 5.4 1.1 7.5 3.4s3.1 5.1 3.1 8.4-1 6.1-3.1 8.4c-2.2 2.2-4.7 3.3-7.5 3.3h0zm-.7-3.8c1.9 0 3.7-.8 5-2.2 1.4-1.5 2.1-3.4 2.1-5.8s-.7-4.3-2.1-5.8c-1.3-1.4-3.1-2.2-5-2.2s-3.7.8-5 2.2c-1.4 1.4-2.1 3.4-2.1 5.8s.7 4.4 2.1 5.8c1.2 1.5 3.1 2.3 5 2.2h0zm21.9 3.8c-2.4 0-4.4-.7-5.9-2-1.6-1.4-2.4-3.1-2.4-5.4 0-2.4.9-4.3 2.8-5.7s4.2-2.1 7-2.1c2.5 0 4.5.5 6 1.4v-.6c.1-1.5-.6-2.9-1.7-3.9s-2.6-1.5-4.1-1.5c-1.2 0-2.3.3-3.3.9-.9.5-1.7 1.4-2 2.4l-3.8-1.6c.5-1.3 1.5-2.6 3.1-3.7 1.5-1.1 3.5-1.7 6-1.7 2.8 0 5.2.8 7.1 2.5s2.8 4 2.8 7v13.4h-4v-3.1h-.2c-1.7 2.5-4.2 3.7-7.4 3.7h0zm.7-3.8c1.8 0 3.5-.7 4.7-1.9 1.3-1.1 2.1-2.8 2.1-4.5-1.2-1-3-1.4-5.3-1.4-2 0-3.6.4-4.6 1.3-1 .7-1.5 1.9-1.5 3.1 0 1 .5 2 1.4 2.6 1 .5 2.1.9 3.2.8h0zm23.2 3.8c-2.5 0-4.5-.6-6.2-1.8-1.6-1.2-2.8-2.7-3.6-4.5l3.7-1.5c1.2 2.8 3.2 4.2 6 4.2 1.1 0 2.2-.3 3.2-.9.8-.5 1.3-1.3 1.3-2.3 0-1.4-1-2.4-3.1-2.9l-4.5-1.1a10.67 10.67 0 0 1-4.1-2.1c-1.3-1-2-2.5-1.9-4.1 0-2 .9-3.5 2.6-4.8 1.8-1.2 4-1.9 6.2-1.8 1.8 0 3.7.4 5.3 1.3 1.5.9 2.7 2.2 3.3 3.8l-3.6 1.5c-.8-2-2.5-2.9-5.1-2.9-1.1 0-2.2.2-3.1.8a2.33 2.33 0 0 0-1.3 2.1c0 1.3 1 2.1 3 2.6l4.4 1c2.1.5 3.6 1.3 4.6 2.5 1 1.1 1.5 2.5 1.5 4a6.3 6.3 0 0 1-2.5 5c-1.4 1.3-3.5 1.9-6.1 1.9h0zm22.5 0c-3.4 0-6.1-1.1-8.2-3.3s-3.2-5-3.2-8.5c-.1-3.1 1-6 3.1-8.3 2-2.3 4.8-3.5 7.9-3.5 3.3 0 6 1.1 7.9 3.2 2 2.1 3 5 3 8.6v.8h-17.6c.1 2.2.9 4 2.3 5.3 1.3 1.3 3 2 4.9 1.9 3 0 5-1.3 6.1-3.8l3.7 1.5c-.8 1.8-2 3.2-3.6 4.3-1.8 1.3-3.9 1.8-6.3 1.8h0zm6-14.4c-.1-1.3-.7-2.5-1.8-3.6s-2.7-1.7-4.8-1.7c-1.5 0-2.9.5-4 1.4-1.2 1-2 2.4-2.3 3.9h12.9z" opacity=".54" enable-background="new"/><path d="M38.2 118.8l7.7-49.3a1.49 1.49 0 0 1 1.2-1.2c.6-.1 1.2.2 1.5.7l8 14.9 3.2-6c.2-.5.7-.8 1.3-.8.5 0 1 .3 1.3.8l21.5 40.9H38.2z" fill="#ffa000"/><path d="M64.8 99.6l-8.3-15.7-18.3 34.9 26.6-19.2z" fill="#f57c00"/><path d="M83.8 118.8l-5.9-36.5c-.1-.5-.5-1-1-1.1-.5-.2-1.1 0-1.4.3l-37.2 37.3 20.6 11.5c1.3.7 2.9.7 4.2 0l20.7-11.5z" fill="#ffca28"/><path d="M77.9 82.3c-.1-.5-.5-1-1-1.1-.5-.2-1.1 0-1.4.3l-7.4 7.4-5.8-11.1c-.2-.5-.7-.8-1.3-.8s-1 .3-1.3.8l-3.2 6-8-14.9c-.3-.5-.9-.8-1.5-.7a1.49 1.49 0 0 0-1.2 1.2l-7.7 49.3.2.1 37-37c.4-.4.9-.5 1.4-.4.5.2.9.6 1 1.1l5.9 36.2h.1l-5.8-36.4zm-39.6 36.4l7.6-48.9a1.49 1.49 0 0 1 1.2-1.2c.6-.1 1.2.2 1.5.7l8 14.9 3.2-6c.2-.5.7-.8 1.3-.8.5 0 1 .3 1.3.8L68.1 89l-29.8 29.7z" fill="#fff" fill-opacity=".2"/><path d="M63 130c-1.3.7-2.9.7-4.2 0l-20.5-11.5v.3l20.6 11.5c1.3.7 2.9.7 4.2 0l20.8-11.5-.1-.3L63 130z" opacity=".2" fill="#a52714" enable-background="new"/><linearGradient id="A" gradientUnits="userSpaceOnUse" x1="36.723" y1="90.242" x2="84.052" y2="115.202"><stop offset="0" stop-color="#fff" stop-opacity=".1"/><stop offset=".14" stop-color="#fff" stop-opacity=".08"/><stop offset=".61" stop-color="#fff" stop-opacity=".02"/><stop offset="1" stop-color="#fff" stop-opacity="0"/></linearGradient><path d="M77.8 82.3c-.1-.5-.5-1-1-1.1-.5-.2-1.1 0-1.4.3L68 88.9l-5.8-11.1c-.2-.5-.7-.8-1.3-.8-.5 0-1 .3-1.3.8l-3.2 6-7.9-14.9c-.3-.5-.9-.8-1.5-.7a1.49 1.49 0 0 0-1.2 1.2l-7.7 49.3 20.5 11.5c1.3.7 2.9.7 4.1 0l20.7-11.5-5.6-36.4z" fill="url(#A)"/></svg>