<svg xmlns="http://www.w3.org/2000/svg" viewBox="0 0 300 200" xmlns:v="https://vecta.io/nano"><path d="M188 59.1h-40c0 10 8.1 18 18 18h7.4v7.1c0 10 8.1 18 18 18V62.6c.1-1.9-1.5-3.5-3.4-3.5z" fill="#2684ff"/><linearGradient id="A" gradientUnits="userSpaceOnUse" x1="170.848" y1="78.954" x2="153.91" y2="96.697"><stop offset=".18" stop-color="#0052cc"/><stop offset="1" stop-color="#2684ff"/></linearGradient><path d="M168.3 79h-40c0 10 8.1 18 18 18h7.4v7.1c0 10 8.1 18 18 18V82.5c0-1.9-1.5-3.5-3.4-3.5h0z" fill="url(#A)"/><linearGradient id="B" gradientUnits="userSpaceOnUse" x1="152.192" y1="98.935" x2="132.567" y2="118.324"><stop offset=".18" stop-color="#0052cc"/><stop offset="1" stop-color="#2684ff"/></linearGradient><path d="M148.5 98.9h-40c0 10 8.1 18 18 18h7.4v7.1c0 9.9 8.1 18 18 18v-39.7a3.44 3.44 0 0 0-3.4-3.4h0z" fill="url(#B)"/></svg>