<svg xmlns="http://www.w3.org/2000/svg" viewBox="0 0 300 200" xmlns:v="https://vecta.io/nano"><path d="M202.9 99.6c0-4-1.5-7.9-4.5-11h0c-3-3-7-4.5-11-4.5 2.8-2.8 4.6-6.7 4.6-11 0-8.6-7-15.5-15.5-15.5-4.3 0-8.2 1.7-11 4.6h0c0-4.1-1.6-8-4.5-11-2.9-2.9-6.8-4.5-11-4.5-4.1 0-8 1.6-11 4.5-3 3-4.5 7-4.5 11-2.8-2.8-6.7-4.6-11-4.6-8.6 0-15.5 7-15.5 15.5 0 4.3 1.7 8.2 4.6 11-4 0-7.9 1.5-11 4.5-2.9 2.9-4.5 6.8-4.5 11h0V137c0 8.8 6.7 15.5 15.5 15.5h74.9c8.8 0 15.5-6.7 15.5-15.5l-.1-37.4z"/><path d="M194 95.3a8.39 8.39 0 0 0-11.9 0h-17.2L177 83.2c4.6 0 8.4-3.8 8.4-8.4s-3.8-8.4-8.4-8.4-8.4 3.8-8.4 8.4l-12.2 12.1V69.7a8.39 8.39 0 1 0-11.9-11.9 8.39 8.39 0 0 0 0 11.9v17.2l-12.1-12.2c0-4.6-3.8-8.4-8.4-8.4s-8.4 3.8-8.4 8.4 3.8 8.4 8.4 8.4l12.1 12.1h-17.2a8.39 8.39 0 1 0-11.9 11.9 8.39 8.39 0 0 0 11.9 0h17.2L124 119.3c-4.6 0-8.4 3.8-8.4 8.4s3.8 8.4 8.4 8.4 8.4-3.8 8.4-8.4l12.1-12.1v17.2a8.39 8.39 0 1 0 11.9 11.9 8.39 8.39 0 0 0 0-11.9v-17.2l12.1 12.1c0 4.6 3.8 8.4 8.4 8.4s8.4-3.8 8.4-8.4-3.8-8.4-8.4-8.4l-12.1-12.1H182a8.39 8.39 0 0 0 11.9 0 8.3 8.3 0 0 0 .1-11.9z" fill="#ffb13b"/><path d="M97,99.6h106V137c0,8.8-6.7,15.5-15.5,15.5h-74.9c-8.8,0-15.5-6.7-15.5-15.5V99.6z" opacity=".75" enable-background="new"/><path d="M113 126c-2.4-2.4-4-6-4-9.6 0-7.6 6.2-13.8 13.8-13.8s13.8 6.2 13.8 13.8h-8c0-3.2-2.6-5.6-5.6-5.6-3.2 0-5.6 2.6-5.6 5.6 0 1.6.6 3 1.6 4h0c1 1 1.8 1.4 4 1.6h0c3.8.4 7.2 1.6 9.8 4h0c2.4 2.4 4 6 4 9.6 0 7.6-6.2 13.8-13.8 13.8s-13.8-6.2-13.8-13.8h8c0 3.2 2.6 5.6 5.6 5.6s5.6-2.6 5.6-5.6c0-1.6-.6-3-1.6-4h0c-1-1-2.6-1.4-4-1.6h0c-3.8-.6-7.4-1.4-9.8-4h0zm50.8-23.4l-9.8 46.8h-8l-9.6-46.8h8L150 130l5.6-27.4h8.2zm13.8 19.4h13.8v13.8c0 7.6-6.2 13.8-13.8 13.8s-13.8-6.2-13.8-13.8h0v-19.4c0-7.6 6.2-13.8 13.8-13.8s13.8 6.2 13.8 13.8h-8c0-3.2-2.6-5.6-5.6-5.6-3.2 0-5.6 2.6-5.6 5.6v19.4c0 3.2 2.6 5.6 5.6 5.6 3.2 0 5.6-2.6 5.6-5.6h0V130h-5.6v-8h-.2z" fill="#fff"/></svg>