<?xml version="1.0" encoding="utf-8"?>
<!-- Generator: Adobe Illustrator 24.1.3, SVG Export Plug-In . SVG Version: 6.00 Build 0)  -->
<svg version="1.1" id="Layer_1" xmlns:v="https://vecta.io/nano"
	 xmlns="http://www.w3.org/2000/svg" xmlns:xlink="http://www.w3.org/1999/xlink" x="0px" y="0px" viewBox="0 0 225 150"
	 style="enable-background:new 0 0 225 150;" xml:space="preserve">
<style type="text/css">
	.st0{fill:#CB3837;}
	.st1{fill:#FFFFFF;}
</style>
<path class="st0" d="M42.3,52.3h140.4v46.8h-70.2v7.8H81.3v-7.8h-39C42.3,99.1,42.3,52.3,42.3,52.3z M50.1,91.3h15.6V67.9h7.8v23.4
	h7.8V60.1H50.1V91.3z M89.1,60.1v39h15.6v-7.8h15.6V60.1H89.1L89.1,60.1z M104.7,67.9h7.8v15.6h-7.8V67.9z M128.1,60.1v31.2h15.6
	V67.9h7.8v23.4h7.8V67.9h7.8v23.4h7.8V60.1H128.1L128.1,60.1z"/>
<path class="st1" d="M50.1,91.3h15.6V67.9h7.8v23.4h7.8V60.1H50.1V91.3z M89.1,60.1v39h15.6v-7.8h15.6V60.1
	C120.3,60.1,89.1,60.1,89.1,60.1z M112.5,83.5h-7.8V67.9h7.8V83.5z M128.1,60.1v31.2h15.6V67.9h7.8v23.4h7.8V67.9h7.8v23.4h7.8V60.1
	H128.1z"/>
</svg>
