<svg xmlns="http://www.w3.org/2000/svg" xmlns:xlink="http://www.w3.org/1999/xlink" viewBox="0 0 300 200" xmlns:v="https://vecta.io/nano"><path d="M63.5 93.5C60.4 79.7 53.8 76 52.2 73.4a20.17 20.17 0 0 1-1.8-3.6c-.1 1.2-.3 2-1.3 2.9-2.1 1.9-11 9.1-11.8 24.9-.7 14.7 10.8 23.7 12.3 24.6 1.2.6 2.6 0 3.3-.5 5.5-3.7 13.1-13.9 10.6-28.2" fill="#10aa50"/><path d="M50.8 114.5c-.3 3.6-.5 5.7-1.2 7.8l.8 7.1h1.2c.3-2.6.7-5.1 1.3-7.7-1.5-.7-2-4-2.1-7.2z" fill="#b8c4c2"/><path d="M52.9 121.7h0c-1.6-.7-2-4.1-2.1-7.3a136.69 136.69 0 0 0 .3-15.7c-.1-2.7 0-25.4-.7-28.7.5 1.1 1.1 2.2 1.7 3.3 1.7 2.6 8.2 6.3 11.3 20.1 2.6 14.4-5 24.5-10.5 28.3z" fill="#12924f"/><g fill="#21313c"><path d="M259.3 116.7a3.4 3.4 0 1 1 0-6.8 3.37 3.37 0 0 1 3.4 3.4c0 1.9-1.4 3.4-3.3 3.4h-.1m0-6.5a3.12 3.12 0 0 0-3.1 3.1 3.12 3.12 0 0 0 3.1 3.1 3.12 3.12 0 0 0 3.1-3.1c.1-1.6-1.3-3-3.1-3.1h0m.9 5.3l-.9-1.9h-.7v1.9h-.5v-4.3h1.3c.9 0 1.3.4 1.3 1.2 0 .6-.3 1-.9 1.1l.9 1.9-.5.1zm-1.6-2.4h.7c.6 0 .8-.2.8-.8s-.2-.7-.9-.7h-.7v1.5zm-49.9.5c.9.7 2.8 1 4.4 1 2.1 0 4.2-.4 6.2-2.2 2.1-1.9 3.5-4.7 3.5-9.3 0-4.4-1.7-7.9-5.1-10-1.9-1.2-4.4-1.7-7.3-1.7-.8 0-1.7 0-2.1.3-.2.2-.3.4-.4.6-.1.8-.1 6.7-.1 10.2l.1 9.2c0 .6.3 1.6.8 1.9m-8.7-24c.7 0 3.6.1 4.9.1l8.8-.1c3.9 0 7.1 1 9.4 3 2.8 2.4 4.3 5.8 4.3 9.9 0 5.8-2.7 9.2-5.3 11.1-2.7 2-6.1 3.1-11.1 3.1-2.6 0-7.1-.1-10.9-.1h-.1c-.2-.3.3-1.7.6-1.7 1-.1 1.3-.2 1.8-.4.8-.3 1-.7 1.1-2.2.1-2.7.1-5.9.1-9.5v-9.3c-.1-1.3-.7-1.7-1.8-1.9-.8-.2-1.6-.3-2.5-.4-.2-.2.5-1.4.7-1.6m38.2 2.1c-.2 0-.4.5-.4.7l-.1 8.4c0 .1.1.2.2.2l3.2.1c1.7 0 2.6-.2 3.2-.5 1.4-.7 2.1-2.2 2.1-3.9 0-3.8-2.6-5.2-6.5-5.2-.6.2-1.2.2-1.7.2m9.9 17.4c0-3.8-2.8-6-7.9-6H238c-.1 0-.3.1-.3.2l.1 8.8c.1.7.6 1.8 1.3 2.1.7.4 2.3.5 3.4.5 3 0 5.6-1.6 5.6-5.6m-17.8-19.5l4.5.1 7.8-.1c3.4 0 8 1.2 8 6.2 0 2.5-1.8 4.5-4 5.4-.1 0-.1.1 0 .2 3.2.8 6.1 2.8 6.1 6.6 0 3.7-2.3 6.1-5.7 7.5-2.1.9-4.6 1.2-7.2 1.2-2 0-7.3-.2-10.2-.2-.3-.1.3-1.5.5-1.7.7 0 1.3-.1 2-.3 1-.3 1.2-.6 1.3-2.2.1-1.3.1-6.2.1-9.6v-9.4c0-1.2-.5-1.6-1.3-1.8l-2.6-.4c-.2 0 .5-1.3.7-1.5M73.2 116.7c-.1-.3-.2-.6-.1-.9 0-.2 0-.4.1-.6l1.7-.3c.8-.2 1.1-.6 1.1-1.6l.1-9.9c0-.3 0-.8-.4-1.1-.7-.5-1.5-.8-2.3-1-.4-.1-.6-.3-.6-.5s.2-.5.7-.6c1.3-.1 4.6-.9 5.9-1.5.1.2.2.4.2.6v.4c0 .4-.1.9-.1 1.4 0 .2.2.3.4.3.1 0 .1 0 .2-.1 2.5-1.9 4.7-2.6 5.9-2.6 1.9 0 3.3.9 4.5 2.7.1.1.1.1.3.1.1 0 .2 0 .2-.1 2.3-1.7 4.6-2.8 6.1-2.8 3.6 0 5.7 2.7 5.7 7.2v8c0 .2.3.8.7.9.5.3 1.3.4 2.2.6h0c.1.3-.1 1.3-.2 1.5h-1c-.7 0-1.8-.1-3-.1l-4.8.1c-.1-.3-.1-1.3 0-1.5l1.5-.3c.8-.3 1-.6 1-1.6l-.1-8.5c-.2-1.6-1.4-3.4-4-3.4-.9 0-2.5.4-3.9 1.5-.1.1-.1.2-.1.4h0c.2.8.2 1.8.2 3.2v7.1c0 .8.5 1 .9 1.2.2 0 .4.1.6.1.3.1.7.2 1.2.3.1.4.1.7 0 1.1a.76.76 0 0 1-.2.4c-1.3 0-2.7-.1-4.6-.1h-4.1c-.1-.2-.1-.5-.1-.8 0-.2 0-.5.1-.7l.5-.1c.5-.1.9-.2 1.2-.2.6-.2.9-.6.9-1.4.1-1.9.2-7.5 0-8.9-.5-2.2-1.7-3.4-3.8-3.4-1.2 0-2.7.6-3.9 1.5-.2.2-.4.6-.4.9v10.1c0 .5.2 1 1.1 1.2.2.1.5.1.9.2.2 0 .5.1.7.1.1.5 0 1-.1 1.5h-1.4c-.8 0-1.8-.1-3-.1l-3.1.1h-1.5"/><use xlink:href="#B"/><use xlink:href="#B" x="67"/><path d="M162 100.4c-2 0-3.3 1.6-3.3 4.1s1.1 5.4 4.3 5.4c.5 0 1.5-.2 2-.8.7-.7 1.2-2.1 1.2-3.6 0-3.2-1.5-5.1-4.2-5.1m-.2 17.1c-.6 0-1.1.1-1.6.4-1.6 1-2.3 2.1-2.3 3.2s.4 2 1.4 2.8c1.1 1 2.6 1.4 4.6 1.4 3.9 0 5.7-2.1 5.7-4.2 0-1.5-.7-2.4-2.2-3-1.3-.4-3.3-.6-5.6-.6m.2 10c-2.4 0-4.1-.5-5.5-1.6s-2.1-2.7-2.1-3.8c0-.7.3-1.4.8-1.9.4-.5 1.4-1.3 3.6-2.9.1 0 .1-.1.1-.2s-.1-.2-.1-.2c-1.8-.7-2.4-1.8-2.5-2.5v-.1c-.1-.2-.1-.5.2-.7l1.1-.7c.6-.3 1.2-.7 1.8-1.1.1-.1.1-.3 0-.4h-.1c-2.7-.9-4-2.9-4-5.9 0-1.9.9-3.7 2.5-4.9 1.1-.9 3.8-1.9 5.5-1.9h.1c1.8 0 2.8.4 4.2.9.8.3 1.7.4 2.5.4 1.5 0 2.1-.5 2.7-1 .1.2.1.5.1.8 0 .6-.1 1.3-.5 1.8-.3.4-1 .7-1.7.7h-.2c-.3 0-.7-.1-1-.2l-.2.1c-.1.1 0 .2 0 .3v.1c.1.5.2 1.1.2 1.7 0 3.2-1.3 4.6-2.6 5.6s-2.9 1.6-4.5 1.7h0-1c-.3.1-1.1.4-1.1 1.1 0 .6.3 1.3 2 1.4l1.1.1c2.2.2 4.9.3 6.2.8 1.8.6 2.9 2.3 2.9 4.2 0 2.9-2 5.5-5.4 7.2-1.5.7-3.3 1.1-5.1 1.1m-10-12.3c-1-.1-1.7-.3-2.5-.6-.2-.2-.3-.4-.3-.6-.1-1.3-.1-5.2-.1-7.8 0-2.1-.3-3.9-1.2-5.2-1.1-1.5-2.5-2.3-4.5-2.3-1.7 0-4 1.2-5.9 2.8 0 0-.3.3-.3-.1s.1-1.3.1-1.8c0-.3-.1-.6-.3-.8-1.2.6-4.7 1.4-6 1.6-.9.2-1.2 1.1-.2 1.4h0c.8.2 1.6.6 2.3 1 .4.3.4.7.4 1.1l-.1 9.8c0 1-.3 1.3-1 1.5h.1l-1.6.3c-.2.2-.2 1.5 0 1.7l4.5-.1 4.5.1c.3-.3.4-1.5.2-1.7-.6 0-1.2-.1-1.8-.3-.7-.2-.9-.5-.9-1.3l-.1-9.3c0-.8.2-1.2.5-1.4.9-.8 2.3-1.3 3.6-1.3 1.2 0 2.1.4 2.7.9.7.6 1.2 1.5 1.3 2.4.2 1.6.1 4.9.1 7.8 0 1.6-.1 2-.7 2.1a5.94 5.94 0 0 1-1.8.3c-.3.3-.2 1.5 0 1.7l4.4-.1 4.6.1c.1-.5.1-1.6 0-1.9"/></g><defs ><path id="B" d="M117.2 100.5c-.7 0-1.5.2-2.1.6-1.5.9-2.3 2.8-2.3 5.5 0 5.1 2.5 8.6 6.2 8.6 1 0 1.9-.3 2.7-.9 1.1-.9 1.7-2.8 1.7-5.4 0-5-2.5-8.4-6.2-8.4m.7 16.6c-6.6 0-8.9-4.8-8.9-9.3 0-3.2 1.3-5.6 3.8-7.3 1.8-1.1 3.8-1.7 5.9-1.8 5 0 8.5 3.6 8.5 8.8 0 3.5-1.4 6.3-4.1 8-1.2.8-3.4 1.6-5.2 1.6"/></defs></svg>