<?xml version="1.0" encoding="utf-8"?>
<!-- Generator: Adobe Illustrator 24.1.3, SVG Export Plug-In . SVG Version: 6.00 Build 0)  -->
<svg version="1.1" id="Layer_1" xmlns:v="https://vecta.io/nano"
	 xmlns="http://www.w3.org/2000/svg" xmlns:xlink="http://www.w3.org/1999/xlink" x="0px" y="0px" viewBox="0 0 225 150"
	 style="enable-background:new 0 0 225 150;" xml:space="preserve">
<style type="text/css">
	.st0{fill:#2E001E;}
	.st1{fill:#FF2BC2;}
</style>
<path class="st0" d="M66.7,30h91.7v89.2H66.7V30z"/>
<path class="st1" d="M62.5,25.9v97.5h100V25.9H62.5z M66.7,30h91.7v89.2H66.7V30z M135.1,66.8c-0.6-0.3-1.4-0.4-2.4-0.4
	c-5.3,0-8.8,4-8.8,10.8c0,7.7,3.6,10.8,8.3,10.8c1,0,2.1-0.1,2.9-0.5V66.8z M116.5,77.5c0-9.7,6.3-17.3,16.5-17.3
	c0.9,0,1.3,0,2.2,0.1V49.4c0-0.3,0.2-0.4,0.4-0.4h6.7c0.3,0,0.4,0.1,0.4,0.3v38.1c0,1.1,0,2.5,0.2,4.1c0,0.3,0,0.3-0.3,0.5
	c-3.5,1.7-7.2,2.4-10.7,2.4C122.9,94.4,116.5,88.8,116.5,77.5L116.5,77.5L116.5,77.5z M102.3,70.7L114,93.3c0.2,0.3,0.1,0.7-0.3,0.7
	h-7.3c-0.5,0-0.7-0.1-0.9-0.5l-8.2-17.1h-0.1l-7.9,17.2c-0.2,0.3-0.4,0.5-0.8,0.5h-6.9c-0.4,0-0.5-0.3-0.3-0.6l11.4-22l-11-21.8
	c-0.3-0.3,0-0.6,0.3-0.6h7.2c0.4,0,0.6,0.1,0.8,0.5l7.8,16.6h0.1c2.4-5.5,5.1-11,7.6-16.5c0.2-0.3,0.3-0.5,0.8-0.5h6.7
	c0.3,0,0.5,0.3,0.3,0.6L102.3,70.7z"/>
</svg>
