<svg xmlns="http://www.w3.org/2000/svg" viewBox="0 0 300 200" xmlns:v="https://vecta.io/nano"><path d="M91.024 122.75l15.774-2.793.147-.032-8.116-9.65-8.116-9.695c0-.048 8.378-23.117 8.426-23.2.016-.028 5.717 9.814 13.82 23.86l14.007 24.275-51.573-.008c.004.004 15.63-2.757 15.63-2.757zm98.886-2.335c-3.926-.25-6.206-2.486-6.815-6.67-.16-1.114-.163-1.142-.18-8.366l-.016-6.994h3.477l.012 6.763.08 7.24c.235 1.738.708 2.912 1.508 3.75.64.672 1.392 1.066 2.43 1.273.49.1 1.886.1 2.33 0 1.054-.23 1.898-.692 2.646-1.436.85-.847 1.476-2.053 1.782-3.417l.103-.457.024-13.645h3.55v21.442h-3.51v-1.703c0-1.158-.012-1.7-.04-1.687-.02.008-.11.143-.2.306-.605 1.102-1.61 2.112-2.717 2.72-1.325.736-2.653.995-4.468.88h0zm39.842-.016c-1.384-.103-2.844-.58-4.038-1.317-2.514-1.555-4.002-4.117-4.436-7.642-.15-1.22-.167-2.86-.044-3.895.282-2.315 1.19-4.59 2.486-6.214.334-.418 1.086-1.17 1.504-1.504a9.36 9.36 0 0 1 3.835-1.83c.812-.18 2.248-.263 3.11-.183 2.172.203 4.16 1.22 5.514 2.832 1.372 1.635 2.128 3.92 2.224 6.73.016.442.02 1.213.008 1.72l-.02.915-15.205.016v.338c0 1.034.25 2.208.684 3.2.374.863 1.018 1.806 1.548 2.264 1.082.935 2.407 1.496 3.855 1.63.537.052 1.906-.004 2.518-.095 1.746-.267 3.405-.955 4.75-1.957l.334-.247c.04-.024.048.286.048 1.583v1.615l-.358.223c-1.516.94-3.254 1.54-5.096 1.766-.553.06-2.566.088-3.222.04h0zm6.616-13.613c0-1.73-.728-3.652-1.762-4.643-.736-.708-1.627-1.138-2.685-1.3-.5-.076-1.555-.048-2.085.06-1.114.227-2.037.716-2.844 1.512-.847.835-1.484 1.854-1.882 3.01a9.75 9.75 0 0 0-.362 1.48l-.024.183h11.64v-.302zm-103.135 13.072c.008-.028 2.6-6.81 5.737-15.073l5.72-15.026h3.676l.15.4 11.453 29.737c0 .008-.88.016-1.957.016h-1.957l-3.167-8.434h-12.754l-.056.143c-.032.08-.708 1.977-1.504 4.217l-1.448 4.074h-1.96c-1.54.004-1.945-.004-1.933-.044h0zm18.5-11.6c0-.008-1.066-2.896-2.367-6.42-2.44-6.592-2.574-7-2.765-8.048-.09-.497-.135-.51-.19-.056a10.32 10.32 0 0 1-.334 1.448 902.57 902.57 0 0 1-2.439 6.691l-2.323 6.36c0 .02 2.343.032 5.207.032l5.21-.008zm9.428 11.1v-.55l12.706-17.464-11.505-.04-.024-2.92h16.637v.987l-12.706 17.58c0 .008 2.825.02 6.278.02h6.278v2.936H161.16v-.55zm46.613.525c-.016-.016-.024-4.857-.024-10.76V98.388h3.47v2.212l.032 2.212c.02 0 .103-.2.187-.442.4-1.118 1.066-2.16 1.94-2.988a5.01 5.01 0 0 1 2.745-1.365c.298-.048.55-.056 1.146-.04.748.02 1.138.076 1.59.223l.143.048v3.604l-.4-.207c-.724-.362-1.44-.505-2.3-.46-.56.028-.927.1-1.372.27-.92.346-1.667.955-2.188 1.786a10.38 10.38 0 0 0-1.452 4.177c-.028.255-.044 2.335-.052 6.437l-.008 6.06h-1.71l-1.738-.032zm-147.695-.076c0-.012 3.823-6.652 8.497-14.747l8.497-14.723 19.835-16.633c.02-.008-.056.175-.16.402l-21.307 45.7-7.678.008c-4.23.004-7.686-.004-7.686-.016z" fill="#0089d6"/></svg>