<svg xmlns="http://www.w3.org/2000/svg" viewBox="0 0 300 200" xmlns:v="https://vecta.io/nano"><path d="M199.6 76.6c0-1.9-.4-3.5-1.2-5-.8-1.4-2-2.6-3.6-3.5l-39.7-22.9c-3.6-2-7-2-10.6.1L105 68.1c-3.2 1.9-4.8 4.7-4.8 8.5v46c0 1.8.4 3.5 1.2 4.9s2 2.7 3.6 3.6l39.5 22.8c3.5 2.1 7 2.2 10.6.1l39.7-22.9c1.7-.9 2.8-2.1 3.6-3.6.8-1.4 1.2-3 1.2-4.9v-46" fill="#9a4993"/><g fill="#6a1577"><path d="M150.1 99.4l-48.7 28c.8 1.4 2 2.7 3.6 3.6l39.5 22.8c3.5 2.1 7 2.2 10.6.1l39.7-22.9c1.7-.9 2.8-2.1 3.6-3.6l-48.3-28"/><path d="M135.7 107.7c2.8 5 8.2 8.3 14.3 8.3s11.5-3.4 14.3-8.4l-14.2-8.2-14.4 8.3"/></g><path d="M199.6 76.6c0-1.9-.4-3.5-1.2-5l-48.3 27.8 48.4 28c.8-1.4 1.2-3 1.2-4.9-.1.1-.1-30.6-.1-45.9" fill="#813084"/><path d="M164.3 107.6c-2.8 5-8.2 8.4-14.3 8.4s-11.4-3.3-14.3-8.3a16.12 16.12 0 0 1-2.2-8.1c0-9.1 7.3-16.4 16.4-16.4 6.1 0 11.3 3.3 14.2 8.2l14.3-8.3c-5.7-9.9-16.4-16.5-28.6-16.5-18.2 0-33 14.8-33 33 0 6 1.6 11.6 4.4 16.4 5.7 9.9 16.4 16.6 28.6 16.6 12.3 0 23-6.7 28.7-16.6l-14.2-8.4m28-9.9v-3.3h-2.7v-2.7h-3.3v2.7h-4v-2.7H179v2.7h-2.7v3.3h2.7v4h-2.7v3.3h2.7v2.7h3.3V105h4v2.7h3.3V105h2.7v-3.3h-2.7v-4h2.7zm-5.9 4h-4v-4h4v4z" fill="#fff"/></svg>