<svg xmlns="http://www.w3.org/2000/svg" viewBox="0 0 300 200" xmlns:v="https://vecta.io/nano"><path d="M69.4,68.6l27.4,15.5v31l-27.4,15.5L42,115.1v-31L69.4,68.6z" fill="#fff"/><path d="M92 114.1l-21.6 12.2v-9.5l13.5-7.4 8.1 4.7zm1.5-1.4V87.1l-7.9 4.6v16.4l7.9 4.6zm-46.7 1.4l21.6 12.2v-9.5L55 109.4l-8.2 4.7zm-1.5-1.4V87.1l7.9 4.6v16.4l-7.9 4.6zm1-27.2L68.5 73v9.2L54.2 90h-.1l-7.8-4.5zm46.2 0L70.3 72.9v9.2L84.6 90l.1.1 7.8-4.6z" fill="#8ed6fb"/><path d="M68.4 114.6l-13.3-7.3V92.8l13.3 7.7v14.1zm1.9 0l13.3-7.3V92.8l-13.3 7.7v14.1zM56 91.1l13.3-7.3 13.3 7.3-13.3 7.7L56 91.1z" fill="#1c78c0"/><path d="M124.5 109.4h5.8l6-19.9h-5.7l-3.5 14.1-3.8-14.1h-4.9l-3.8 14.1-3.5-14.1h-5.7l5.9 19.9h5.8l3.7-12.7 3.7 12.7zm12.2-9.9c0 6 4.1 10.4 10.5 10.4 4.9 0 7.6-3 8.4-4.4l-3.5-2.6c-.6.8-2.1 2.4-4.8 2.4-2.9 0-5.1-1.9-5.2-4.6h14v-1.1c0-6.5-3.5-10.6-9.6-10.6-5.8.1-9.8 4.5-9.8 10.5h0zm5.5-2.1c.2-2.3 1.8-4 4.3-4 2.4 0 4.1 1.6 4.3 4h-8.6zm15.8 12h4.9v-2c.5.6 2.5 2.5 5.9 2.5 5.7 0 9.7-4.3 9.7-10.4 0-6.2-3.7-10.4-9.4-10.4-3.4 0-5.4 1.9-5.9 2.6V82H158v27.4zm5.1-9.9c0-3.7 2.2-5.8 5.1-5.8 3 0 5.1 2.4 5.1 5.8 0 3.5-2.1 5.7-5.1 5.7-3.2.1-5.1-2.5-5.1-5.7zm17.5 17h5.2v-9.2c.5.6 2.5 2.5 5.9 2.5 5.7 0 9.4-4.3 9.4-10.4s-4-10.4-9.7-10.4c-3.4 0-5.4 1.9-5.9 2.6v-2.1h-4.9v27zm5.1-17.1c0-3.2 1.9-5.7 5.1-5.7 3 0 5.1 2.2 5.1 5.7s-2 5.8-5.1 5.8c-2.9.1-5.1-2-5.1-5.8zm16.4 3.9c0 4.2 3.4 6.7 7.4 6.7 2.3 0 3.8-.7 4.8-1.8l.3 1.3h4.6V96.8c0-4.4-1.9-7.8-8.3-7.8-3 0-6 1.1-7.8 2.4l2 3.6c1.5-.8 3.3-1.4 5.3-1.4 2.3 0 3.6 1.2 3.6 2.9v1.3c-.7-.5-2.3-1.1-4.3-1.1-4.5 0-7.6 2.7-7.6 6.6h0zm5.3-.2c0-1.6 1.4-2.8 3.4-2.8s3.5 1 3.5 2.8c0 1.7-1.4 2.7-3.4 2.7-2.1.1-3.5-1-3.5-2.7zm24.7 2.2c-3.3 0-5.7-2.4-5.7-5.8 0-3.2 2.1-5.8 5.5-5.8 2.2 0 3.8 1.1 4.6 1.9l1.5-4.4c-1.3-1-3.3-2.1-6.3-2.1-6 0-10.6 4.4-10.6 10.5s4.4 10.4 10.6 10.4c2.9 0 5.1-1.2 6.2-2.1l-1.4-4.3c-.8.6-2.4 1.7-4.4 1.7h0zm7.9 4.1h5.2V99.2l6.7 10.3h6.2l-7.5-10.9 7-9h-5.9l-6.4 8.4V82H240v27.4z" fill="#1a1c1c"/></svg>