<?xml version="1.0" encoding="utf-8"?>
<!-- Generator: Adobe Illustrator 24.1.3, SVG Export Plug-In . SVG Version: 6.00 Build 0)  -->
<svg version="1.1" id="Layer_1" xmlns="http://www.w3.org/2000/svg" xmlns:xlink="http://www.w3.org/1999/xlink" x="0px" y="0px"
	 viewBox="0 0 32.6 31.8" style="enable-background:new 0 0 32.6 31.8;" xml:space="preserve">
<style type="text/css">
	.st0{fill:#FFFFFF;}
</style>
<path class="st0" d="M8.6,11.5c0.6-0.6,1.2-1.1,1.9-1.4c3.8-2.1,8.7-1,11.2,2.7l-3,3c-0.9-1.9-3-3.1-5.1-2.6
	c-0.8,0.2-1.5,0.6-2.2,1.2l-5.7,5.7c-1.7,1.7-1.7,4.6,0,6.3s4.6,1.7,6.3,0l1.8-1.8c1.6,0.6,3.3,0.9,5,0.8l-3.9,3.9
	c-3.3,3.3-8.7,3.3-12.1,0s-3.3-8.7,0-12.1C2.9,17.2,8.6,11.5,8.6,11.5z M17.6,2.4l-3.9,3.9c1.7-0.1,3.4,0.1,5,0.8l1.8-1.8
	c1.7-1.7,4.6-1.7,6.3,0s1.7,4.6,0,6.3l-5.7,5.7c-1.7,1.7-4.6,1.7-6.3,0c-0.4-0.4-0.7-0.9-1-1.4l-3,3c0.3,0.5,0.6,0.9,1.1,1.3
	c1.1,1.1,2.4,1.9,4,2.3c2,0.5,4.2,0.2,6.1-0.8c0.7-0.4,1.3-0.9,1.9-1.4l5.7-5.7c3.3-3.3,3.3-8.7,0-12.1C26.4-0.9,21-0.9,17.6,2.4z"
	/>
</svg>
