<?xml version="1.0" encoding="utf-8"?>
<!-- Generator: Adobe Illustrator 24.1.3, SVG Export Plug-In . SVG Version: 6.00 Build 0)  -->
<svg version="1.1" id="Layer_1" xmlns:v="https://vecta.io/nano"
	 xmlns="http://www.w3.org/2000/svg" xmlns:xlink="http://www.w3.org/1999/xlink" x="0px" y="0px" viewBox="0 0 225 150"
	 style="enable-background:new 0 0 225 150;" xml:space="preserve">
<style type="text/css">
	.st0{fill:#FFFFFF;}
	.st1{fill:#8ED6FB;}
	.st2{fill:#1C78C0;}
	.st3{fill:#1A1C1C;}
</style>
<path class="st0" d="M30.9,45.6l27.4,15.5v31l-27.4,15.5L3.5,92.1v-31L30.9,45.6z"/>
<path class="st1" d="M53.5,91.1l-21.6,12.2v-9.5l13.5-7.4C45.4,86.4,53.5,91.1,53.5,91.1z M55,89.7V64.1l-7.9,4.6v16.4L55,89.7z
	 M8.3,91.1l21.6,12.2v-9.5l-13.4-7.4L8.3,91.1z M6.8,89.7V64.1l7.9,4.6v16.4L6.8,89.7z M7.8,62.5L30,50v9.2L15.7,67h-0.1L7.8,62.5z
	 M54,62.5L31.8,49.9v9.2L46.1,67l0.1,0.1L54,62.5z"/>
<path class="st2" d="M29.9,91.6l-13.3-7.3V69.8l13.3,7.7C29.9,77.5,29.9,91.6,29.9,91.6z M31.8,91.6l13.3-7.3V69.8l-13.3,7.7V91.6z
	 M17.5,68.1l13.3-7.3l13.3,7.3l-13.3,7.7L17.5,68.1z"/>
<path class="st3" d="M86,86.4h5.8l6-19.9h-5.7l-3.5,14.1l-3.8-14.1h-4.9l-3.8,14.1l-3.5-14.1h-5.7l5.9,19.9h5.8l3.7-12.7L86,86.4z
	 M98.2,76.5c0,6,4.1,10.4,10.5,10.4c4.9,0,7.6-3,8.4-4.4l-3.5-2.6c-0.6,0.8-2.1,2.4-4.8,2.4c-2.9,0-5.1-1.9-5.2-4.6h14v-1.1
	c0-6.5-3.5-10.6-9.6-10.6C102.2,66.1,98.2,70.5,98.2,76.5L98.2,76.5L98.2,76.5z M103.7,74.4c0.2-2.3,1.8-4,4.3-4
	c2.4,0,4.1,1.6,4.3,4H103.7z M119.5,86.4h4.9v-2c0.5,0.6,2.5,2.5,5.9,2.5c5.7,0,9.7-4.3,9.7-10.4c0-6.2-3.7-10.4-9.4-10.4
	c-3.4,0-5.4,1.9-5.9,2.6V59h-5.2C119.5,59,119.5,86.4,119.5,86.4z M124.6,76.5c0-3.7,2.2-5.8,5.1-5.8c3,0,5.1,2.4,5.1,5.8
	c0,3.5-2.1,5.7-5.1,5.7C126.5,82.3,124.6,79.7,124.6,76.5z M142.1,93.5h5.2v-9.2c0.5,0.6,2.5,2.5,5.9,2.5c5.7,0,9.4-4.3,9.4-10.4
	s-4-10.4-9.7-10.4c-3.4,0-5.4,1.9-5.9,2.6v-2.1h-4.9V93.5z M147.2,76.4c0-3.2,1.9-5.7,5.1-5.7c3,0,5.1,2.2,5.1,5.7s-2,5.8-5.1,5.8
	C149.4,82.3,147.2,80.2,147.2,76.4z M163.6,80.3c0,4.2,3.4,6.7,7.4,6.7c2.3,0,3.8-0.7,4.8-1.8l0.3,1.3h4.6V73.8
	c0-4.4-1.9-7.8-8.3-7.8c-3,0-6,1.1-7.8,2.4l2,3.6c1.5-0.8,3.3-1.4,5.3-1.4c2.3,0,3.6,1.2,3.6,2.9v1.3c-0.7-0.5-2.3-1.1-4.3-1.1
	C166.7,73.7,163.6,76.4,163.6,80.3L163.6,80.3z M168.9,80.1c0-1.6,1.4-2.8,3.4-2.8s3.5,1,3.5,2.8c0,1.7-1.4,2.7-3.4,2.7
	C170.3,82.9,168.9,81.8,168.9,80.1z M193.6,82.3c-3.3,0-5.7-2.4-5.7-5.8c0-3.2,2.1-5.8,5.5-5.8c2.2,0,3.8,1.1,4.6,1.9l1.5-4.4
	c-1.3-1-3.3-2.1-6.3-2.1c-6,0-10.6,4.4-10.6,10.5S187,87,193.2,87c2.9,0,5.1-1.2,6.2-2.1l-1.4-4.3C197.2,81.2,195.6,82.3,193.6,82.3
	L193.6,82.3L193.6,82.3z M201.5,86.4h5.2V76.2l6.7,10.3h6.2l-7.5-10.9l7-9h-5.9l-6.4,8.4V59h-5.3V86.4z"/>
</svg>
