<?xml version="1.0" encoding="utf-8"?>
<!-- Generator: Adobe Illustrator 24.1.3, SVG Export Plug-In . SVG Version: 6.00 Build 0)  -->
<svg version="1.1" id="Layer_1" xmlns:v="https://vecta.io/nano"
	 xmlns="http://www.w3.org/2000/svg" xmlns:xlink="http://www.w3.org/1999/xlink" x="0px" y="0px" viewBox="0 0 225 150"
	 style="enable-background:new 0 0 225 150;" xml:space="preserve">
<style type="text/css">
	.st0{fill:#10AA50;}
	.st1{fill:#B8C4C2;}
	.st2{fill:#12924F;}
	.st3{fill:#21313C;}
</style>
<path class="st0" d="M27.5,68.6c-3-13.6-9.5-17.2-11.1-19.7c-0.7-1.1-1.3-2.3-1.8-3.5c-0.1,1.2-0.3,2-1.3,2.8
	C11.3,50,2.6,57.1,1.8,72.6C1.1,87.1,12.4,95.9,13.9,96.8c1.2,0.6,2.6,0,3.2-0.5C22.5,92.7,30,82.7,27.5,68.6"/>
<path class="st1" d="M15.1,89.2c-0.3,3.5-0.5,5.6-1.2,7.7l0.8,7h1.2c0.3-2.6,0.7-5,1.3-7.6C15.6,95.6,15.2,92.4,15.1,89.2L15.1,89.2
	z"/>
<path class="st2" d="M17.1,96.3L17.1,96.3c-1.6-0.7-2-4-2.1-7.2c0.4-5.1,0.5-10.3,0.3-15.4c-0.1-2.7,0-24.9-0.7-28.2
	c0.5,1.1,1.1,2.2,1.7,3.2c1.7,2.6,8.1,6.2,11.1,19.7C30,82.7,22.5,92.6,17.1,96.3z"/>
<g>
	<path class="st3" d="M219.9,91.4c-1.8,0-3.3-1.5-3.3-3.3c0-1.8,1.5-3.3,3.3-3.3c1.8,0,3.3,1.5,3.3,3.3c0,0,0,0,0,0.1
		C223.2,89.9,221.8,91.4,219.9,91.4L219.9,91.4 M219.9,85c-1.7,0-3,1.4-3,3c0,1.7,1.4,3,3,3c1.7,0,3-1.4,3-3
		C223,86.5,221.6,85.1,219.9,85L219.9,85 M220.7,90.2l-0.9-1.9h-0.7v1.9h-0.5V86h1.3c0.9,0,1.3,0.4,1.3,1.2c0,0.6-0.3,1-0.9,1.1
		l0.9,1.9L220.7,90.2L220.7,90.2z M219.2,87.9h0.7c0.6,0,0.8-0.2,0.8-0.8s-0.2-0.7-0.9-0.7h-0.7L219.2,87.9L219.2,87.9z M170.2,88.4
		c0.9,0.7,2.8,1,4.3,1c2.1,0,4.1-0.4,6.1-2.2c2.1-1.9,3.4-4.6,3.4-9.1c0-4.3-1.7-7.8-5-9.8c-1.9-1.2-4.3-1.7-7.2-1.7
		c-0.8,0-1.7,0-2.1,0.3c-0.2,0.2-0.3,0.4-0.4,0.6c-0.1,0.8-0.1,6.6-0.1,10l0.1,9C169.4,87.1,169.7,88.1,170.2,88.4 M161.6,64.8
		c0.7,0,3.5,0.1,4.8,0.1l8.6-0.1c3.8,0,7,1,9.2,2.9c2.8,2.4,4.2,5.7,4.2,9.7c0,5.7-2.7,9-5.2,10.9c-2.7,2-6,3-10.9,3
		c-2.6,0-7-0.1-10.7-0.1h-0.1c-0.2-0.3,0.3-1.7,0.6-1.7c1-0.1,1.3-0.2,1.8-0.4c0.8-0.3,1-0.7,1.1-2.2c0.1-2.7,0.1-5.8,0.1-9.3v-9.1
		c-0.1-1.3-0.7-1.7-1.8-1.9c-0.8-0.2-1.6-0.3-2.5-0.4C160.7,66.2,161.4,65,161.6,64.8 M199.1,66.8c-0.2,0-0.4,0.5-0.4,0.7l-0.1,8.3
		c0,0.1,0.1,0.2,0.2,0.2l3.1,0.1c1.7,0,2.6-0.2,3.1-0.5c1.4-0.7,2.1-2.2,2.1-3.8c0-3.7-2.6-5.1-6.4-5.1
		C200.2,66.8,199.6,66.8,199.1,66.8 M208.9,83.9c0-3.7-2.8-5.9-7.8-5.9h-2.2c-0.1,0-0.3,0.1-0.3,0.2l0.1,8.6
		c0.1,0.7,0.6,1.8,1.3,2.1c0.7,0.4,2.3,0.5,3.3,0.5C206.3,89.4,208.9,87.9,208.9,83.9 M191.4,64.8l4.4,0.1l7.7-0.1
		c3.3,0,7.9,1.2,7.9,6.1c0,2.5-1.8,4.4-3.9,5.3c-0.1,0-0.1,0.1,0,0.2c3.1,0.8,6,2.8,6,6.5c0,3.6-2.3,6-5.6,7.4
		c-2.1,0.9-4.5,1.2-7.1,1.2c-2,0-7.2-0.2-10-0.2c-0.3-0.1,0.3-1.5,0.5-1.7c0.7,0,1.3-0.1,2-0.3c1-0.3,1.2-0.6,1.3-2.2
		c0.1-1.3,0.1-6.1,0.1-9.4v-9.2c0-1.2-0.5-1.6-1.3-1.8l-2.6-0.4C190.5,66.3,191.2,65,191.4,64.8 M37.1,91.4
		c-0.1-0.3-0.2-0.6-0.1-0.9c0-0.2,0-0.4,0.1-0.6l1.7-0.3c0.8-0.2,1.1-0.6,1.1-1.6l0.1-9.7c0-0.3,0-0.8-0.4-1.1
		c-0.7-0.5-1.5-0.8-2.3-1c-0.4-0.1-0.6-0.3-0.6-0.5s0.2-0.5,0.7-0.6c1.3-0.1,4.5-0.9,5.8-1.5c0.1,0.2,0.2,0.4,0.2,0.6v0.4
		c0,0.4-0.1,0.9-0.1,1.4c0,0.2,0.2,0.3,0.4,0.3c0.1,0,0.1,0,0.2-0.1c2.5-1.9,4.6-2.6,5.8-2.6c1.9,0,3.2,0.9,4.4,2.7
		c0.1,0.1,0.1,0.1,0.3,0.1c0.1,0,0.2,0,0.2-0.1c2.3-1.7,4.5-2.8,6-2.8c3.5,0,5.6,2.7,5.6,7.1v7.9c0,0.2,0.3,0.8,0.7,0.9
		c0.5,0.3,1.3,0.4,2.2,0.6l0,0c0.1,0.3-0.1,1.3-0.2,1.5h-1c-0.7,0-1.8-0.1-2.9-0.1l-4.7,0.1c-0.1-0.3-0.1-1.3,0-1.5l1.5-0.3
		c0.8-0.3,1-0.6,1-1.6l-0.1-8.3c-0.2-1.6-1.4-3.3-3.9-3.3c-0.9,0-2.5,0.4-3.8,1.5c-0.1,0.1-0.1,0.2-0.1,0.4l0,0
		c0.2,0.8,0.2,1.8,0.2,3.1v7c0,0.8,0.5,1,0.9,1.2c0.2,0,0.4,0.1,0.6,0.1c0.3,0.1,0.7,0.2,1.2,0.3c0.1,0.4,0.1,0.7,0,1.1
		c0,0.1-0.1,0.3-0.2,0.4c-1.3,0-2.7-0.1-4.5-0.1h-4c-0.1-0.2-0.1-0.5-0.1-0.8c0-0.2,0-0.5,0.1-0.7l0.5-0.1c0.5-0.1,0.9-0.2,1.2-0.2
		c0.6-0.2,0.9-0.6,0.9-1.4c0.1-1.9,0.2-7.4,0-8.7c-0.5-2.2-1.7-3.3-3.7-3.3c-1.2,0-2.7,0.6-3.8,1.5c-0.2,0.2-0.4,0.6-0.4,0.9v9.9
		c0,0.5,0.2,1,1.1,1.2c0.2,0.1,0.5,0.1,0.9,0.2c0.2,0,0.5,0.1,0.7,0.1c0.1,0.5,0,1-0.1,1.5h-1.4c-0.8,0-1.8-0.1-2.9-0.1l-3,0.1
		L37.1,91.4"/>
	<g>
		<path id="B" class="st3" d="M80.3,75.5c-0.7,0-1.5,0.2-2.1,0.6C76.7,77,76,78.8,76,81.5c0,5,2.5,8.4,6.1,8.4c1,0,1.9-0.3,2.7-0.9
			c1.1-0.9,1.7-2.8,1.7-5.3C86.4,78.8,83.9,75.5,80.3,75.5 M81,91.8c-6.5,0-8.7-4.7-8.7-9.1c0-3.1,1.3-5.5,3.7-7.2
			c1.8-1.1,3.7-1.7,5.8-1.8c4.9,0,8.3,3.5,8.3,8.6c0,3.4-1.4,6.2-4,7.9C84.9,91,82.7,91.8,81,91.8"/>
	</g>
	<g>
		<path id="B_1_" class="st3" d="M146.1,75.5c-0.7,0-1.5,0.2-2.1,0.6c-1.5,0.9-2.3,2.8-2.3,5.4c0,5,2.5,8.4,6.1,8.4
			c1,0,1.9-0.3,2.7-0.9c1.1-0.9,1.7-2.8,1.7-5.3C152.2,78.8,149.7,75.5,146.1,75.5 M146.8,91.8c-6.5,0-8.7-4.7-8.7-9.1
			c0-3.1,1.3-5.5,3.7-7.2c1.8-1.1,3.7-1.7,5.8-1.8c4.9,0,8.3,3.5,8.3,8.6c0,3.4-1.4,6.2-4,7.9C150.7,91,148.5,91.8,146.8,91.8"/>
	</g>
	<path class="st3" d="M124.3,75.4c-2,0-3.2,1.6-3.2,4s1.1,5.3,4.2,5.3c0.5,0,1.5-0.2,2-0.8c0.7-0.7,1.2-2.1,1.2-3.5
		C128.4,77.3,126.9,75.4,124.3,75.4 M124.1,92.2c-0.6,0-1.1,0.1-1.6,0.4c-1.6,1-2.3,2.1-2.3,3.1c0,1.1,0.4,2,1.4,2.8
		c1.1,1,2.6,1.4,4.5,1.4c3.8,0,5.6-2.1,5.6-4.1c0-1.5-0.7-2.4-2.2-2.9C128.3,92.4,126.3,92.2,124.1,92.2 M124.3,102
		c-2.4,0-4-0.5-5.4-1.6c-1.4-1.1-2.1-2.7-2.1-3.7c0-0.7,0.3-1.4,0.8-1.9c0.4-0.5,1.4-1.3,3.5-2.8c0.1,0,0.1-0.1,0.1-0.2
		c0-0.1-0.1-0.2-0.1-0.2c-1.8-0.7-2.4-1.8-2.5-2.5V89c-0.1-0.2-0.1-0.5,0.2-0.7l1.1-0.7c0.6-0.3,1.2-0.7,1.8-1.1
		c0.1-0.1,0.1-0.3,0-0.4h-0.1c-2.7-0.9-3.9-2.8-3.9-5.8c0-1.9,0.9-3.6,2.5-4.8c1.1-0.9,3.7-1.9,5.4-1.9h0.1c1.8,0,2.8,0.4,4.1,0.9
		c0.8,0.3,1.7,0.4,2.5,0.4c1.5,0,2.1-0.5,2.7-1c0.1,0.2,0.1,0.5,0.1,0.8c0,0.6-0.1,1.3-0.5,1.8c-0.3,0.4-1,0.7-1.7,0.7h-0.2
		c-0.3,0-0.7-0.1-1-0.2l-0.2,0.1c-0.1,0.1,0,0.2,0,0.3v0.1c0.1,0.5,0.2,1.1,0.2,1.7c0,3.1-1.3,4.5-2.6,5.5s-2.8,1.6-4.4,1.7l0,0h-1
		c-0.3,0.1-1.1,0.4-1.1,1.1c0,0.6,0.3,1.3,2,1.4l1.1,0.1c2.2,0.2,4.8,0.3,6.1,0.8c1.8,0.6,2.8,2.3,2.8,4.1c0,2.8-2,5.4-5.3,7.1
		C127.8,101.6,126.1,102,124.3,102 M114.5,89.9c-1-0.1-1.7-0.3-2.5-0.6c-0.2-0.2-0.3-0.4-0.3-0.6c-0.1-1.3-0.1-5.1-0.1-7.7
		c0-2.1-0.3-3.8-1.2-5.1c-1.1-1.5-2.5-2.3-4.4-2.3c-1.7,0-3.9,1.2-5.8,2.8c0,0-0.3,0.3-0.3-0.1c0-0.4,0.1-1.3,0.1-1.8
		c0-0.3-0.1-0.6-0.3-0.8c-1.2,0.6-4.6,1.4-5.9,1.6c-0.9,0.2-1.2,1.1-0.2,1.4l0,0c0.8,0.2,1.6,0.6,2.3,1c0.4,0.3,0.4,0.7,0.4,1.1
		l-0.1,9.6c0,1-0.3,1.3-1,1.5h0.1l-1.6,0.3c-0.2,0.2-0.2,1.5,0,1.7l4.4-0.1l4.4,0.1c0.3-0.3,0.4-1.5,0.2-1.7c-0.6,0-1.2-0.1-1.8-0.3
		c-0.7-0.2-0.9-0.5-0.9-1.3l-0.1-9.1c0-0.8,0.2-1.2,0.5-1.4c0.9-0.8,2.3-1.3,3.5-1.3c1.2,0,2.1,0.4,2.7,0.9c0.7,0.6,1.2,1.5,1.3,2.4
		c0.2,1.6,0.1,4.8,0.1,7.7c0,1.6-0.1,2-0.7,2.1c-0.6,0.2-1.2,0.3-1.8,0.3c-0.3,0.3-0.2,1.5,0,1.7l4.3-0.1l4.5,0.1
		C114.6,91.3,114.6,90.2,114.5,89.9"/>
</g>
</svg>
