<?xml version="1.0" encoding="utf-8"?>
<!-- Generator: Adobe Illustrator 24.1.3, SVG Export Plug-In . SVG Version: 6.00 Build 0)  -->
<svg version="1.1" id="Layer_1" xmlns:v="https://vecta.io/nano"
	 xmlns="http://www.w3.org/2000/svg" xmlns:xlink="http://www.w3.org/1999/xlink" x="0px" y="0px" viewBox="0 0 225 150"
	 style="enable-background:new 0 0 225 150;" xml:space="preserve">
<style type="text/css">
	.st0{fill:#261300;}
	.st1{fill:#FF7C00;}
</style>
<path class="st0" d="M66.7,30h91.7v89.2H66.7V30z"/>
<path class="st1" d="M62.5,25.9v97.5h100V25.9H62.5z M66.7,30h91.7v89.2H66.7V30z M97.2,81.1l-3.3,12.5c-0.1,0.3-0.2,0.4-0.6,0.4
	h-6.1c-0.4,0-0.5-0.1-0.4-0.6L98.6,52c0.2-0.8,0.3-1.4,0.4-3.5c0-0.3,0.1-0.4,0.3-0.4h8.8c0.3,0,0.4,0.1,0.5,0.4l13.3,45
	c0.1,0.3,0,0.5-0.3,0.5h-6.9c-0.3,0-0.5-0.1-0.6-0.4l-3.5-12.5H97.2L97.2,81.1z M108.8,74.3l-5-19.6h-0.1
	c-0.9,4.9-3.1,13.1-4.8,19.6H108.8L108.8,74.3z M127.5,51.2c0-2.7,1.9-4.3,4.3-4.3c2.5,0,4.3,1.7,4.3,4.3c0,2.8-1.8,4.3-4.3,4.3
	C129.3,55.4,127.5,53.9,127.5,51.2L127.5,51.2z M128,60.6c0-0.3,0.1-0.5,0.5-0.5h6.5c0.3,0,0.5,0.1,0.5,0.5v32.9
	c0,0.3-0.1,0.5-0.5,0.5h-6.5c-0.4,0-0.5-0.2-0.5-0.5V60.6z"/>
</svg>
