<?xml version="1.0" encoding="utf-8"?>
<!-- Generator: Adobe Illustrator 24.1.3, SVG Export Plug-In . SVG Version: 6.00 Build 0)  -->
<svg version="1.1" id="Layer_1" xmlns:v="https://vecta.io/nano"
	 xmlns="http://www.w3.org/2000/svg" xmlns:xlink="http://www.w3.org/1999/xlink" x="0px" y="0px" viewBox="0 0 225 150"
	 style="enable-background:new 0 0 225 150;" xml:space="preserve">
<style type="text/css">
	.st0{fill:#9A4993;}
	.st1{fill:#6A1577;}
	.st2{fill:#813084;}
	.st3{fill:#FFFFFF;}
</style>
<path class="st0" d="M162.1,51.6c0-1.9-0.4-3.5-1.2-5c-0.8-1.4-2-2.6-3.6-3.5l-39.7-22.9c-3.6-2-7-2-10.6,0.1L67.5,43.1
	c-3.2,1.9-4.8,4.7-4.8,8.5v46c0,1.8,0.4,3.5,1.2,4.9c0.8,1.4,2,2.7,3.6,3.6l39.5,22.8c3.5,2.1,7,2.2,10.6,0.1l39.7-22.9
	c1.7-0.9,2.8-2.1,3.6-3.6c0.8-1.4,1.2-3,1.2-4.9V51.6"/>
<g>
	<path class="st1" d="M112.6,74.4l-48.7,28c0.8,1.4,2,2.7,3.6,3.6l39.5,22.8c3.5,2.1,7,2.2,10.6,0.1l39.7-22.9
		c1.7-0.9,2.8-2.1,3.6-3.6L112.6,74.4"/>
	<path class="st1" d="M98.2,82.7c2.8,5,8.2,8.3,14.3,8.3s11.5-3.4,14.3-8.4l-14.2-8.2L98.2,82.7"/>
</g>
<path class="st2" d="M162.1,51.6c0-1.9-0.4-3.5-1.2-5l-48.3,27.8l48.4,28c0.8-1.4,1.2-3,1.2-4.9C162.1,97.6,162.1,66.9,162.1,51.6"
	/>
<path class="st3" d="M126.8,82.6c-2.8,5-8.2,8.4-14.3,8.4s-11.4-3.3-14.3-8.3c-1.4-2.5-2.2-5.3-2.2-8.1c0-9.1,7.3-16.4,16.4-16.4
	c6.1,0,11.3,3.3,14.2,8.2l14.3-8.3c-5.7-9.9-16.4-16.5-28.6-16.5c-18.2,0-33,14.8-33,33c0,6,1.6,11.6,4.4,16.4
	c5.7,9.9,16.4,16.6,28.6,16.6c12.3,0,23-6.7,28.7-16.6L126.8,82.6 M154.8,72.7v-3.3h-2.7v-2.7h-3.3v2.7h-4v-2.7h-3.3v2.7h-2.7v3.3
	h2.7v4h-2.7V80h2.7v2.7h3.3V80h4v2.7h3.3V80h2.7v-3.3h-2.7v-4L154.8,72.7L154.8,72.7z M148.9,76.7h-4v-4h4V76.7z"/>
</svg>
