<?xml version="1.0" encoding="utf-8"?>
<!-- Generator: Adobe Illustrator 24.1.3, SVG Export Plug-In . SVG Version: 6.00 Build 0)  -->
<svg version="1.1" id="Layer_1" xmlns:v="https://vecta.io/nano"
	 xmlns="http://www.w3.org/2000/svg" xmlns:xlink="http://www.w3.org/1999/xlink" x="0px" y="0px" viewBox="0 0 225 150"
	 style="enable-background:new 0 0 225 150;" xml:space="preserve">
<style type="text/css">
	.st0{fill:#39D8FF;}
</style>
<path class="st0" d="M83.7,61.7L81,60.8c0.2-0.6,0.3-1.2,0.4-1.8c2-9.8,0.7-17.7-3.8-20.3c-4.3-2.5-11.4,0.1-18.5,6.3
	c-0.7,0.6-1.4,1.2-2.1,1.9c-0.4-0.4-0.9-0.9-1.4-1.3c-7.4-6.7-15-9.4-19.5-6.8c-4.3,2.5-5.6,10-3.8,19.2c0.2,1,0.3,1.8,0.6,2.8
	c-1,0.3-2.1,0.6-3,1c-8.7,3-14.4,7.9-14.4,12.8c0,5.1,6.1,10.3,15.1,13.4c0.8,0.3,1.5,0.5,2.3,0.7c-0.3,1-0.4,2-0.7,2.9
	c-1.7,9.2-0.3,16.4,3.9,18.9c4.4,2.6,11.9-0.1,19.2-6.4c0.6-0.5,1.1-1,1.7-1.6c0.7,0.7,1.5,1.4,2.3,2.1c7,6.1,14,8.5,18.3,6.1
	c4.4-2.6,5.9-10.4,4-19.8c-0.2-0.7-0.3-1.5-0.5-2.3l1.6-0.5c9.5-3.1,15.7-8.2,15.7-13.4C98.4,69.6,92.6,64.8,83.7,61.7L83.7,61.7z
	 M61.3,47.7c6.1-5.4,11.9-7.4,14.5-6c2.8,1.6,3.9,8,2.1,16.5c-0.1,0.5-0.3,1.1-0.3,1.6c-3.6-0.9-7.4-1.4-11.1-1.7
	c-2.2-3-4.5-6-7-8.7C60.1,48.9,60.7,48.3,61.3,47.7z M42.3,83.1c0.9,1.5,1.7,2.9,2.6,4.2c-2.6-0.3-5.1-0.7-7.6-1.2
	c0.8-2.5,1.6-4.9,2.7-7.4C40.8,80.3,41.5,81.7,42.3,83.1z M37.4,63.4c2.5-0.5,5-1,7.5-1.3c-1,1.3-1.8,2.7-2.6,4.2
	c-0.8,1.4-1.6,2.9-2.3,4.3C39,68.3,38.1,65.9,37.4,63.4z M41.8,74.7c1.1-2.3,2.3-4.5,3.5-6.7s2.6-4.3,4-6.4c5-0.3,10.1-0.3,15.1,0
	c1.4,2.1,2.8,4.2,4,6.4c1.3,2.2,2.4,4.4,3.5,6.7c-1,2.3-2.3,4.5-3.5,6.7c-1.3,2.2-2.6,4.3-4,6.4c-2.4,0.2-5,0.3-7.6,0.3
	s-5.1-0.1-7.5-0.3c-1.5-2.1-2.8-4.2-4.1-6.4S42.9,76.9,41.8,74.7z M71.6,83.1c0.9-1.4,1.6-2.9,2.4-4.3c1,2.4,2,4.8,2.8,7.3
	c-2.6,0.6-5.1,1-7.7,1.3C69.9,85.9,70.8,84.5,71.6,83.1z M73.9,70.4c-0.7-1.4-1.5-2.8-2.3-4.2S70,63.4,69.1,62
	c2.7,0.3,5.2,0.8,7.5,1.3C75.8,65.7,74.9,68.2,73.9,70.4z M57,52c1.7,1.9,3.4,3.8,4.8,5.9c-3.3-0.2-6.5-0.2-9.8,0
	C53.6,55.9,55.3,53.9,57,52z M37.9,41.9c2.8-1.6,8.9,0.7,15.4,6.4c0.4,0.3,0.9,0.8,1.2,1.1c-2.5,2.8-4.9,5.7-7.1,8.7
	c-3.7,0.3-7.4,0.9-11.1,1.7c-0.2-0.8-0.3-1.6-0.5-2.5C34.3,49.4,35.3,43.4,37.9,41.9z M33.9,85.4c-0.8-0.3-1.5-0.5-2.1-0.7
	c-3.5-1.1-6.8-2.9-9.7-5.1C20,77.9,19,76.1,19,74.7c0-3,4.5-6.8,12-9.5l2.9-0.9c1.1,3.5,2.4,7.1,4.1,10.5
	C36.4,78.2,35,81.8,33.9,85.4z M53,101.6c-2.7,2.3-5.9,4.3-9.3,5.7c-2.5,0.9-4.6,1-5.8,0.3c-2.6-1.5-3.7-7.4-2.3-15.1
	c0.2-1,0.3-1.8,0.6-2.8c3.7,0.8,7.4,1.3,11.2,1.6c2.2,3.1,4.6,6.1,7.1,8.8C54.1,100.6,53.6,101.1,53,101.6L53,101.6z M57.1,97.4
	c-1.7-1.9-3.5-3.9-5-6c1.6,0.1,3.2,0.1,4.8,0.1c1.7,0,3.4,0,5-0.1C60.4,93.5,58.8,95.5,57.1,97.4z M78.7,102.4
	c-0.5,2.7-1.5,4.4-2.7,5.1c-2.6,1.5-8.2-0.4-14.2-5.6c-0.7-0.6-1.4-1.2-2.1-1.9c2.5-2.8,4.8-5.7,6.9-8.8c3.8-0.3,7.5-0.9,11.3-1.7
	c0,0.8,0.2,1.4,0.3,2.1l0,0C79,95.1,79.2,98.7,78.7,102.4L78.7,102.4z M81.6,84.7c-0.4,0.2-1,0.3-1.4,0.4c-1.1-3.6-2.6-7.1-4.2-10.5
	c1.6-3.4,2.9-6.8,4.1-10.4c0.9,0.3,1.6,0.5,2.4,0.8c7.7,2.6,12.4,6.6,12.4,9.5C94.8,77.8,89.8,81.9,81.6,84.7z M56.9,67.3
	c4.1,0,7.4,3.3,7.4,7.4s-3.3,7.4-7.4,7.4s-7.4-3.3-7.4-7.4C49.6,70.6,52.9,67.3,56.9,67.3 M127,74.1c3-1,5-3.5,5-7.3v-1
	c0-5.4-3.9-8-9.3-8h-10.4v28.1h3.5V74.8h7.7l6.3,11.3h3.9L127,74.1z M122.5,71.7L122.5,71.7h-6.8V61.1h6.8c3.5,0,6.1,1.6,6.1,4.9
	v0.9C128.6,70.1,126.1,71.7,122.5,71.7z M139.8,77.7h13.7v-2.2c0-5.5-3-8.8-8.2-8.8c-5.4,0-8.7,3.5-8.7,9.3v1.3
	c0,5.8,3.4,9.3,8.7,9.3c4.5,0,7.7-2.7,8-6.4H150c-0.3,2.2-2,3.6-4.8,3.6c-3.5,0-5.5-2.5-5.5-5.7l0,0v-0.4L139.8,77.7z M139.8,74.7
	v-0.6c0.2-2.8,2.6-4.9,5.4-4.8c3.5,0,4.9,2.3,4.9,5.1v0.4L139.8,74.7L139.8,74.7L139.8,74.7z M165.4,66.8c-4.8,0-7.4,3.4-7.4,6.8
	h3.3v-0.3c0.1-2.3,2-3.9,4.2-3.8c2.8,0,4,1.8,4,4.6v1.5c-1.5-0.2-2.9-0.3-4.4-0.3c-4.2,0-7.5,1.6-7.5,5.7c0,3.5,2.6,5.5,6.1,5.5
	c2.3,0.1,4.4-0.8,6-2.3v2h3.3V74.5C172.8,69.6,170.4,66.6,165.4,66.8L165.4,66.8z M169.6,81.3c-1.3,1.5-3.1,2.3-5.1,2.4
	c-2.3,0-3.7-1-3.7-2.9c0-2,1.7-2.9,4.6-2.9c1.4,0,2.9,0.1,4.2,0.3V81.3z M194.8,74.1h-3c-0.1-2.6-2.3-4.7-4.8-4.7h-0.2
	c-3.5,0-5.5,2.5-5.5,6.4v1.6c0,3.9,2,6.4,5.5,6.4c2.5,0.2,4.8-1.7,4.9-4.2v-0.1h3.1c-0.4,4.4-3.7,7.1-8,7.1c-5.4,0-8.8-3.3-8.8-9.3
	V76c0-6,3.5-9.3,8.8-9.3C191.3,66.6,194.5,69.5,194.8,74.1C194.8,74.1,194.8,74.1,194.8,74.1z M209.4,86c-1.2,0.4-2.4,0.6-3.7,0.5
	c-3.3,0-5.5-1.9-5.5-6V69.7h-3.5V67h3.5v-6.7h3.3V67h5.6v2.8h-5.6L203.4,80c0,2.7,1.2,3.5,3.2,3.5c0.9,0,1.8-0.2,2.6-0.5
	C209.3,83,209.4,86,209.4,86L209.4,86z"/>
</svg>
