<?xml version="1.0" encoding="utf-8"?>
<!-- Generator: Adobe Illustrator 24.1.3, SVG Export Plug-In . SVG Version: 6.00 Build 0)  -->
<svg version="1.1" id="Layer_1" xmlns:v="https://vecta.io/nano"
	 xmlns="http://www.w3.org/2000/svg" xmlns:xlink="http://www.w3.org/1999/xlink" x="0px" y="0px" viewBox="0 0 225 150"
	 style="enable-background:new 0 0 225 150;" xml:space="preserve">
<style type="text/css">
	.st0{fill:#FFB13B;}
	.st1{opacity:0.75;enable-background:new    ;}
	.st2{fill:#FFFFFF;}
</style>
<path d="M152.9,73.6c0-3.1-1.1-6-3.4-8.4l0,0c-2.3-2.3-5.3-3.4-8.4-3.4c2.1-2.1,3.5-5.1,3.5-8.4c0-6.6-5.3-11.8-11.8-11.8
	c-3.3,0-6.3,1.3-8.4,3.5l0,0c0-3.1-1.2-6.1-3.4-8.4c-2.2-2.2-5.2-3.4-8.4-3.4c-3.1,0-6.1,1.2-8.4,3.4c-2.3,2.3-3.4,5.3-3.4,8.4
	c-2.1-2.1-5.1-3.5-8.4-3.5c-6.6,0-11.8,5.3-11.8,11.8c0,3.3,1.3,6.3,3.5,8.4c-3.1,0-6,1.1-8.4,3.4c-2.2,2.2-3.4,5.2-3.4,8.4l0,0
	v28.6c0,6.7,5.1,11.8,11.8,11.8h57.2c6.7,0,11.8-5.1,11.8-11.8L152.9,73.6z"/>
<path class="st0" d="M146.1,70.3c-2.5-2.5-6.6-2.5-9.1,0l0,0h-13.1l9.2-9.2c3.5,0,6.4-2.9,6.4-6.4c0-3.5-2.9-6.4-6.4-6.4
	c-3.5,0-6.4,2.9-6.4,6.4l-9.3,9.2V50.8c2.5-2.5,2.5-6.6,0-9.1c-2.5-2.5-6.6-2.5-9.1,0l0,0c-2.5,2.5-2.5,6.6,0,9.1l0,0v13.1l-9.2-9.3
	c0-3.5-2.9-6.4-6.4-6.4c-3.5,0-6.4,2.9-6.4,6.4c0,3.5,2.9,6.4,6.4,6.4l9.2,9.2H88.7c-2.5-2.5-6.6-2.5-9.1,0c-2.5,2.5-2.5,6.6,0,9.1
	c2.5,2.5,6.6,2.5,9.1,0l0,0h13.1l-9.2,9.3c-3.5,0-6.4,2.9-6.4,6.4c0,3.5,2.9,6.4,6.4,6.4c3.5,0,6.4-2.9,6.4-6.4l9.2-9.2V99
	c-2.5,2.5-2.5,6.6,0,9.1c2.5,2.5,6.6,2.5,9.1,0c2.5-2.5,2.5-6.6,0-9.1l0,0V85.8l9.2,9.2c0,3.5,2.9,6.4,6.4,6.4
	c3.5,0,6.4-2.9,6.4-6.4c0-3.5-2.9-6.4-6.4-6.4l-9.2-9.2h13.1c2.5,2.5,6.6,2.5,9.1,0l0,0c2.5-2.4,2.6-6.4,0.2-8.9
	C146.2,70.4,146.2,70.4,146.1,70.3z"/>
<path class="st1" d="M72,73.6h81v28.6c0,6.7-5.1,11.8-11.8,11.8H83.9c-6.7,0-11.8-5.1-11.8-11.8L72,73.6L72,73.6z"/>
<path class="st2" d="M84.2,93.8c-1.8-1.8-3.1-4.6-3.1-7.3c0-5.8,4.7-10.5,10.5-10.5c5.8,0,10.5,4.7,10.5,10.5h-6.1
	c0-2.4-2-4.3-4.3-4.3c-2.4,0-4.3,2-4.3,4.3c0,1.2,0.5,2.3,1.2,3.1l0,0c0.8,0.8,1.4,1.1,3.1,1.2l0,0c2.9,0.3,5.5,1.2,7.5,3.1l0,0
	c1.8,1.8,3.1,4.6,3.1,7.3c0,5.8-4.7,10.5-10.5,10.5s-10.5-4.7-10.5-10.5h6.1c0,2.4,2,4.3,4.3,4.3s4.3-2,4.3-4.3
	c0-1.2-0.5-2.3-1.2-3.1l0,0c-0.8-0.8-2-1.1-3.1-1.2l0,0C88.8,96.4,86.1,95.7,84.2,93.8L84.2,93.8z M123,75.9l-7.5,35.7h-6.1
	l-7.3-35.7h6.1l4.3,20.9l4.3-20.9C116.8,75.9,123,75.9,123,75.9z M133.6,90.7h10.5v10.5c0,5.8-4.7,10.5-10.5,10.5
	c-5.8,0-10.5-4.7-10.5-10.5l0,0V86.4c0-5.8,4.7-10.5,10.5-10.5c5.8,0,10.5,4.7,10.5,10.5H138c0-2.4-2-4.3-4.3-4.3
	c-2.4,0-4.3,2-4.3,4.3v14.8c0,2.4,2,4.3,4.3,4.3c2.4,0,4.3-2,4.3-4.3l0,0v-4.4h-4.3v-6.1H133.6z"/>
</svg>
