<?xml version="1.0" encoding="utf-8"?>
<!-- Generator: Adobe Illustrator 24.1.3, SVG Export Plug-In . SVG Version: 6.00 Build 0)  -->
<svg version="1.1" id="Layer_1" xmlns:v="https://vecta.io/nano"
	 xmlns="http://www.w3.org/2000/svg" xmlns:xlink="http://www.w3.org/1999/xlink" x="0px" y="0px" viewBox="0 0 225 150"
	 style="enable-background:new 0 0 225 150;" xml:space="preserve">
<style type="text/css">
	.st0{fill:#83CD29;}
	.st1{fill:#404137;}
</style>
<path class="st0" d="M197.5,63.3c-0.5,0-1,0.1-1.4,0.3l-13.4,7.7c-0.9,0.5-1.4,1.4-1.4,2.5v15.5c0,1,0.5,1.9,1.4,2.4l3.5,2
	c1.7,0.8,2.3,0.8,3.1,0.8c2.5,0,4-1.5,4-4.2V75c0-0.2-0.2-0.4-0.4-0.4h-1.7c-0.2,0-0.4,0.2-0.4,0.4v15.3c0,1.2-1.2,2.4-3.2,1.4
	l-3.6-2.1c-0.1-0.1-0.2-0.2-0.2-0.3V73.8c0-0.2,0.1-0.3,0.2-0.4l13.4-7.7c0.1-0.1,0.3-0.1,0.4,0l13.4,7.7c0.1,0.1,0.2,0.2,0.2,0.4
	v15.5c0,0.2-0.1,0.3-0.2,0.4l-13.4,7.7c-0.1,0.1-0.3,0.1-0.4,0l-3.4-2.1c-0.1-0.1-0.2-0.1-0.3,0c-1,0.5-1.1,0.6-2,0.9
	c-0.2,0.1-0.6,0.2,0.1,0.6l4.5,2.6c0.4,0.2,0.9,0.4,1.4,0.4s1-0.1,1.4-0.4l13.4-7.7c0.9-0.5,1.4-1.4,1.4-2.4V73.8
	c0-1-0.5-1.9-1.4-2.4l-13.4-7.7C198.5,63.4,198,63.3,197.5,63.3L197.5,63.3L197.5,63.3z M201.1,74.4c-3.8,0-6.1,1.6-6.1,4.3
	c0,2.9,2.3,3.7,5.9,4.1c4.4,0.4,4.7,1.1,4.7,1.9c0,1.5-1.2,2.1-4,2.1c-3.5,0-4.3-0.9-4.6-2.6c0-0.2-0.2-0.3-0.4-0.3h-1.7
	c-0.2,0-0.4,0.2-0.4,0.4c0,2.3,1.2,4.9,7.1,4.9c4.2,0,6.7-1.7,6.7-4.6s-2-3.7-6.1-4.2c-4.2-0.6-4.6-0.8-4.6-1.8
	c0-0.8,0.3-1.9,3.4-1.9c2.8,0,3.8,0.6,4.2,2.5c0,0.2,0.2,0.3,0.4,0.3h1.7c0.1,0,0.2-0.1,0.3-0.1c0.1-0.1,0.1-0.2,0.1-0.3
	C207.5,75.9,205.4,74.4,201.1,74.4L201.1,74.4L201.1,74.4z"/>
<path class="st1" d="M118.6,43c-0.1,0-0.3,0-0.4,0.1c-0.3,0.2-0.4,0.4-0.4,0.7v21.8c0,0.2-0.1,0.4-0.3,0.5c-0.2,0.1-0.4,0.1-0.6,0
	l-3.6-2.1c-0.5-0.3-1.2-0.3-1.7,0l-14.2,8.2c-0.5,0.3-0.9,0.9-0.9,1.5v16.4c0,0.6,0.3,1.2,0.9,1.5l14.2,8.2c0.5,0.3,1.2,0.3,1.7,0
	l14.2-8.2c0.5-0.3,0.9-0.9,0.9-1.5V49.4c0-0.6-0.3-1.2-0.9-1.5l-8.5-4.7C118.9,43,118.7,43,118.6,43L118.6,43z M27.1,63.5
	c-0.3,0-0.5,0.1-0.8,0.2l-14.2,8.2c-0.5,0.3-0.9,0.9-0.9,1.5v22c0,0.3,0.2,0.6,0.4,0.7c0.3,0.2,0.6,0.2,0.9,0l8.4-4.8
	c0.5-0.3,0.9-0.9,0.9-1.5V79.5c0-0.6,0.3-1.2,0.9-1.5l3.6-2.1c0.3-0.2,0.6-0.2,0.9-0.2s0.6,0.1,0.9,0.2l3.6,2.1
	c0.5,0.3,0.9,0.9,0.9,1.5v10.3c0,0.6,0.4,1.2,0.9,1.5l8.4,4.8c0.3,0.2,0.6,0.2,0.9,0s0.4-0.4,0.4-0.7v-22c0-0.6-0.3-1.2-0.9-1.5
	l-14.2-8.2c-0.2-0.1-0.5-0.2-0.8-0.2L27.1,63.5L27.1,63.5z M154.9,63.7c-0.3,0-0.6,0.1-0.9,0.2l-14.2,8.2c-0.5,0.3-0.9,0.9-0.9,1.5
	V90c0,0.6,0.3,1.2,0.9,1.5l14.1,8c0.5,0.3,1.2,0.3,1.7,0l8.5-4.8c0.3-0.2,0.5-0.4,0.5-0.7s-0.2-0.6-0.4-0.7l-14.3-8.2
	c-0.3-0.2-0.5-0.5-0.5-0.8v-5.1c0-0.3,0.2-0.6,0.5-0.7l4.4-2.6c0.3-0.2,0.6-0.2,0.9,0l4.4,2.6c0.3,0.2,0.4,0.4,0.4,0.7v4
	c0,0.3,0.2,0.6,0.4,0.7c0.3,0.2,0.6,0.2,0.9,0l8.5-5c0.5-0.3,0.9-0.9,0.9-1.5v-4c0-0.6-0.3-1.2-0.9-1.5l-14.1-8.2
	C155.5,63.8,155.2,63.7,154.9,63.7L154.9,63.7L154.9,63.7z M112.4,76c0.1,0,0.2,0,0.2,0.1l4.9,2.8c0.1,0.1,0.2,0.2,0.2,0.4v5.6
	c0,0.2-0.1,0.3-0.2,0.4l-4.9,2.8c-0.1,0.1-0.3,0.1-0.4,0l-4.9-2.8c-0.1-0.1-0.2-0.2-0.2-0.4v-5.6c0-0.2,0.1-0.3,0.2-0.4l4.9-2.8
	C112.2,76,112.3,76,112.4,76L112.4,76z"/>
<path class="st0" d="M69.8,63.6c-0.3,0-0.6,0.1-0.9,0.2L54.8,72c-0.5,0.3-0.9,0.9-0.9,1.5V90c0,0.6,0.3,1.2,0.9,1.5L69,99.7
	c0.5,0.3,1.2,0.3,1.7,0l14.2-8.2c0.5-0.3,0.9-0.9,0.9-1.5V73.6c0-0.6-0.3-1.2-0.9-1.5l-14.2-8.2C70.4,63.7,70.1,63.6,69.8,63.6
	L69.8,63.6z M154.9,78.3h-0.2l-2.7,1.6c-0.1,0.1-0.2,0.2-0.2,0.3v3.1c0,0.1,0.1,0.2,0.2,0.3l2.7,1.6c0.1,0.1,0.2,0.1,0.3,0l2.7-1.6
	c0.1-0.1,0.2-0.2,0.2-0.3v-3.1c0-0.1-0.1-0.2-0.2-0.3l-2.7-1.6H154.9z"/>
</svg>
