<?xml version="1.0" encoding="utf-8"?>
<!-- Generator: Adobe Illustrator 25.3.0, SVG Export Plug-In . SVG Version: 6.00 Build 0)  -->
<svg version="1.1" id="Layer_1" xmlns:v="https://vecta.io/nano"
	 xmlns="http://www.w3.org/2000/svg" xmlns:xlink="http://www.w3.org/1999/xlink" x="0px" y="0px" viewBox="0 0 225 150"
	 style="enable-background:new 0 0 225 150;" xml:space="preserve">
<style type="text/css">
	.st0{fill:#3178C6;}
	.st1{fill-rule:evenodd;clip-rule:evenodd;fill:#FFFFFF;}
</style>
<g>
	<path class="st0" d="M72.3,25h80.4c5.4,0,9.8,4.4,9.8,9.8v80.4c0,5.4-4.4,9.8-9.8,9.8H72.3c-5.4,0-9.8-4.4-9.8-9.8V34.8
		C62.5,29.4,66.9,25,72.3,25z"/>
	<path class="st0" d="M72.3,25h80.4c5.4,0,9.8,4.4,9.8,9.8v80.4c0,5.4-4.4,9.8-9.8,9.8H72.3c-5.4,0-9.8-4.4-9.8-9.8V34.8
		C62.5,29.4,66.9,25,72.3,25z"/>
	<path class="st1" d="M124.4,104.6v9.8c1.6,0.8,3.5,1.4,5.6,1.8c2.2,0.4,4.5,0.6,6.9,0.6c2.3,0,4.6-0.2,6.7-0.7
		c2.1-0.4,4-1.2,5.5-2.2c1.6-1,2.8-2.4,3.8-4s1.4-3.7,1.4-6.2c0-1.8-0.3-3.3-0.8-4.7c-0.5-1.3-1.3-2.5-2.3-3.6c-1-1-2.2-2-3.6-2.8
		s-3-1.6-4.7-2.3c-1.3-0.5-2.4-1-3.5-1.5c-1-0.5-1.9-1-2.6-1.5c-0.7-0.5-1.3-1.1-1.6-1.6c-0.4-0.6-0.6-1.2-0.6-2
		c0-0.7,0.2-1.3,0.5-1.8s0.8-1,1.5-1.4c0.6-0.4,1.4-0.7,2.3-0.9c0.9-0.2,1.9-0.3,3.1-0.3c0.8,0,1.7,0.1,2.6,0.2
		c0.9,0.1,1.8,0.3,2.7,0.6c0.9,0.3,1.8,0.6,2.7,1c0.9,0.4,1.7,0.8,2.4,1.3v-9.1c-1.5-0.6-3.1-1-4.9-1.3c-1.8-0.3-3.8-0.4-6.1-0.4
		c-2.3,0-4.5,0.2-6.6,0.7c-2.1,0.5-3.9,1.3-5.5,2.3c-1.6,1.1-2.8,2.4-3.7,4c-0.9,1.6-1.4,3.6-1.4,5.9c0,2.9,0.8,5.4,2.5,7.5
		c1.7,2.1,4.2,3.8,7.7,5.2c1.3,0.5,2.6,1.1,3.8,1.6c1.2,0.5,2.2,1.1,3,1.6c0.8,0.6,1.5,1.2,2,1.9c0.5,0.7,0.7,1.4,0.7,2.3
		c0,0.6-0.2,1.2-0.5,1.8c-0.3,0.5-0.8,1-1.4,1.4s-1.4,0.7-2.3,0.9c-0.9,0.2-2,0.3-3.3,0.3c-2.1,0-4.2-0.4-6.3-1.1
		C128.1,107.2,126.2,106,124.4,104.6L124.4,104.6z M108,80.5h12.5v-8H85.6v8H98v35.7h9.9V80.5z"/>
</g>
</svg>
