<?xml version="1.0" encoding="utf-8"?>
<!-- Generator: Adobe Illustrator 24.1.3, SVG Export Plug-In . SVG Version: 6.00 Build 0)  -->
<svg version="1.1" id="Layer_1" xmlns:v="https://vecta.io/nano"
	 xmlns="http://www.w3.org/2000/svg" xmlns:xlink="http://www.w3.org/1999/xlink" x="0px" y="0px" viewBox="0 0 225 150"
	 style="enable-background:new 0 0 225 150;" xml:space="preserve">
<style type="text/css">
	.st0{fill:#0089D6;}
</style>
<path class="st0" d="M53.5,94.8L69.3,92h0.1l-8.1-9.7l-8.1-9.7c0,0,8.4-23.1,8.4-23.2c0,0,5.7,9.8,13.8,23.9l14,24.3H37.8
	C37.9,97.5,53.5,94.8,53.5,94.8L53.5,94.8z M152.4,92.4c-3.9-0.3-6.2-2.5-6.8-6.7c-0.2-1.1-0.2-1.1-0.2-8.4v-7h3.5v6.8l0.1,7.2
	c0.2,1.7,0.7,2.9,1.5,3.8c0.6,0.7,1.4,1.1,2.4,1.3c0.5,0.1,1.9,0.1,2.3,0c1.1-0.2,1.9-0.7,2.6-1.4c0.9-0.8,1.5-2.1,1.8-3.4l0.1-0.5
	V70.5h3.6v21.4h-3.5v-1.7c0-1.2,0-1.7,0-1.7s-0.1,0.1-0.2,0.3c-0.6,1.1-1.6,2.1-2.7,2.7C155.5,92.3,154.2,92.5,152.4,92.4
	L152.4,92.4L152.4,92.4z M192.3,92.4c-1.4-0.1-2.8-0.6-4-1.3c-2.5-1.6-4-4.1-4.4-7.6c-0.1-1.2-0.2-2.9,0-3.9
	c0.3-2.3,1.2-4.6,2.5-6.2c0.3-0.4,1.1-1.2,1.5-1.5c1.1-0.9,2.4-1.5,3.8-1.8c0.8-0.2,2.2-0.3,3.1-0.2c2.2,0.2,4.2,1.2,5.5,2.8
	c1.4,1.6,2.1,3.9,2.2,6.7c0,0.4,0,1.2,0,1.7V82h-15.2v0.3c0,1,0.3,2.2,0.7,3.2c0.4,0.9,1,1.8,1.5,2.3c1.1,0.9,2.4,1.5,3.9,1.6
	c0.5,0.1,1.9,0,2.5-0.1c1.7-0.3,3.4-1,4.8-2l0.3-0.2c0,0,0,0.3,0,1.6v1.6l-0.4,0.2c-1.5,0.9-3.3,1.5-5.1,1.8
	C194.9,92.4,192.9,92.4,192.3,92.4L192.3,92.4L192.3,92.4z M198.9,78.8c0-1.7-0.7-3.7-1.8-4.6c-0.7-0.7-1.6-1.1-2.7-1.3
	c-0.5-0.1-1.6,0-2.1,0.1c-1.1,0.2-2,0.7-2.8,1.5s-1.5,1.9-1.9,3c-0.2,0.5-0.3,1-0.4,1.5v0.2h11.6L198.9,78.8L198.9,78.8z M95.7,91.9
	c0,0,2.6-6.8,5.7-15.1l5.7-15h3.7l0.1,0.4l11.5,29.7c0,0-0.9,0-2,0h-2l-3.2-8.4h-12.8l-0.1,0.1c0,0.1-0.7,2-1.5,4.2l-1.4,4.1h-2
	C96.1,91.9,95.7,91.9,95.7,91.9L95.7,91.9L95.7,91.9z M114.2,80.3c0,0-1.1-2.9-2.4-6.4c-2.4-6.6-2.6-7-2.8-8
	c-0.1-0.5-0.1-0.5-0.2-0.1c-0.1,0.5-0.2,1-0.3,1.4c-0.8,2.2-1.6,4.5-2.4,6.7l-2.3,6.4c0,0,2.3,0,5.2,0H114.2L114.2,80.3z
	 M123.7,91.4v-0.6l12.7-17.5h-11.5v-2.9h16.6v1L128.8,89c0,0,2.8,0,6.3,0h6.3v2.9h-17.7L123.7,91.4L123.7,91.4z M170.3,91.9
	c0,0,0-4.9,0-10.8V70.4h3.5v2.2v2.2c0,0,0.1-0.2,0.2-0.4c0.4-1.1,1.1-2.2,1.9-3c0.7-0.7,1.7-1.2,2.7-1.4c0.3,0,0.6-0.1,1.1,0
	c0.7,0,1.1,0.1,1.6,0.2h0.1v3.6l-0.4-0.2c-0.7-0.4-1.4-0.5-2.3-0.5c-0.6,0-0.9,0.1-1.4,0.3c-0.9,0.3-1.7,1-2.2,1.8
	c-0.8,1.3-1.3,2.7-1.5,4.2c0,0.3,0,2.3-0.1,6.4v6.1H172L170.3,91.9L170.3,91.9z M22.6,91.8c0,0,3.8-6.7,8.5-14.7l8.5-14.7l19.8-16.6
	c0,0-0.1,0.2-0.2,0.4L37.9,91.8h-7.7C26,91.8,22.6,91.8,22.6,91.8L22.6,91.8z"/>
</svg>
