<?xml version="1.0" encoding="utf-8"?>
<!-- Generator: Adobe Illustrator 24.1.3, SVG Export Plug-In . SVG Version: 6.00 Build 0)  -->
<svg version="1.1" id="Layer_1" xmlns:v="https://vecta.io/nano"
	 xmlns="http://www.w3.org/2000/svg" xmlns:xlink="http://www.w3.org/1999/xlink" x="0px" y="0px" viewBox="0 0 225 150"
	 style="enable-background:new 0 0 225 150;" xml:space="preserve">
<style type="text/css">
	.st0{fill:#060421;}
	.st1{fill:#31C5F0;}
</style>
<path class="st0" d="M66.7,30h91.7v89.2H66.7V30z"/>
<path class="st1" d="M66.7,30h91.7v89.2H66.7V30z M62.5,123.4h100V25.9h-100V123.4z M129.9,65.9c-3.3,0-4.4,1.7-4.4,3
	c0,1.5,0.7,2.5,5.2,4.8c6.5,3.2,8.6,6.2,8.6,10.7c0,6.7-5.1,10.2-12,10.2c-3.6,0-6.8-0.8-8.5-1.8c-0.3-0.1-0.3-0.3-0.3-0.7V86
	c0-0.4,0.2-0.5,0.5-0.3c2.5,1.6,5.4,2.5,8.4,2.5c3.3,0,4.7-1.4,4.7-3.3c0-1.5-1-2.8-5.2-5c-5.9-2.8-8.4-5.7-8.4-10.5
	c0-5.4,4.2-9.8,11.5-9.8c3.6,0,6.1,0.5,7.5,1.2c0.3,0.2,0.4,0.5,0.4,0.8v5.7c0,0.3-0.2,0.5-0.6,0.4
	C135.3,66.6,132.6,65.9,129.9,65.9C129.9,65.9,129.9,65.9,129.9,65.9z M94.1,70.8c1,0.1,1.7,0.1,3.4,0.1c4.9,0,9.5-1.7,9.5-8.3
	c0-5.3-3.3-8-8.8-8c-1.7,0-3.3,0.1-4,0.1L94.1,70.8L94.1,70.8z M86.7,48.7c0-0.3,0.6-0.5,0.9-0.5c2.7-0.1,6.6-0.2,10.8-0.2
	c11.5,0,16,6.3,16,14.4c0,10.6-7.7,15.1-17.1,15.1c-1.6,0-2.1-0.1-3.3-0.1v16c0,0.3-0.1,0.5-0.5,0.5h-6.4c-0.3,0-0.5-0.1-0.5-0.5
	C86.6,93.4,86.7,48.7,86.7,48.7z"/>
</svg>
