<?xml version="1.0" encoding="utf-8"?>
<!-- Generator: Adobe Illustrator 24.1.3, SVG Export Plug-In . SVG Version: 6.00 Build 0)  -->
<svg version="1.1" id="Layer_1" xmlns:v="https://vecta.io/nano"
	 xmlns="http://www.w3.org/2000/svg" xmlns:xlink="http://www.w3.org/1999/xlink" x="0px" y="0px" viewBox="0 0 225 150"
	 style="enable-background:new 0 0 225 150;" xml:space="preserve">
<style type="text/css">
	.st0{fill:#2684FF;}
	.st1{fill:url(#SVGID_1_);}
	.st2{fill:url(#SVGID_2_);}
</style>
<path class="st0" d="M145.5,34.1h-40c0,10,8.1,18,18,18h7.4v7.1c0,10,8.1,18,18,18V37.6C149,35.7,147.4,34.1,145.5,34.1z"/>
<linearGradient id="SVGID_1_" gradientUnits="userSpaceOnUse" x1="128.2267" y1="103.8382" x2="111.2887" y2="121.5812" gradientTransform="matrix(1 0 0 1 0 -50)">
	<stop  offset="0.18" style="stop-color:#0052CC"/>
	<stop  offset="1" style="stop-color:#2684FF"/>
</linearGradient>
<path class="st1" d="M125.8,54h-40c0,10,8.1,18,18,18h7.4v7.1c0,10,8.1,18,18,18V57.5C129.2,55.6,127.7,54,125.8,54L125.8,54z"/>
<linearGradient id="SVGID_2_" gradientUnits="userSpaceOnUse" x1="109.5857" y1="123.8274" x2="89.9607" y2="143.2164" gradientTransform="matrix(1 0 0 1 0 -50)">
	<stop  offset="0.18" style="stop-color:#0052CC"/>
	<stop  offset="1" style="stop-color:#2684FF"/>
</linearGradient>
<path class="st2" d="M106,73.9H66c0,10,8.1,18,18,18h7.4V99c0,9.9,8.1,18,18,18V77.3C109.4,75.4,107.9,73.9,106,73.9L106,73.9z"/>
</svg>
