<?xml version="1.0" encoding="utf-8"?>
<!-- Generator: Adobe Illustrator 24.1.3, SVG Export Plug-In . SVG Version: 6.00 Build 0)  -->
<svg version="1.1" id="Layer_1" xmlns:v="https://vecta.io/nano"
	 xmlns="http://www.w3.org/2000/svg" xmlns:xlink="http://www.w3.org/1999/xlink" x="0px" y="0px" viewBox="0 0 225 150"
	 style="enable-background:new 0 0 225 150;" xml:space="preserve">
<style type="text/css">
	.st0{fill:#672A7A;}
	.st1{fill:#FFFFFF;}
</style>
<path class="st0" d="M62.5,24.6h100v100h-100V24.6z"/>
<g>
	<path class="st1" d="M126.9,62.8c0.5-0.5,0.8-1,0.8-1.7c0-0.6-0.2-1.1-0.6-1.5c-0.3-0.3-0.8-0.6-1.5-0.9c-0.6-0.3-1.1-0.5-1.3-0.7
		s-0.3-0.5-0.3-0.9s0.1-0.6,0.4-0.8s0.6-0.3,1.1-0.3c0.7,0,1.3,0.2,1.9,0.6v-1.3c-0.5-0.3-1.1-0.4-1.8-0.4c-0.9,0-1.6,0.2-2.1,0.7
		s-0.8,1-0.8,1.7c0,0.6,0.2,1.1,0.5,1.5c0.3,0.3,0.8,0.6,1.5,1c0.7,0.3,1.2,0.5,1.4,0.8c0.2,0.2,0.4,0.5,0.4,0.8
		c0,0.8-0.5,1.2-1.6,1.2c-0.8,0-1.5-0.3-2.2-0.8v1.5c0.7,0.3,1.4,0.5,2.1,0.5C125.5,63.6,126.3,63.3,126.9,62.8L126.9,62.8z
		 M139.5,63.3h1.3v-7.2h2V55h-2v-1.3c0-1.2,0.5-1.8,1.4-1.8c0.3,0,0.6,0.1,0.9,0.2v-1.2c-0.2-0.1-0.5-0.1-1-0.1
		c-0.7,0-1.3,0.2-1.8,0.7c-0.6,0.5-0.8,1.2-0.8,2.2V55h-1.4v1.1h1.4L139.5,63.3L139.5,63.3z M96.7,52.9c0.2,0,0.5-0.1,0.6-0.2
		c0.2-0.2,0.2-0.4,0.2-0.6s-0.1-0.4-0.2-0.6s-0.4-0.2-0.6-0.2s-0.4,0.1-0.6,0.2c-0.2,0.2-0.2,0.4-0.2,0.6s0.1,0.5,0.2,0.6
		C96.3,52.8,96.5,52.9,96.7,52.9z M103.5,63.6c0.8,0,1.6-0.2,2.3-0.6v-1.3c-0.6,0.5-1.3,0.7-2.1,0.7c-0.9,0-1.6-0.3-2.1-0.8
		c-0.5-0.6-0.8-1.3-0.8-2.3s0.3-1.8,0.8-2.4s1.2-0.9,2.1-0.9c0.7,0,1.4,0.2,2,0.7v-1.4c-0.6-0.3-1.2-0.4-1.9-0.4
		c-1.3,0-2.4,0.4-3.2,1.3c-0.8,0.8-1.2,1.9-1.2,3.3c0,1.2,0.4,2.2,1.1,3C101.3,63.2,102.3,63.6,103.5,63.6L103.5,63.6z M151.1,55.7
		h0.2c0.2,0,0.4,0.2,0.5,0.5l0.3,0.7h0.5l-0.4-0.8c-0.2-0.3-0.3-0.5-0.5-0.5l0,0c0.2-0.1,0.4-0.1,0.5-0.3c0.1-0.1,0.2-0.3,0.2-0.5
		s-0.1-0.4-0.2-0.5c-0.2-0.2-0.4-0.2-0.8-0.2h-0.8v2.8h0.4L151.1,55.7z M151.1,54.4h0.4c0.2,0,0.4,0.1,0.5,0.1
		c0.1,0.1,0.1,0.2,0.1,0.4c0,0.3-0.2,0.5-0.6,0.5h-0.4V54.4z M144.9,61.1c0,1.6,0.7,2.5,2.2,2.5c0.5,0,0.9-0.1,1.3-0.3v-1.2
		c-0.2,0.2-0.5,0.3-0.9,0.3s-0.8-0.1-1-0.4c-0.2-0.2-0.3-0.6-0.3-1.2v-4.7h2.1V55h-2.1v-2.5c-0.5,0.2-0.9,0.3-1.3,0.4V55h-1.4v1.1
		h1.4L144.9,61.1L144.9,61.1z"/>
	<path class="st1" d="M151.5,57.7c0.6,0,1.2-0.2,1.6-0.6s0.7-1,0.7-1.6s-0.2-1.2-0.7-1.6c-0.4-0.4-1-0.6-1.6-0.6s-1.2,0.2-1.6,0.6
		s-0.6,1-0.6,1.6s0.2,1.2,0.6,1.6C150.4,57.5,150.9,57.7,151.5,57.7z M150.1,54.1c0.4-0.4,0.8-0.6,1.4-0.6s1,0.2,1.4,0.5
		c0.4,0.4,0.6,0.8,0.6,1.4c0,0.5-0.2,1-0.6,1.4s-0.8,0.6-1.4,0.6s-1-0.2-1.4-0.5c-0.4-0.4-0.6-0.8-0.6-1.4
		C149.6,54.9,149.8,54.4,150.1,54.1z M96.1,55h1.3v8.4h-1.3V55z M116.8,63.6c1.3,0,2.3-0.4,3-1.2s1.1-1.9,1.1-3.2s-0.4-2.4-1-3.2
		c-0.7-0.8-1.7-1.2-2.9-1.2c-1.3,0-2.3,0.4-3,1.1c-0.8,0.8-1.2,1.9-1.2,3.4c0,1.3,0.4,2.3,1.1,3.1S115.6,63.6,116.8,63.6L116.8,63.6
		z M114.9,56.7c0.5-0.5,1.2-0.8,2-0.8s1.5,0.3,2,0.8s0.7,1.4,0.7,2.4s-0.2,1.8-0.7,2.4s-1.1,0.8-2,0.8c-0.8,0-1.5-0.3-2-0.8
		s-0.8-1.3-0.8-2.4C114.1,58.1,114.4,57.3,114.9,56.7z M136.1,62.3c0.7-0.8,1.1-1.9,1.1-3.2s-0.4-2.4-1-3.2
		c-0.7-0.8-1.7-1.2-2.9-1.2c-1.3,0-2.3,0.4-3,1.1c-0.8,0.8-1.2,1.9-1.2,3.4c0,1.3,0.4,2.3,1.1,3.1s1.7,1.2,3,1.2
		C134.3,63.6,135.3,63.2,136.1,62.3L136.1,62.3z M130.3,59.2c0-1.1,0.3-1.9,0.8-2.5c0.5-0.5,1.2-0.8,2-0.8s1.5,0.3,2,0.8
		s0.7,1.4,0.7,2.4s-0.2,1.8-0.7,2.4s-1.1,0.8-2,0.8c-0.8,0-1.5-0.3-2-0.8S130.3,60.2,130.3,59.2z M116.4,84h11.1v-3.3h-11.1V70.5
		h11.9v-3.3h-15.5v30.7H129v-3.2h-12.6L116.4,84z M132.4,70.5h8.9v27.4h3.6V70.5h8.8v-3.3h-21.3V70.5z M73.6,93.6
		c-0.6,0-1.3,0.2-1.7,0.7c-0.5,0.4-0.7,1.1-0.7,1.7c0,0.6,0.2,1.3,0.7,1.7c0.4,0.5,1.1,0.7,1.7,0.7c0.6,0,1.3-0.2,1.7-0.7
		c0.5-0.4,0.7-1.1,0.7-1.7c0-0.6-0.2-1.3-0.7-1.7C74.9,93.8,74.2,93.6,73.6,93.6z M110.1,55.3c-0.4,0.3-0.7,0.8-0.9,1.4l0,0V55h-1.3
		v8.4h1.3v-4.3c0-1,0.2-1.7,0.6-2.3c0.4-0.5,0.8-0.7,1.4-0.7c0.4,0,0.8,0.1,1,0.3V55c-0.2-0.1-0.4-0.1-0.8-0.1
		C110.9,54.9,110.4,55,110.1,55.3z M82.5,53.2L82.5,53.2l4.4,10.1h0.6l4.4-10.1l-0.1,10.1h1.4V51.7h-1.7l-4.3,9.5L83,51.7h-1.8v11.6
		h1.4L82.5,53.2z M102.4,93.2l-16.5-26h-4.7v30.7h3.6V71.6l16.8,26.3h4.4V67.2h-3.6L102.4,93.2z"/>
</g>
</svg>
