<svg xmlns="http://www.w3.org/2000/svg" viewBox="0 0 300 200" xmlns:v="https://vecta.io/nano"><path d="M132.5 152.1c9.7 0 17.5-7.8 17.5-17.5v-17.5h-17.5c-9.7 0-17.5 7.8-17.5 17.5s7.8 17.5 17.5 17.5z" fill="#0acf83"/><path d="M115 99.6c0-9.7 7.8-17.5 17.5-17.5H150v35h-17.5c-9.7 0-17.5-7.8-17.5-17.5z" fill="#a259ff"/><path d="M115 64.6c0-9.7 7.8-17.5 17.5-17.5H150v35h-17.5c-9.7 0-17.5-7.8-17.5-17.5z" fill="#f24e1e"/><path d="M150 47.1h17.5c9.7 0 17.5 7.8 17.5 17.5s-7.8 17.5-17.5 17.5H150v-35z" fill="#ff7262"/><path d="M185 99.6c0 9.7-7.8 17.5-17.5 17.5S150 109.3 150 99.6s7.8-17.5 17.5-17.5S185 90 185 99.6z" fill="#1abcfe"/></svg>